G04 EAGLE Gerber RS-274X export*
G75*
%MOMM*%
%FSLAX34Y34*%
%LPD*%
%INBottom Copper*%
%IPPOS*%
%AMOC8*
5,1,8,0,0,1.08239X$1,22.5*%
G01*
%ADD10C,1.651000*%
%ADD11C,1.524000*%
%ADD12C,2.184400*%
%ADD13C,1.879600*%
%ADD14C,1.676400*%
%ADD15P,1.814519X8X112.500000*%
%ADD16C,1.778000*%
%ADD17P,1.924489X8X22.500000*%
%ADD18C,1.473200*%
%ADD19P,1.924489X8X292.500000*%
%ADD20P,1.924489X8X112.500000*%
%ADD21C,1.778000*%
%ADD22C,2.000000*%
%ADD23C,2.250000*%
%ADD24C,2.000000*%
%ADD25C,0.756400*%
%ADD26C,0.250000*%
%ADD27C,1.000000*%

G36*
X559098Y10164D02*
X559098Y10164D01*
X559117Y10162D01*
X559219Y10184D01*
X559321Y10200D01*
X559338Y10210D01*
X559358Y10214D01*
X559447Y10267D01*
X559538Y10316D01*
X559552Y10330D01*
X559569Y10340D01*
X559636Y10419D01*
X559708Y10494D01*
X559716Y10512D01*
X559729Y10527D01*
X559768Y10623D01*
X559811Y10717D01*
X559813Y10737D01*
X559821Y10755D01*
X559839Y10922D01*
X559839Y260830D01*
X559824Y260926D01*
X559814Y261023D01*
X559804Y261047D01*
X559800Y261073D01*
X559754Y261159D01*
X559714Y261248D01*
X559697Y261267D01*
X559684Y261290D01*
X559614Y261357D01*
X559548Y261429D01*
X559525Y261442D01*
X559506Y261460D01*
X559418Y261501D01*
X559332Y261548D01*
X559307Y261552D01*
X559283Y261563D01*
X559186Y261574D01*
X559090Y261591D01*
X559064Y261588D01*
X559039Y261590D01*
X558943Y261570D01*
X558847Y261556D01*
X558824Y261544D01*
X558798Y261538D01*
X558715Y261488D01*
X558628Y261444D01*
X558609Y261425D01*
X558587Y261412D01*
X558524Y261338D01*
X558456Y261268D01*
X558440Y261240D01*
X558427Y261225D01*
X558415Y261194D01*
X558375Y261122D01*
X557460Y258913D01*
X554387Y255840D01*
X550373Y254177D01*
X546027Y254177D01*
X542013Y255840D01*
X538940Y258913D01*
X537277Y262927D01*
X537277Y267273D01*
X538496Y270215D01*
X538509Y270271D01*
X538524Y270303D01*
X538530Y270359D01*
X538551Y270442D01*
X538551Y270449D01*
X538552Y270455D01*
X538547Y270510D01*
X538551Y270548D01*
X538539Y270606D01*
X538532Y270688D01*
X538530Y270693D01*
X538529Y270700D01*
X538508Y270747D01*
X538499Y270788D01*
X538466Y270844D01*
X538436Y270914D01*
X538431Y270920D01*
X538429Y270924D01*
X538417Y270938D01*
X538388Y270973D01*
X538373Y270999D01*
X538356Y271013D01*
X538331Y271045D01*
X537225Y272151D01*
X537225Y291449D01*
X539073Y293298D01*
X539074Y293298D01*
X539931Y294155D01*
X539999Y294249D01*
X540069Y294344D01*
X540071Y294350D01*
X540075Y294355D01*
X540109Y294466D01*
X540145Y294578D01*
X540145Y294584D01*
X540147Y294590D01*
X540144Y294707D01*
X540143Y294824D01*
X540141Y294831D01*
X540141Y294836D01*
X540134Y294853D01*
X540096Y294985D01*
X538877Y297927D01*
X538877Y302273D01*
X540540Y306287D01*
X543613Y309360D01*
X547627Y311023D01*
X551973Y311023D01*
X555987Y309360D01*
X558540Y306807D01*
X558598Y306765D01*
X558650Y306716D01*
X558697Y306694D01*
X558739Y306664D01*
X558808Y306643D01*
X558873Y306612D01*
X558925Y306607D01*
X558975Y306591D01*
X559046Y306593D01*
X559117Y306585D01*
X559168Y306596D01*
X559220Y306598D01*
X559288Y306622D01*
X559358Y306638D01*
X559403Y306664D01*
X559451Y306682D01*
X559507Y306727D01*
X559569Y306764D01*
X559603Y306803D01*
X559643Y306836D01*
X559682Y306896D01*
X559729Y306951D01*
X559748Y306999D01*
X559776Y307043D01*
X559794Y307112D01*
X559821Y307179D01*
X559829Y307250D01*
X559837Y307281D01*
X559835Y307305D01*
X559839Y307346D01*
X559839Y989078D01*
X559836Y989098D01*
X559838Y989117D01*
X559816Y989219D01*
X559800Y989321D01*
X559790Y989338D01*
X559786Y989358D01*
X559733Y989447D01*
X559684Y989538D01*
X559670Y989552D01*
X559660Y989569D01*
X559581Y989636D01*
X559506Y989708D01*
X559488Y989716D01*
X559473Y989729D01*
X559377Y989768D01*
X559283Y989811D01*
X559263Y989813D01*
X559245Y989821D01*
X559078Y989839D01*
X10922Y989839D01*
X10902Y989836D01*
X10883Y989838D01*
X10781Y989816D01*
X10679Y989800D01*
X10662Y989790D01*
X10642Y989786D01*
X10553Y989733D01*
X10462Y989684D01*
X10448Y989670D01*
X10431Y989660D01*
X10364Y989581D01*
X10292Y989506D01*
X10284Y989488D01*
X10271Y989473D01*
X10232Y989377D01*
X10189Y989283D01*
X10187Y989263D01*
X10179Y989245D01*
X10161Y989078D01*
X10161Y10922D01*
X10164Y10902D01*
X10162Y10883D01*
X10184Y10781D01*
X10200Y10679D01*
X10210Y10662D01*
X10214Y10642D01*
X10267Y10553D01*
X10316Y10462D01*
X10330Y10448D01*
X10340Y10431D01*
X10419Y10364D01*
X10494Y10292D01*
X10512Y10284D01*
X10527Y10271D01*
X10623Y10232D01*
X10717Y10189D01*
X10737Y10187D01*
X10755Y10179D01*
X10922Y10161D01*
X559078Y10161D01*
X559098Y10164D01*
G37*
%LPC*%
G36*
X205851Y112475D02*
X205851Y112475D01*
X187975Y130351D01*
X187975Y144958D01*
X187965Y145021D01*
X187965Y145085D01*
X187945Y145141D01*
X187936Y145201D01*
X187906Y145257D01*
X187885Y145317D01*
X187848Y145365D01*
X187820Y145418D01*
X187774Y145462D01*
X187735Y145513D01*
X187686Y145546D01*
X187642Y145587D01*
X187584Y145614D01*
X187531Y145650D01*
X187473Y145666D01*
X187419Y145691D01*
X187356Y145698D01*
X187294Y145715D01*
X187234Y145711D01*
X187175Y145718D01*
X187112Y145704D01*
X187048Y145701D01*
X186993Y145679D01*
X186934Y145666D01*
X186879Y145633D01*
X186820Y145609D01*
X186775Y145570D01*
X186723Y145540D01*
X186682Y145491D01*
X186633Y145450D01*
X186602Y145398D01*
X186563Y145353D01*
X186539Y145293D01*
X186506Y145239D01*
X186484Y145155D01*
X186471Y145125D01*
X186469Y145100D01*
X186462Y145077D01*
X186245Y143704D01*
X185664Y141917D01*
X184811Y140243D01*
X183706Y138722D01*
X182378Y137394D01*
X180857Y136289D01*
X179183Y135436D01*
X177396Y134855D01*
X176123Y134654D01*
X176123Y145738D01*
X176120Y145758D01*
X176122Y145777D01*
X176100Y145879D01*
X176083Y145981D01*
X176074Y145998D01*
X176070Y146018D01*
X176017Y146107D01*
X175968Y146198D01*
X175954Y146212D01*
X175944Y146229D01*
X175865Y146296D01*
X175790Y146367D01*
X175772Y146376D01*
X175757Y146389D01*
X175661Y146427D01*
X175567Y146471D01*
X175547Y146473D01*
X175529Y146481D01*
X175362Y146499D01*
X174599Y146499D01*
X174599Y146501D01*
X175362Y146501D01*
X175382Y146504D01*
X175401Y146502D01*
X175503Y146524D01*
X175605Y146541D01*
X175622Y146550D01*
X175642Y146554D01*
X175731Y146607D01*
X175822Y146656D01*
X175836Y146670D01*
X175853Y146680D01*
X175920Y146759D01*
X175991Y146834D01*
X176000Y146852D01*
X176013Y146867D01*
X176052Y146963D01*
X176095Y147057D01*
X176097Y147077D01*
X176105Y147095D01*
X176123Y147262D01*
X176123Y158346D01*
X177396Y158145D01*
X179183Y157564D01*
X180857Y156711D01*
X182378Y155606D01*
X183706Y154278D01*
X184811Y152757D01*
X185664Y151083D01*
X186245Y149296D01*
X186462Y147923D01*
X186482Y147862D01*
X186493Y147799D01*
X186521Y147747D01*
X186539Y147690D01*
X186578Y147638D01*
X186608Y147582D01*
X186651Y147541D01*
X186687Y147493D01*
X186740Y147457D01*
X186786Y147413D01*
X186840Y147387D01*
X186890Y147354D01*
X186951Y147336D01*
X187009Y147309D01*
X187069Y147302D01*
X187126Y147286D01*
X187190Y147289D01*
X187253Y147282D01*
X187312Y147295D01*
X187372Y147298D01*
X187431Y147321D01*
X187494Y147334D01*
X187545Y147365D01*
X187601Y147387D01*
X187650Y147428D01*
X187705Y147460D01*
X187744Y147506D01*
X187790Y147544D01*
X187823Y147599D01*
X187865Y147647D01*
X187887Y147703D01*
X187919Y147754D01*
X187933Y147816D01*
X187957Y147875D01*
X187966Y147962D01*
X187974Y147994D01*
X187973Y148018D01*
X187975Y148042D01*
X187975Y207785D01*
X187961Y207875D01*
X187953Y207966D01*
X187941Y207996D01*
X187936Y208028D01*
X187893Y208109D01*
X187857Y208193D01*
X187831Y208225D01*
X187820Y208245D01*
X187797Y208268D01*
X187752Y208324D01*
X179074Y217002D01*
X179000Y217055D01*
X178930Y217115D01*
X178900Y217127D01*
X178874Y217146D01*
X178787Y217173D01*
X178702Y217207D01*
X178661Y217211D01*
X178639Y217218D01*
X178607Y217217D01*
X178535Y217225D01*
X48529Y217225D01*
X48466Y217215D01*
X48402Y217215D01*
X48346Y217195D01*
X48287Y217186D01*
X48230Y217156D01*
X48170Y217135D01*
X48122Y217098D01*
X48069Y217070D01*
X48025Y217024D01*
X47975Y216985D01*
X47941Y216936D01*
X47900Y216892D01*
X47873Y216834D01*
X47837Y216781D01*
X47821Y216723D01*
X47796Y216669D01*
X47789Y216606D01*
X47772Y216544D01*
X47776Y216484D01*
X47769Y216425D01*
X47783Y216362D01*
X47786Y216298D01*
X47809Y216243D01*
X47821Y216184D01*
X47854Y216129D01*
X47878Y216070D01*
X47917Y216025D01*
X47948Y215973D01*
X47996Y215932D01*
X48038Y215883D01*
X48089Y215852D01*
X48134Y215813D01*
X48194Y215789D01*
X48248Y215756D01*
X48332Y215734D01*
X48363Y215721D01*
X48387Y215719D01*
X48391Y215717D01*
X48395Y215716D01*
X48410Y215712D01*
X49552Y215531D01*
X51568Y214876D01*
X53456Y213914D01*
X55170Y212669D01*
X56669Y211170D01*
X57914Y209456D01*
X58876Y207568D01*
X59531Y205552D01*
X59789Y203923D01*
X47162Y203923D01*
X47142Y203920D01*
X47123Y203922D01*
X47021Y203900D01*
X46919Y203883D01*
X46902Y203874D01*
X46882Y203870D01*
X46793Y203817D01*
X46702Y203768D01*
X46688Y203754D01*
X46671Y203744D01*
X46604Y203665D01*
X46533Y203590D01*
X46524Y203572D01*
X46511Y203557D01*
X46473Y203461D01*
X46429Y203367D01*
X46427Y203347D01*
X46419Y203329D01*
X46401Y203162D01*
X46401Y202399D01*
X46399Y202399D01*
X46399Y203162D01*
X46396Y203182D01*
X46398Y203201D01*
X46376Y203303D01*
X46359Y203405D01*
X46350Y203422D01*
X46346Y203442D01*
X46293Y203531D01*
X46244Y203622D01*
X46230Y203636D01*
X46220Y203653D01*
X46141Y203720D01*
X46066Y203791D01*
X46048Y203800D01*
X46033Y203813D01*
X45937Y203852D01*
X45843Y203895D01*
X45823Y203897D01*
X45805Y203905D01*
X45638Y203923D01*
X33011Y203923D01*
X33269Y205552D01*
X33924Y207568D01*
X34886Y209456D01*
X36131Y211170D01*
X37630Y212669D01*
X39344Y213914D01*
X41232Y214876D01*
X43248Y215531D01*
X44390Y215712D01*
X44450Y215732D01*
X44513Y215743D01*
X44566Y215771D01*
X44623Y215789D01*
X44674Y215828D01*
X44731Y215858D01*
X44772Y215901D01*
X44820Y215937D01*
X44856Y215990D01*
X44900Y216036D01*
X44925Y216090D01*
X44959Y216140D01*
X44977Y216201D01*
X45004Y216259D01*
X45010Y216319D01*
X45027Y216376D01*
X45024Y216440D01*
X45031Y216503D01*
X45018Y216562D01*
X45015Y216622D01*
X44992Y216681D01*
X44979Y216744D01*
X44948Y216795D01*
X44926Y216851D01*
X44885Y216900D01*
X44852Y216955D01*
X44807Y216994D01*
X44768Y217040D01*
X44714Y217073D01*
X44666Y217115D01*
X44610Y217137D01*
X44559Y217169D01*
X44497Y217183D01*
X44437Y217207D01*
X44351Y217216D01*
X44319Y217224D01*
X44295Y217223D01*
X44271Y217225D01*
X18851Y217225D01*
X17225Y218851D01*
X17225Y341149D01*
X18851Y342775D01*
X186464Y342775D01*
X186484Y342778D01*
X186503Y342776D01*
X186605Y342798D01*
X186707Y342814D01*
X186724Y342824D01*
X186744Y342828D01*
X186833Y342881D01*
X186924Y342930D01*
X186938Y342944D01*
X186955Y342954D01*
X187022Y343033D01*
X187094Y343108D01*
X187102Y343126D01*
X187115Y343141D01*
X187154Y343237D01*
X187197Y343331D01*
X187199Y343351D01*
X187207Y343369D01*
X187225Y343536D01*
X187225Y401149D01*
X189074Y402998D01*
X193802Y407726D01*
X193844Y407784D01*
X193893Y407836D01*
X193915Y407883D01*
X193945Y407925D01*
X193966Y407994D01*
X193997Y408059D01*
X194002Y408111D01*
X194018Y408161D01*
X194016Y408232D01*
X194024Y408303D01*
X194013Y408354D01*
X194011Y408406D01*
X193987Y408474D01*
X193971Y408544D01*
X193945Y408589D01*
X193927Y408637D01*
X193882Y408693D01*
X193845Y408755D01*
X193806Y408789D01*
X193773Y408829D01*
X193713Y408868D01*
X193658Y408915D01*
X193610Y408934D01*
X193566Y408962D01*
X193497Y408980D01*
X193430Y409007D01*
X193359Y409015D01*
X193328Y409023D01*
X193304Y409021D01*
X193263Y409025D01*
X176222Y409025D01*
X176107Y409006D01*
X175991Y408989D01*
X175986Y408987D01*
X175979Y408986D01*
X175877Y408931D01*
X175772Y408878D01*
X175768Y408873D01*
X175762Y408870D01*
X175682Y408786D01*
X175600Y408702D01*
X175596Y408696D01*
X175593Y408692D01*
X175585Y408675D01*
X175519Y408555D01*
X174419Y405900D01*
X171490Y402971D01*
X167662Y401385D01*
X145738Y401385D01*
X141910Y402971D01*
X138981Y405900D01*
X137395Y409728D01*
X137395Y413872D01*
X138981Y417700D01*
X141910Y420629D01*
X145738Y422215D01*
X167662Y422215D01*
X171490Y420629D01*
X174419Y417700D01*
X175519Y415045D01*
X175580Y414945D01*
X175640Y414845D01*
X175645Y414841D01*
X175648Y414836D01*
X175739Y414761D01*
X175827Y414685D01*
X175833Y414683D01*
X175838Y414679D01*
X175946Y414637D01*
X176055Y414593D01*
X176063Y414592D01*
X176068Y414591D01*
X176086Y414590D01*
X176222Y414575D01*
X190335Y414575D01*
X190425Y414589D01*
X190516Y414597D01*
X190546Y414609D01*
X190578Y414614D01*
X190659Y414657D01*
X190743Y414693D01*
X190775Y414719D01*
X190795Y414730D01*
X190818Y414753D01*
X190874Y414798D01*
X197002Y420926D01*
X197055Y421000D01*
X197115Y421070D01*
X197127Y421100D01*
X197146Y421126D01*
X197173Y421213D01*
X197207Y421298D01*
X197211Y421339D01*
X197218Y421361D01*
X197217Y421393D01*
X197225Y421465D01*
X197225Y658535D01*
X197211Y658625D01*
X197203Y658716D01*
X197191Y658746D01*
X197186Y658778D01*
X197143Y658859D01*
X197107Y658943D01*
X197081Y658975D01*
X197070Y658995D01*
X197047Y659018D01*
X197002Y659074D01*
X187991Y668085D01*
X187974Y668097D01*
X187962Y668113D01*
X187875Y668169D01*
X187791Y668229D01*
X187772Y668235D01*
X187755Y668246D01*
X187655Y668271D01*
X187556Y668301D01*
X187536Y668301D01*
X187517Y668306D01*
X187414Y668298D01*
X187310Y668295D01*
X187291Y668288D01*
X187271Y668286D01*
X187176Y668246D01*
X187079Y668210D01*
X187063Y668198D01*
X187045Y668190D01*
X186914Y668085D01*
X183314Y664485D01*
X174686Y664485D01*
X168585Y670586D01*
X168585Y679214D01*
X174686Y685315D01*
X183314Y685315D01*
X189415Y679214D01*
X189415Y674825D01*
X189429Y674735D01*
X189437Y674644D01*
X189449Y674614D01*
X189454Y674582D01*
X189497Y674501D01*
X189533Y674417D01*
X189559Y674385D01*
X189570Y674365D01*
X189593Y674342D01*
X189638Y674286D01*
X202775Y661149D01*
X202775Y583536D01*
X202778Y583516D01*
X202776Y583497D01*
X202798Y583395D01*
X202814Y583293D01*
X202824Y583276D01*
X202828Y583256D01*
X202881Y583167D01*
X202930Y583076D01*
X202944Y583062D01*
X202954Y583045D01*
X203033Y582978D01*
X203108Y582906D01*
X203126Y582898D01*
X203141Y582885D01*
X203237Y582846D01*
X203331Y582803D01*
X203351Y582801D01*
X203369Y582793D01*
X203536Y582775D01*
X366464Y582775D01*
X366484Y582778D01*
X366503Y582776D01*
X366605Y582798D01*
X366707Y582814D01*
X366724Y582824D01*
X366744Y582828D01*
X366833Y582881D01*
X366924Y582930D01*
X366938Y582944D01*
X366955Y582954D01*
X367022Y583033D01*
X367094Y583108D01*
X367102Y583126D01*
X367115Y583141D01*
X367154Y583237D01*
X367197Y583331D01*
X367199Y583351D01*
X367207Y583369D01*
X367225Y583536D01*
X367225Y588148D01*
X367222Y588168D01*
X367224Y588187D01*
X367202Y588289D01*
X367186Y588391D01*
X367176Y588408D01*
X367172Y588428D01*
X367119Y588517D01*
X367070Y588608D01*
X367056Y588622D01*
X367046Y588639D01*
X366967Y588706D01*
X366892Y588778D01*
X366874Y588786D01*
X366859Y588799D01*
X366763Y588838D01*
X366669Y588881D01*
X366649Y588883D01*
X366631Y588891D01*
X366464Y588909D01*
X366032Y588909D01*
X362764Y590263D01*
X360263Y592764D01*
X358909Y596032D01*
X358909Y599568D01*
X360263Y602836D01*
X362764Y605337D01*
X366032Y606691D01*
X369568Y606691D01*
X372836Y605337D01*
X375337Y602836D01*
X375761Y601814D01*
X375812Y601731D01*
X375858Y601645D01*
X375876Y601627D01*
X375890Y601605D01*
X375966Y601542D01*
X376036Y601476D01*
X376060Y601465D01*
X376080Y601448D01*
X376171Y601413D01*
X376259Y601372D01*
X376285Y601369D01*
X376309Y601360D01*
X376407Y601356D01*
X376503Y601345D01*
X376529Y601350D01*
X376555Y601349D01*
X376649Y601376D01*
X376744Y601397D01*
X376766Y601410D01*
X376791Y601418D01*
X376871Y601473D01*
X376955Y601523D01*
X376972Y601543D01*
X376993Y601558D01*
X377052Y601636D01*
X377115Y601710D01*
X377125Y601734D01*
X377140Y601755D01*
X377170Y601848D01*
X377207Y601938D01*
X377210Y601971D01*
X377216Y601989D01*
X377216Y602022D01*
X377225Y602105D01*
X377225Y685735D01*
X377211Y685825D01*
X377203Y685916D01*
X377191Y685946D01*
X377186Y685978D01*
X377143Y686059D01*
X377107Y686143D01*
X377081Y686175D01*
X377070Y686195D01*
X377047Y686218D01*
X377002Y686274D01*
X321390Y741886D01*
X321295Y741954D01*
X321201Y742024D01*
X321195Y742026D01*
X321190Y742030D01*
X321079Y742064D01*
X320967Y742100D01*
X320961Y742100D01*
X320955Y742102D01*
X320838Y742099D01*
X320721Y742098D01*
X320714Y742096D01*
X320709Y742096D01*
X320691Y742089D01*
X320560Y742051D01*
X318768Y741309D01*
X315232Y741309D01*
X311964Y742663D01*
X309463Y745164D01*
X308109Y748432D01*
X308109Y751968D01*
X309463Y755236D01*
X311964Y757737D01*
X315232Y759091D01*
X318768Y759091D01*
X322036Y757737D01*
X324537Y755236D01*
X325761Y752282D01*
X325812Y752199D01*
X325858Y752114D01*
X325877Y752096D01*
X325890Y752073D01*
X325965Y752011D01*
X326036Y751944D01*
X326060Y751933D01*
X326080Y751916D01*
X326171Y751882D01*
X326259Y751841D01*
X326285Y751838D01*
X326309Y751828D01*
X326407Y751824D01*
X326503Y751813D01*
X326529Y751819D01*
X326555Y751818D01*
X326649Y751845D01*
X326744Y751866D01*
X326766Y751879D01*
X326791Y751886D01*
X326871Y751942D01*
X326955Y751992D01*
X326972Y752012D01*
X326993Y752027D01*
X327052Y752105D01*
X327115Y752179D01*
X327125Y752203D01*
X327140Y752224D01*
X327170Y752317D01*
X327207Y752407D01*
X327210Y752439D01*
X327216Y752458D01*
X327216Y752491D01*
X327225Y752574D01*
X327225Y783535D01*
X327211Y783625D01*
X327203Y783716D01*
X327191Y783746D01*
X327186Y783778D01*
X327143Y783859D01*
X327107Y783943D01*
X327081Y783975D01*
X327070Y783995D01*
X327047Y784018D01*
X327002Y784074D01*
X306574Y804502D01*
X306500Y804555D01*
X306430Y804615D01*
X306400Y804627D01*
X306374Y804646D01*
X306287Y804673D01*
X306202Y804707D01*
X306161Y804711D01*
X306139Y804718D01*
X306107Y804717D01*
X306035Y804725D01*
X283965Y804725D01*
X283875Y804711D01*
X283784Y804703D01*
X283754Y804691D01*
X283722Y804686D01*
X283641Y804643D01*
X283557Y804607D01*
X283525Y804581D01*
X283505Y804570D01*
X283482Y804547D01*
X283426Y804502D01*
X243649Y764725D01*
X121351Y764725D01*
X119725Y766351D01*
X119725Y870535D01*
X119711Y870625D01*
X119703Y870716D01*
X119691Y870746D01*
X119686Y870778D01*
X119643Y870859D01*
X119607Y870943D01*
X119581Y870975D01*
X119570Y870995D01*
X119547Y871018D01*
X119502Y871074D01*
X109545Y881031D01*
X109451Y881099D01*
X109356Y881169D01*
X109350Y881171D01*
X109345Y881175D01*
X109234Y881209D01*
X109122Y881245D01*
X109116Y881245D01*
X109110Y881247D01*
X108993Y881244D01*
X108876Y881243D01*
X108869Y881241D01*
X108864Y881241D01*
X108847Y881234D01*
X108715Y881196D01*
X105773Y879977D01*
X101427Y879977D01*
X97413Y881640D01*
X94340Y884713D01*
X92677Y888727D01*
X92677Y892280D01*
X92663Y892370D01*
X92655Y892461D01*
X92643Y892491D01*
X92638Y892523D01*
X92595Y892603D01*
X92559Y892687D01*
X92533Y892719D01*
X92522Y892740D01*
X92499Y892762D01*
X92454Y892818D01*
X82020Y903252D01*
X81946Y903305D01*
X81877Y903365D01*
X81847Y903377D01*
X81821Y903396D01*
X81734Y903423D01*
X81649Y903457D01*
X81608Y903461D01*
X81586Y903468D01*
X81553Y903467D01*
X81482Y903475D01*
X53718Y903475D01*
X53628Y903461D01*
X53537Y903453D01*
X53507Y903441D01*
X53475Y903436D01*
X53395Y903393D01*
X53311Y903357D01*
X53278Y903331D01*
X53258Y903320D01*
X53236Y903297D01*
X53180Y903252D01*
X52028Y902101D01*
X52017Y902085D01*
X52001Y902072D01*
X51971Y902025D01*
X51959Y902013D01*
X51949Y901991D01*
X51945Y901985D01*
X51885Y901901D01*
X51879Y901882D01*
X51868Y901865D01*
X51843Y901765D01*
X51812Y901666D01*
X51813Y901646D01*
X51808Y901627D01*
X51816Y901524D01*
X51819Y901420D01*
X51826Y901401D01*
X51827Y901382D01*
X51868Y901287D01*
X51903Y901189D01*
X51916Y901174D01*
X51923Y901155D01*
X51961Y901109D01*
X53365Y897719D01*
X53365Y894081D01*
X51973Y890720D01*
X49400Y888147D01*
X46039Y886755D01*
X27161Y886755D01*
X23800Y888147D01*
X21227Y890720D01*
X19835Y894081D01*
X19835Y897719D01*
X21227Y901080D01*
X23800Y903653D01*
X27161Y905045D01*
X36202Y905045D01*
X36292Y905059D01*
X36383Y905067D01*
X36413Y905079D01*
X36445Y905084D01*
X36526Y905127D01*
X36609Y905163D01*
X36642Y905189D01*
X36662Y905200D01*
X36684Y905223D01*
X36740Y905268D01*
X45062Y913589D01*
X47004Y915531D01*
X49402Y916525D01*
X85798Y916525D01*
X88196Y915531D01*
X101682Y902046D01*
X101756Y901993D01*
X101825Y901933D01*
X101855Y901921D01*
X101881Y901902D01*
X101968Y901875D01*
X102053Y901841D01*
X102094Y901837D01*
X102116Y901830D01*
X102149Y901831D01*
X102220Y901823D01*
X105773Y901823D01*
X109787Y900160D01*
X112860Y897087D01*
X114523Y893073D01*
X114523Y888727D01*
X113304Y885785D01*
X113277Y885671D01*
X113249Y885558D01*
X113249Y885551D01*
X113248Y885545D01*
X113259Y885429D01*
X113268Y885312D01*
X113270Y885307D01*
X113271Y885300D01*
X113319Y885193D01*
X113364Y885086D01*
X113369Y885080D01*
X113371Y885076D01*
X113383Y885062D01*
X113469Y884955D01*
X123426Y874998D01*
X125275Y873149D01*
X125275Y771036D01*
X125278Y771016D01*
X125276Y770997D01*
X125298Y770895D01*
X125314Y770793D01*
X125324Y770776D01*
X125328Y770756D01*
X125381Y770667D01*
X125430Y770576D01*
X125444Y770562D01*
X125454Y770545D01*
X125533Y770478D01*
X125608Y770406D01*
X125626Y770398D01*
X125641Y770385D01*
X125737Y770346D01*
X125831Y770303D01*
X125851Y770301D01*
X125869Y770293D01*
X126036Y770275D01*
X241035Y770275D01*
X241125Y770289D01*
X241216Y770297D01*
X241246Y770309D01*
X241278Y770314D01*
X241359Y770357D01*
X241443Y770393D01*
X241475Y770419D01*
X241495Y770430D01*
X241518Y770453D01*
X241574Y770498D01*
X281351Y810275D01*
X308649Y810275D01*
X332775Y786149D01*
X332775Y754022D01*
X332790Y753926D01*
X332800Y753829D01*
X332810Y753805D01*
X332814Y753779D01*
X332860Y753693D01*
X332900Y753604D01*
X332917Y753585D01*
X332930Y753562D01*
X333000Y753495D01*
X333066Y753423D01*
X333089Y753411D01*
X333108Y753393D01*
X333196Y753352D01*
X333282Y753305D01*
X333307Y753300D01*
X333331Y753289D01*
X333428Y753278D01*
X333524Y753261D01*
X333550Y753265D01*
X333575Y753262D01*
X333671Y753283D01*
X333767Y753297D01*
X333790Y753309D01*
X333816Y753314D01*
X333899Y753364D01*
X333986Y753408D01*
X334005Y753427D01*
X334027Y753440D01*
X334090Y753514D01*
X334158Y753584D01*
X334174Y753612D01*
X334187Y753627D01*
X334199Y753658D01*
X334239Y753731D01*
X334863Y755236D01*
X337364Y757737D01*
X340632Y759091D01*
X344168Y759091D01*
X347436Y757737D01*
X349937Y755236D01*
X351291Y751968D01*
X351291Y748432D01*
X350549Y746640D01*
X350522Y746526D01*
X350493Y746413D01*
X350494Y746407D01*
X350492Y746401D01*
X350503Y746284D01*
X350513Y746168D01*
X350515Y746162D01*
X350516Y746156D01*
X350563Y746048D01*
X350609Y745941D01*
X350614Y745936D01*
X350616Y745931D01*
X350628Y745917D01*
X350714Y745810D01*
X407775Y688749D01*
X407775Y488851D01*
X337998Y419074D01*
X337945Y419000D01*
X337885Y418930D01*
X337873Y418900D01*
X337854Y418874D01*
X337827Y418787D01*
X337793Y418702D01*
X337789Y418661D01*
X337782Y418639D01*
X337783Y418607D01*
X337775Y418535D01*
X337775Y263851D01*
X333649Y259725D01*
X246286Y259725D01*
X246266Y259722D01*
X246247Y259724D01*
X246145Y259702D01*
X246043Y259686D01*
X246026Y259676D01*
X246006Y259672D01*
X245917Y259619D01*
X245826Y259570D01*
X245812Y259556D01*
X245795Y259546D01*
X245728Y259467D01*
X245656Y259392D01*
X245648Y259374D01*
X245635Y259359D01*
X245596Y259263D01*
X245553Y259169D01*
X245551Y259149D01*
X245543Y259131D01*
X245525Y258964D01*
X245525Y209336D01*
X245528Y209316D01*
X245526Y209297D01*
X245548Y209195D01*
X245564Y209093D01*
X245574Y209076D01*
X245578Y209056D01*
X245631Y208967D01*
X245680Y208876D01*
X245694Y208862D01*
X245704Y208845D01*
X245783Y208778D01*
X245858Y208706D01*
X245876Y208698D01*
X245891Y208685D01*
X245987Y208646D01*
X246081Y208603D01*
X246101Y208601D01*
X246119Y208593D01*
X246286Y208575D01*
X262518Y208575D01*
X262633Y208594D01*
X262749Y208611D01*
X262755Y208613D01*
X262761Y208614D01*
X262863Y208669D01*
X262968Y208722D01*
X262973Y208727D01*
X262978Y208730D01*
X263058Y208814D01*
X263140Y208898D01*
X263144Y208904D01*
X263148Y208908D01*
X263155Y208925D01*
X263221Y209045D01*
X264440Y211987D01*
X267513Y215060D01*
X271527Y216723D01*
X275873Y216723D01*
X279887Y215060D01*
X282960Y211987D01*
X284623Y207973D01*
X284623Y203627D01*
X282960Y199613D01*
X279887Y196540D01*
X275873Y194877D01*
X271527Y194877D01*
X267513Y196540D01*
X264440Y199613D01*
X263221Y202555D01*
X263160Y202655D01*
X263100Y202755D01*
X263095Y202759D01*
X263092Y202764D01*
X263002Y202839D01*
X262913Y202915D01*
X262907Y202917D01*
X262902Y202921D01*
X262794Y202963D01*
X262685Y203007D01*
X262677Y203008D01*
X262673Y203009D01*
X262654Y203010D01*
X262518Y203025D01*
X242551Y203025D01*
X239975Y205601D01*
X239975Y254827D01*
X239960Y254923D01*
X239950Y255020D01*
X239940Y255044D01*
X239936Y255070D01*
X239890Y255156D01*
X239850Y255245D01*
X239833Y255264D01*
X239820Y255287D01*
X239750Y255354D01*
X239684Y255426D01*
X239661Y255439D01*
X239642Y255457D01*
X239554Y255498D01*
X239468Y255545D01*
X239443Y255549D01*
X239419Y255560D01*
X239322Y255571D01*
X239226Y255588D01*
X239200Y255584D01*
X239175Y255587D01*
X239080Y255567D01*
X238983Y255553D01*
X238960Y255541D01*
X238934Y255535D01*
X238850Y255485D01*
X238764Y255441D01*
X238746Y255422D01*
X238723Y255409D01*
X238660Y255335D01*
X238592Y255265D01*
X238576Y255237D01*
X238563Y255222D01*
X238551Y255191D01*
X238511Y255118D01*
X238260Y254513D01*
X235187Y251440D01*
X231173Y249777D01*
X226827Y249777D01*
X222813Y251440D01*
X219740Y254513D01*
X218239Y258136D01*
X218188Y258219D01*
X218142Y258305D01*
X218123Y258323D01*
X218110Y258345D01*
X218035Y258407D01*
X217964Y258474D01*
X217940Y258485D01*
X217920Y258502D01*
X217829Y258537D01*
X217741Y258578D01*
X217715Y258581D01*
X217691Y258590D01*
X217593Y258594D01*
X217497Y258605D01*
X217471Y258600D01*
X217445Y258601D01*
X217351Y258574D01*
X217256Y258553D01*
X217234Y258539D01*
X217209Y258532D01*
X217129Y258477D01*
X217045Y258427D01*
X217028Y258407D01*
X217007Y258392D01*
X216948Y258314D01*
X216885Y258240D01*
X216875Y258215D01*
X216860Y258195D01*
X216830Y258102D01*
X216793Y258012D01*
X216790Y257979D01*
X216784Y257961D01*
X216784Y257928D01*
X216775Y257845D01*
X216775Y187355D01*
X216790Y187259D01*
X216800Y187162D01*
X216810Y187138D01*
X216814Y187112D01*
X216860Y187026D01*
X216900Y186937D01*
X216917Y186918D01*
X216930Y186895D01*
X217000Y186828D01*
X217066Y186756D01*
X217089Y186744D01*
X217108Y186726D01*
X217196Y186685D01*
X217282Y186638D01*
X217307Y186633D01*
X217331Y186622D01*
X217428Y186611D01*
X217524Y186594D01*
X217550Y186598D01*
X217575Y186595D01*
X217671Y186616D01*
X217767Y186630D01*
X217790Y186642D01*
X217816Y186647D01*
X217899Y186697D01*
X217986Y186741D01*
X218005Y186760D01*
X218027Y186773D01*
X218090Y186847D01*
X218158Y186917D01*
X218174Y186945D01*
X218187Y186960D01*
X218199Y186991D01*
X218239Y187064D01*
X219740Y190687D01*
X222813Y193760D01*
X226827Y195423D01*
X231173Y195423D01*
X235187Y193760D01*
X238260Y190687D01*
X239923Y186673D01*
X239923Y182327D01*
X238260Y178313D01*
X235187Y175240D01*
X231173Y173577D01*
X226827Y173577D01*
X222813Y175240D01*
X219740Y178313D01*
X218239Y181936D01*
X218188Y182019D01*
X218142Y182105D01*
X218123Y182123D01*
X218110Y182145D01*
X218035Y182207D01*
X217964Y182274D01*
X217940Y182285D01*
X217920Y182302D01*
X217829Y182337D01*
X217741Y182378D01*
X217715Y182381D01*
X217691Y182390D01*
X217593Y182394D01*
X217497Y182405D01*
X217471Y182400D01*
X217445Y182401D01*
X217351Y182374D01*
X217256Y182353D01*
X217234Y182339D01*
X217209Y182332D01*
X217129Y182277D01*
X217045Y182227D01*
X217028Y182207D01*
X217007Y182192D01*
X216948Y182114D01*
X216885Y182040D01*
X216875Y182015D01*
X216860Y181995D01*
X216830Y181902D01*
X216793Y181812D01*
X216790Y181779D01*
X216784Y181761D01*
X216784Y181728D01*
X216775Y181645D01*
X216775Y167536D01*
X216778Y167516D01*
X216776Y167497D01*
X216798Y167395D01*
X216814Y167293D01*
X216824Y167276D01*
X216828Y167256D01*
X216881Y167167D01*
X216930Y167076D01*
X216944Y167062D01*
X216954Y167045D01*
X217033Y166978D01*
X217108Y166906D01*
X217126Y166898D01*
X217141Y166885D01*
X217237Y166846D01*
X217331Y166803D01*
X217351Y166801D01*
X217369Y166793D01*
X217536Y166775D01*
X255835Y166775D01*
X255925Y166789D01*
X256016Y166797D01*
X256046Y166809D01*
X256078Y166814D01*
X256159Y166857D01*
X256243Y166893D01*
X256275Y166919D01*
X256295Y166930D01*
X256318Y166953D01*
X256374Y166998D01*
X263831Y174455D01*
X263899Y174550D01*
X263969Y174644D01*
X263971Y174650D01*
X263975Y174655D01*
X264009Y174766D01*
X264045Y174878D01*
X264045Y174884D01*
X264047Y174890D01*
X264044Y175007D01*
X264043Y175124D01*
X264041Y175131D01*
X264041Y175136D01*
X264034Y175153D01*
X263996Y175285D01*
X262777Y178227D01*
X262777Y182573D01*
X264440Y186587D01*
X267513Y189660D01*
X271527Y191323D01*
X275873Y191323D01*
X279887Y189660D01*
X282960Y186587D01*
X284623Y182573D01*
X284623Y178227D01*
X282960Y174213D01*
X279887Y171140D01*
X275873Y169477D01*
X271527Y169477D01*
X268585Y170696D01*
X268471Y170723D01*
X268358Y170751D01*
X268351Y170751D01*
X268345Y170752D01*
X268229Y170741D01*
X268112Y170732D01*
X268107Y170730D01*
X268100Y170729D01*
X267993Y170681D01*
X267886Y170636D01*
X267880Y170631D01*
X267876Y170629D01*
X267862Y170617D01*
X267755Y170531D01*
X258449Y161225D01*
X212851Y161225D01*
X211225Y162851D01*
X211225Y272649D01*
X216351Y277775D01*
X323535Y277775D01*
X323625Y277789D01*
X323716Y277797D01*
X323746Y277809D01*
X323778Y277814D01*
X323859Y277857D01*
X323943Y277893D01*
X323975Y277919D01*
X323995Y277930D01*
X324018Y277953D01*
X324074Y277998D01*
X324502Y278426D01*
X324556Y278500D01*
X324615Y278570D01*
X324627Y278600D01*
X324646Y278626D01*
X324673Y278713D01*
X324707Y278798D01*
X324711Y278839D01*
X324718Y278861D01*
X324717Y278893D01*
X324725Y278965D01*
X324725Y428649D01*
X377002Y480926D01*
X377055Y481000D01*
X377115Y481070D01*
X377127Y481100D01*
X377146Y481126D01*
X377173Y481213D01*
X377207Y481298D01*
X377211Y481339D01*
X377218Y481361D01*
X377217Y481393D01*
X377225Y481465D01*
X377225Y593495D01*
X377210Y593591D01*
X377200Y593688D01*
X377190Y593712D01*
X377186Y593738D01*
X377140Y593824D01*
X377100Y593913D01*
X377083Y593932D01*
X377070Y593955D01*
X377000Y594022D01*
X376934Y594094D01*
X376911Y594106D01*
X376892Y594124D01*
X376804Y594165D01*
X376718Y594212D01*
X376693Y594217D01*
X376669Y594228D01*
X376572Y594239D01*
X376476Y594256D01*
X376450Y594252D01*
X376425Y594255D01*
X376329Y594235D01*
X376233Y594220D01*
X376210Y594209D01*
X376184Y594203D01*
X376101Y594153D01*
X376014Y594109D01*
X375995Y594090D01*
X375973Y594077D01*
X375910Y594003D01*
X375842Y593933D01*
X375826Y593905D01*
X375813Y593890D01*
X375801Y593859D01*
X375761Y593786D01*
X375337Y592764D01*
X372998Y590424D01*
X372945Y590350D01*
X372885Y590281D01*
X372873Y590251D01*
X372854Y590225D01*
X372827Y590138D01*
X372793Y590053D01*
X372789Y590012D01*
X372782Y589989D01*
X372783Y589957D01*
X372775Y589886D01*
X372775Y578851D01*
X371149Y577225D01*
X203536Y577225D01*
X203516Y577222D01*
X203497Y577224D01*
X203395Y577202D01*
X203293Y577186D01*
X203276Y577176D01*
X203256Y577172D01*
X203167Y577119D01*
X203076Y577070D01*
X203062Y577056D01*
X203045Y577046D01*
X202978Y576967D01*
X202906Y576892D01*
X202898Y576874D01*
X202885Y576859D01*
X202846Y576763D01*
X202803Y576669D01*
X202801Y576649D01*
X202793Y576631D01*
X202775Y576464D01*
X202775Y418851D01*
X194798Y410874D01*
X194598Y410674D01*
X194556Y410616D01*
X194507Y410564D01*
X194485Y410517D01*
X194455Y410475D01*
X194434Y410406D01*
X194403Y410341D01*
X194398Y410289D01*
X194382Y410240D01*
X194384Y410168D01*
X194376Y410097D01*
X194387Y410046D01*
X194389Y409994D01*
X194413Y409926D01*
X194429Y409856D01*
X194455Y409811D01*
X194473Y409763D01*
X194518Y409707D01*
X194555Y409645D01*
X194594Y409611D01*
X194627Y409571D01*
X194687Y409532D01*
X194742Y409485D01*
X194790Y409466D01*
X194834Y409438D01*
X194903Y409420D01*
X194970Y409393D01*
X195041Y409385D01*
X195072Y409377D01*
X195096Y409379D01*
X195137Y409375D01*
X205124Y409375D01*
X205144Y409378D01*
X205163Y409376D01*
X205265Y409398D01*
X205367Y409414D01*
X205384Y409424D01*
X205404Y409428D01*
X205493Y409481D01*
X205584Y409530D01*
X205598Y409544D01*
X205615Y409554D01*
X205682Y409633D01*
X205754Y409708D01*
X205762Y409726D01*
X205775Y409741D01*
X205814Y409837D01*
X205857Y409931D01*
X205859Y409951D01*
X205867Y409969D01*
X205885Y410136D01*
X205885Y410914D01*
X211986Y417015D01*
X220614Y417015D01*
X226715Y410914D01*
X226715Y402286D01*
X220614Y396185D01*
X211986Y396185D01*
X205885Y402286D01*
X205885Y403064D01*
X205882Y403084D01*
X205884Y403103D01*
X205862Y403205D01*
X205846Y403307D01*
X205836Y403324D01*
X205832Y403344D01*
X205779Y403433D01*
X205730Y403524D01*
X205716Y403538D01*
X205706Y403555D01*
X205627Y403622D01*
X205552Y403694D01*
X205534Y403702D01*
X205519Y403715D01*
X205423Y403754D01*
X205329Y403797D01*
X205309Y403799D01*
X205291Y403807D01*
X205124Y403825D01*
X198065Y403825D01*
X197975Y403811D01*
X197884Y403803D01*
X197854Y403791D01*
X197822Y403786D01*
X197741Y403743D01*
X197657Y403707D01*
X197625Y403681D01*
X197605Y403670D01*
X197582Y403647D01*
X197526Y403602D01*
X192998Y399074D01*
X192945Y399000D01*
X192885Y398930D01*
X192873Y398900D01*
X192854Y398874D01*
X192827Y398787D01*
X192793Y398702D01*
X192789Y398661D01*
X192782Y398639D01*
X192783Y398607D01*
X192775Y398535D01*
X192775Y338851D01*
X191149Y337225D01*
X23536Y337225D01*
X23516Y337222D01*
X23497Y337224D01*
X23395Y337202D01*
X23293Y337186D01*
X23276Y337176D01*
X23256Y337172D01*
X23167Y337119D01*
X23076Y337070D01*
X23062Y337056D01*
X23045Y337046D01*
X22978Y336967D01*
X22906Y336892D01*
X22898Y336874D01*
X22885Y336859D01*
X22846Y336763D01*
X22803Y336669D01*
X22801Y336649D01*
X22793Y336631D01*
X22775Y336464D01*
X22775Y223536D01*
X22778Y223516D01*
X22776Y223497D01*
X22798Y223395D01*
X22814Y223293D01*
X22824Y223276D01*
X22828Y223256D01*
X22881Y223167D01*
X22930Y223076D01*
X22944Y223062D01*
X22954Y223045D01*
X23033Y222978D01*
X23108Y222906D01*
X23126Y222898D01*
X23141Y222885D01*
X23237Y222846D01*
X23331Y222803D01*
X23351Y222801D01*
X23369Y222793D01*
X23536Y222775D01*
X181149Y222775D01*
X193525Y210399D01*
X193525Y157867D01*
X193536Y157797D01*
X193538Y157725D01*
X193556Y157676D01*
X193564Y157625D01*
X193598Y157561D01*
X193623Y157494D01*
X193655Y157453D01*
X193680Y157407D01*
X193732Y157358D01*
X193776Y157302D01*
X193820Y157274D01*
X193858Y157238D01*
X193923Y157208D01*
X193983Y157169D01*
X194034Y157156D01*
X194081Y157134D01*
X194152Y157126D01*
X194222Y157109D01*
X194274Y157113D01*
X194325Y157107D01*
X194396Y157122D01*
X194467Y157128D01*
X194515Y157148D01*
X194566Y157159D01*
X194627Y157196D01*
X194693Y157224D01*
X194749Y157269D01*
X194777Y157286D01*
X194792Y157303D01*
X194824Y157329D01*
X197802Y160307D01*
X202198Y160307D01*
X204507Y157998D01*
X204581Y157945D01*
X204651Y157885D01*
X204681Y157873D01*
X204707Y157854D01*
X204794Y157827D01*
X204879Y157793D01*
X204920Y157789D01*
X204942Y157782D01*
X204974Y157783D01*
X205045Y157775D01*
X262518Y157775D01*
X262633Y157794D01*
X262749Y157811D01*
X262755Y157813D01*
X262761Y157814D01*
X262863Y157869D01*
X262968Y157922D01*
X262973Y157927D01*
X262978Y157930D01*
X263058Y158014D01*
X263140Y158098D01*
X263144Y158104D01*
X263148Y158108D01*
X263155Y158125D01*
X263221Y158245D01*
X264440Y161187D01*
X267513Y164260D01*
X271527Y165923D01*
X275873Y165923D01*
X279887Y164260D01*
X282960Y161187D01*
X284623Y157173D01*
X284623Y152827D01*
X282960Y148813D01*
X279887Y145740D01*
X275873Y144077D01*
X271527Y144077D01*
X267513Y145740D01*
X264440Y148813D01*
X263221Y151755D01*
X263160Y151854D01*
X263100Y151955D01*
X263095Y151959D01*
X263092Y151964D01*
X263002Y152039D01*
X262913Y152115D01*
X262907Y152117D01*
X262902Y152121D01*
X262794Y152163D01*
X262685Y152207D01*
X262677Y152208D01*
X262673Y152209D01*
X262654Y152210D01*
X262518Y152225D01*
X205045Y152225D01*
X204955Y152211D01*
X204864Y152203D01*
X204835Y152191D01*
X204803Y152186D01*
X204722Y152143D01*
X204638Y152107D01*
X204606Y152081D01*
X204585Y152070D01*
X204563Y152047D01*
X204507Y152002D01*
X202198Y149693D01*
X197802Y149693D01*
X194824Y152671D01*
X194766Y152713D01*
X194714Y152762D01*
X194667Y152784D01*
X194625Y152814D01*
X194556Y152836D01*
X194491Y152866D01*
X194439Y152871D01*
X194389Y152887D01*
X194318Y152885D01*
X194247Y152893D01*
X194196Y152882D01*
X194144Y152880D01*
X194076Y152856D01*
X194006Y152841D01*
X193961Y152814D01*
X193913Y152796D01*
X193857Y152751D01*
X193795Y152714D01*
X193761Y152675D01*
X193721Y152642D01*
X193682Y152582D01*
X193635Y152527D01*
X193616Y152479D01*
X193588Y152435D01*
X193570Y152366D01*
X193543Y152299D01*
X193535Y152228D01*
X193527Y152197D01*
X193529Y152174D01*
X193525Y152133D01*
X193525Y132965D01*
X193539Y132875D01*
X193547Y132784D01*
X193559Y132754D01*
X193564Y132722D01*
X193607Y132641D01*
X193643Y132557D01*
X193669Y132525D01*
X193680Y132505D01*
X193703Y132482D01*
X193748Y132426D01*
X207926Y118248D01*
X208000Y118195D01*
X208070Y118135D01*
X208100Y118123D01*
X208126Y118104D01*
X208213Y118077D01*
X208298Y118043D01*
X208339Y118039D01*
X208361Y118032D01*
X208393Y118033D01*
X208465Y118025D01*
X269276Y118025D01*
X269372Y118040D01*
X269469Y118050D01*
X269493Y118060D01*
X269518Y118064D01*
X269604Y118110D01*
X269693Y118150D01*
X269713Y118167D01*
X269736Y118180D01*
X269803Y118250D01*
X269875Y118316D01*
X269887Y118339D01*
X269905Y118358D01*
X269946Y118446D01*
X269993Y118532D01*
X269998Y118557D01*
X270009Y118581D01*
X270019Y118678D01*
X270037Y118774D01*
X270033Y118800D01*
X270036Y118825D01*
X270015Y118921D01*
X270001Y119017D01*
X269989Y119040D01*
X269984Y119066D01*
X269934Y119149D01*
X269890Y119236D01*
X269871Y119255D01*
X269857Y119277D01*
X269784Y119340D01*
X269714Y119408D01*
X269685Y119424D01*
X269671Y119437D01*
X269640Y119449D01*
X269567Y119489D01*
X267513Y120340D01*
X264440Y123413D01*
X263056Y126755D01*
X262994Y126855D01*
X262934Y126955D01*
X262929Y126959D01*
X262926Y126964D01*
X262836Y127039D01*
X262747Y127115D01*
X262741Y127117D01*
X262737Y127121D01*
X262628Y127163D01*
X262519Y127207D01*
X262511Y127208D01*
X262507Y127209D01*
X262489Y127210D01*
X262352Y127225D01*
X215045Y127225D01*
X214955Y127211D01*
X214864Y127203D01*
X214835Y127191D01*
X214803Y127186D01*
X214722Y127143D01*
X214638Y127107D01*
X214606Y127081D01*
X214585Y127070D01*
X214563Y127047D01*
X214507Y127002D01*
X212198Y124693D01*
X207802Y124693D01*
X204693Y127802D01*
X204693Y132198D01*
X207802Y135307D01*
X212198Y135307D01*
X214507Y132998D01*
X214581Y132945D01*
X214651Y132885D01*
X214681Y132873D01*
X214707Y132854D01*
X214794Y132827D01*
X214879Y132793D01*
X214920Y132789D01*
X214942Y132782D01*
X214974Y132783D01*
X215045Y132775D01*
X262684Y132775D01*
X262798Y132794D01*
X262915Y132811D01*
X262920Y132813D01*
X262926Y132814D01*
X263029Y132869D01*
X263134Y132922D01*
X263138Y132927D01*
X263144Y132930D01*
X263224Y133014D01*
X263306Y133098D01*
X263310Y133104D01*
X263313Y133108D01*
X263321Y133125D01*
X263387Y133245D01*
X264440Y135787D01*
X267513Y138860D01*
X271527Y140523D01*
X275873Y140523D01*
X279887Y138860D01*
X282960Y135787D01*
X284623Y131773D01*
X284623Y127427D01*
X282960Y123413D01*
X279887Y120340D01*
X277833Y119489D01*
X277750Y119438D01*
X277664Y119392D01*
X277646Y119373D01*
X277624Y119360D01*
X277562Y119285D01*
X277495Y119214D01*
X277484Y119190D01*
X277467Y119170D01*
X277432Y119079D01*
X277391Y118991D01*
X277388Y118965D01*
X277379Y118941D01*
X277375Y118843D01*
X277364Y118747D01*
X277370Y118721D01*
X277369Y118695D01*
X277396Y118601D01*
X277416Y118506D01*
X277430Y118484D01*
X277437Y118459D01*
X277493Y118379D01*
X277543Y118295D01*
X277562Y118278D01*
X277577Y118257D01*
X277656Y118198D01*
X277729Y118135D01*
X277754Y118125D01*
X277775Y118110D01*
X277867Y118080D01*
X277958Y118043D01*
X277990Y118040D01*
X278009Y118034D01*
X278042Y118034D01*
X278124Y118025D01*
X292378Y118025D01*
X292386Y118026D01*
X292393Y118025D01*
X292507Y118046D01*
X292620Y118064D01*
X292628Y118068D01*
X292635Y118070D01*
X292737Y118126D01*
X292838Y118180D01*
X292843Y118185D01*
X292850Y118189D01*
X292928Y118274D01*
X293007Y118358D01*
X293011Y118365D01*
X293016Y118371D01*
X293062Y118476D01*
X293111Y118581D01*
X293112Y118589D01*
X293115Y118596D01*
X293125Y118711D01*
X293138Y118825D01*
X293136Y118833D01*
X293137Y118841D01*
X293110Y118953D01*
X293086Y119066D01*
X293082Y119073D01*
X293080Y119080D01*
X293019Y119178D01*
X292959Y119277D01*
X292953Y119282D01*
X292949Y119289D01*
X292825Y119402D01*
X291322Y120494D01*
X289994Y121822D01*
X288889Y123343D01*
X288036Y125017D01*
X287455Y126804D01*
X287254Y128077D01*
X298338Y128077D01*
X298358Y128080D01*
X298377Y128078D01*
X298479Y128100D01*
X298581Y128117D01*
X298598Y128126D01*
X298618Y128130D01*
X298707Y128183D01*
X298798Y128232D01*
X298812Y128246D01*
X298829Y128256D01*
X298896Y128335D01*
X298967Y128410D01*
X298976Y128428D01*
X298989Y128443D01*
X299027Y128539D01*
X299071Y128633D01*
X299073Y128653D01*
X299081Y128671D01*
X299099Y128838D01*
X299099Y129601D01*
X299862Y129601D01*
X299882Y129604D01*
X299901Y129602D01*
X300003Y129624D01*
X300105Y129641D01*
X300122Y129650D01*
X300142Y129654D01*
X300231Y129707D01*
X300322Y129756D01*
X300336Y129770D01*
X300353Y129780D01*
X300420Y129859D01*
X300491Y129934D01*
X300500Y129952D01*
X300513Y129967D01*
X300552Y130063D01*
X300595Y130157D01*
X300597Y130177D01*
X300605Y130195D01*
X300623Y130362D01*
X300623Y141446D01*
X301896Y141245D01*
X303683Y140664D01*
X305357Y139811D01*
X306878Y138706D01*
X308206Y137378D01*
X309311Y135857D01*
X310036Y134435D01*
X310076Y134380D01*
X310108Y134320D01*
X310148Y134282D01*
X310181Y134236D01*
X310237Y134197D01*
X310286Y134151D01*
X310337Y134127D01*
X310383Y134095D01*
X310448Y134076D01*
X310509Y134047D01*
X310565Y134041D01*
X310618Y134025D01*
X310686Y134028D01*
X310753Y134020D01*
X310808Y134032D01*
X310864Y134034D01*
X310928Y134058D01*
X310994Y134072D01*
X311042Y134101D01*
X311094Y134121D01*
X311147Y134164D01*
X311205Y134199D01*
X311241Y134241D01*
X311285Y134277D01*
X311321Y134334D01*
X311365Y134385D01*
X311386Y134437D01*
X311416Y134485D01*
X311431Y134551D01*
X311457Y134614D01*
X311465Y134692D01*
X311473Y134724D01*
X311471Y134745D01*
X311475Y134780D01*
X311475Y152507D01*
X311460Y152603D01*
X311450Y152700D01*
X311440Y152724D01*
X311436Y152750D01*
X311390Y152836D01*
X311350Y152925D01*
X311333Y152944D01*
X311320Y152967D01*
X311250Y153034D01*
X311184Y153106D01*
X311161Y153119D01*
X311142Y153137D01*
X311054Y153177D01*
X310968Y153224D01*
X310943Y153229D01*
X310919Y153240D01*
X310822Y153251D01*
X310726Y153268D01*
X310700Y153264D01*
X310675Y153267D01*
X310579Y153247D01*
X310483Y153232D01*
X310460Y153221D01*
X310434Y153215D01*
X310351Y153165D01*
X310264Y153121D01*
X310245Y153102D01*
X310223Y153089D01*
X310160Y153015D01*
X310092Y152945D01*
X310076Y152917D01*
X310063Y152902D01*
X310051Y152871D01*
X310011Y152798D01*
X308360Y148813D01*
X305287Y145740D01*
X301273Y144077D01*
X296927Y144077D01*
X292913Y145740D01*
X289840Y148813D01*
X288177Y152827D01*
X288177Y157173D01*
X289840Y161187D01*
X292913Y164260D01*
X296927Y165923D01*
X301273Y165923D01*
X305287Y164260D01*
X308360Y161187D01*
X310011Y157202D01*
X310062Y157119D01*
X310108Y157033D01*
X310127Y157015D01*
X310140Y156993D01*
X310215Y156930D01*
X310286Y156863D01*
X310310Y156852D01*
X310330Y156836D01*
X310421Y156801D01*
X310509Y156760D01*
X310535Y156757D01*
X310559Y156748D01*
X310657Y156743D01*
X310753Y156733D01*
X310779Y156738D01*
X310805Y156737D01*
X310899Y156764D01*
X310994Y156785D01*
X311016Y156798D01*
X311041Y156806D01*
X311121Y156861D01*
X311205Y156911D01*
X311222Y156931D01*
X311243Y156946D01*
X311302Y157024D01*
X311365Y157098D01*
X311375Y157122D01*
X311390Y157143D01*
X311420Y157236D01*
X311457Y157326D01*
X311460Y157359D01*
X311466Y157377D01*
X311466Y157410D01*
X311475Y157493D01*
X311475Y163785D01*
X311461Y163875D01*
X311453Y163966D01*
X311441Y163996D01*
X311436Y164028D01*
X311393Y164109D01*
X311357Y164193D01*
X311331Y164225D01*
X311320Y164245D01*
X311297Y164268D01*
X311252Y164324D01*
X305045Y170531D01*
X304950Y170599D01*
X304856Y170669D01*
X304850Y170671D01*
X304845Y170675D01*
X304734Y170709D01*
X304622Y170745D01*
X304616Y170745D01*
X304610Y170747D01*
X304493Y170744D01*
X304376Y170743D01*
X304369Y170741D01*
X304364Y170741D01*
X304347Y170734D01*
X304215Y170696D01*
X301273Y169477D01*
X296927Y169477D01*
X292913Y171140D01*
X289840Y174213D01*
X288177Y178227D01*
X288177Y182573D01*
X289840Y186587D01*
X292913Y189660D01*
X296927Y191323D01*
X301273Y191323D01*
X305287Y189660D01*
X308360Y186587D01*
X310023Y182573D01*
X310023Y178227D01*
X308804Y175285D01*
X308777Y175171D01*
X308749Y175058D01*
X308749Y175051D01*
X308748Y175045D01*
X308759Y174929D01*
X308768Y174812D01*
X308770Y174807D01*
X308771Y174800D01*
X308819Y174693D01*
X308864Y174586D01*
X308869Y174580D01*
X308871Y174576D01*
X308883Y174562D01*
X308969Y174455D01*
X315176Y168248D01*
X317025Y166399D01*
X317025Y117851D01*
X311649Y112475D01*
X205851Y112475D01*
G37*
%LPD*%
%LPC*%
G36*
X203601Y102475D02*
X203601Y102475D01*
X179074Y127002D01*
X179000Y127055D01*
X178930Y127115D01*
X178900Y127127D01*
X178874Y127146D01*
X178787Y127173D01*
X178702Y127207D01*
X178661Y127211D01*
X178639Y127218D01*
X178607Y127217D01*
X178535Y127225D01*
X113751Y127225D01*
X111902Y129074D01*
X104345Y136631D01*
X104250Y136699D01*
X104156Y136769D01*
X104150Y136771D01*
X104145Y136775D01*
X104034Y136809D01*
X103922Y136845D01*
X103916Y136845D01*
X103910Y136847D01*
X103793Y136844D01*
X103676Y136843D01*
X103669Y136841D01*
X103664Y136841D01*
X103647Y136834D01*
X103515Y136796D01*
X100573Y135577D01*
X96227Y135577D01*
X92213Y137240D01*
X89140Y140313D01*
X87477Y144327D01*
X87477Y147880D01*
X87463Y147970D01*
X87455Y148061D01*
X87443Y148091D01*
X87438Y148123D01*
X87395Y148204D01*
X87359Y148287D01*
X87333Y148320D01*
X87322Y148340D01*
X87299Y148362D01*
X87254Y148418D01*
X82420Y153252D01*
X82346Y153305D01*
X82277Y153365D01*
X82247Y153377D01*
X82221Y153396D01*
X82133Y153423D01*
X82049Y153457D01*
X82008Y153461D01*
X81986Y153468D01*
X81953Y153467D01*
X81882Y153475D01*
X53321Y153475D01*
X53276Y153468D01*
X53230Y153470D01*
X53155Y153448D01*
X53078Y153436D01*
X53038Y153414D01*
X52994Y153401D01*
X52930Y153357D01*
X52861Y153320D01*
X52829Y153287D01*
X52791Y153261D01*
X52745Y153198D01*
X52691Y153142D01*
X52672Y153100D01*
X52645Y153064D01*
X52621Y152990D01*
X52588Y152919D01*
X52583Y152873D01*
X52569Y152830D01*
X52569Y152752D01*
X52561Y152675D01*
X52570Y152630D01*
X52571Y152584D01*
X52609Y152452D01*
X52613Y152434D01*
X52616Y152430D01*
X52618Y152423D01*
X53365Y150619D01*
X53365Y146981D01*
X51973Y143620D01*
X49400Y141047D01*
X46039Y139655D01*
X27161Y139655D01*
X23800Y141047D01*
X21227Y143620D01*
X19835Y146981D01*
X19835Y150619D01*
X21227Y153980D01*
X23800Y156553D01*
X27161Y157945D01*
X36202Y157945D01*
X36292Y157959D01*
X36383Y157967D01*
X36413Y157979D01*
X36445Y157984D01*
X36526Y158027D01*
X36609Y158063D01*
X36642Y158089D01*
X36662Y158100D01*
X36684Y158123D01*
X36740Y158168D01*
X42162Y163589D01*
X44104Y165531D01*
X46502Y166525D01*
X86198Y166525D01*
X88596Y165531D01*
X90539Y163589D01*
X96482Y157646D01*
X96556Y157593D01*
X96625Y157533D01*
X96655Y157521D01*
X96681Y157502D01*
X96768Y157475D01*
X96853Y157441D01*
X96894Y157437D01*
X96916Y157430D01*
X96949Y157431D01*
X97020Y157423D01*
X100573Y157423D01*
X104587Y155760D01*
X107660Y152687D01*
X109323Y148673D01*
X109323Y144327D01*
X108104Y141385D01*
X108094Y141341D01*
X108075Y141301D01*
X108067Y141232D01*
X108049Y141158D01*
X108049Y141151D01*
X108048Y141145D01*
X108052Y141096D01*
X108048Y141056D01*
X108061Y140994D01*
X108068Y140912D01*
X108070Y140907D01*
X108071Y140900D01*
X108092Y140852D01*
X108100Y140816D01*
X108130Y140765D01*
X108164Y140686D01*
X108169Y140680D01*
X108171Y140676D01*
X108183Y140662D01*
X108218Y140619D01*
X108226Y140605D01*
X108235Y140597D01*
X108269Y140555D01*
X115826Y132998D01*
X115900Y132945D01*
X115970Y132885D01*
X116000Y132873D01*
X116026Y132854D01*
X116113Y132827D01*
X116198Y132793D01*
X116239Y132789D01*
X116261Y132782D01*
X116293Y132783D01*
X116365Y132775D01*
X181149Y132775D01*
X205676Y108248D01*
X205750Y108195D01*
X205820Y108135D01*
X205850Y108123D01*
X205876Y108104D01*
X205963Y108077D01*
X206048Y108043D01*
X206089Y108039D01*
X206111Y108032D01*
X206143Y108033D01*
X206215Y108025D01*
X319464Y108025D01*
X319484Y108028D01*
X319503Y108026D01*
X319605Y108048D01*
X319707Y108064D01*
X319724Y108074D01*
X319744Y108078D01*
X319833Y108131D01*
X319924Y108180D01*
X319938Y108194D01*
X319955Y108204D01*
X320022Y108283D01*
X320094Y108358D01*
X320102Y108376D01*
X320115Y108391D01*
X320154Y108487D01*
X320197Y108581D01*
X320199Y108601D01*
X320207Y108619D01*
X320225Y108786D01*
X320225Y151649D01*
X437002Y268426D01*
X437055Y268500D01*
X437115Y268570D01*
X437127Y268600D01*
X437146Y268626D01*
X437173Y268713D01*
X437207Y268798D01*
X437211Y268839D01*
X437218Y268861D01*
X437217Y268893D01*
X437225Y268965D01*
X437225Y569549D01*
X439074Y571398D01*
X461086Y593410D01*
X461154Y593505D01*
X461224Y593599D01*
X461226Y593605D01*
X461230Y593610D01*
X461264Y593721D01*
X461300Y593833D01*
X461300Y593839D01*
X461302Y593845D01*
X461299Y593962D01*
X461298Y594079D01*
X461296Y594086D01*
X461296Y594091D01*
X461289Y594109D01*
X461251Y594240D01*
X460509Y596032D01*
X460509Y599568D01*
X461863Y602836D01*
X464364Y605337D01*
X467632Y606691D01*
X471168Y606691D01*
X474436Y605337D01*
X476937Y602836D01*
X478261Y599641D01*
X478312Y599558D01*
X478358Y599472D01*
X478377Y599454D01*
X478390Y599432D01*
X478465Y599370D01*
X478536Y599303D01*
X478560Y599292D01*
X478580Y599275D01*
X478671Y599240D01*
X478759Y599199D01*
X478785Y599196D01*
X478809Y599187D01*
X478907Y599183D01*
X479003Y599172D01*
X479029Y599178D01*
X479055Y599176D01*
X479149Y599204D01*
X479244Y599224D01*
X479266Y599238D01*
X479291Y599245D01*
X479371Y599300D01*
X479455Y599350D01*
X479472Y599370D01*
X479493Y599385D01*
X479552Y599463D01*
X479615Y599537D01*
X479625Y599562D01*
X479640Y599583D01*
X479670Y599675D01*
X479707Y599766D01*
X479710Y599798D01*
X479716Y599816D01*
X479716Y599850D01*
X479725Y599932D01*
X479725Y613964D01*
X479722Y613984D01*
X479724Y614003D01*
X479702Y614105D01*
X479686Y614207D01*
X479676Y614224D01*
X479672Y614244D01*
X479619Y614333D01*
X479570Y614424D01*
X479556Y614438D01*
X479546Y614455D01*
X479467Y614522D01*
X479392Y614594D01*
X479374Y614602D01*
X479359Y614615D01*
X479263Y614654D01*
X479169Y614697D01*
X479149Y614699D01*
X479131Y614707D01*
X478964Y614725D01*
X465165Y614725D01*
X465075Y614711D01*
X464984Y614703D01*
X464954Y614691D01*
X464922Y614686D01*
X464841Y614643D01*
X464757Y614607D01*
X464725Y614581D01*
X464705Y614570D01*
X464682Y614547D01*
X464626Y614502D01*
X452314Y602190D01*
X452272Y602131D01*
X452223Y602080D01*
X452204Y602039D01*
X452176Y602001D01*
X452174Y601995D01*
X452170Y601990D01*
X452148Y601919D01*
X452119Y601857D01*
X452115Y601813D01*
X452100Y601767D01*
X452100Y601761D01*
X452098Y601755D01*
X452100Y601679D01*
X452092Y601613D01*
X452101Y601571D01*
X452102Y601521D01*
X452104Y601514D01*
X452104Y601509D01*
X452111Y601491D01*
X452143Y601379D01*
X452145Y601372D01*
X452146Y601371D01*
X452149Y601360D01*
X452891Y599568D01*
X452891Y596032D01*
X451537Y592764D01*
X449036Y590263D01*
X445768Y588909D01*
X442232Y588909D01*
X438964Y590263D01*
X436463Y592764D01*
X435109Y596032D01*
X435109Y599568D01*
X436463Y602836D01*
X438964Y605337D01*
X442232Y606691D01*
X445768Y606691D01*
X447560Y605949D01*
X447674Y605922D01*
X447787Y605893D01*
X447793Y605894D01*
X447799Y605892D01*
X447916Y605903D01*
X448032Y605913D01*
X448038Y605915D01*
X448044Y605916D01*
X448152Y605963D01*
X448259Y606009D01*
X448264Y606014D01*
X448269Y606016D01*
X448283Y606028D01*
X448390Y606114D01*
X460702Y618426D01*
X462551Y620275D01*
X483649Y620275D01*
X485275Y618649D01*
X485275Y601864D01*
X485290Y601768D01*
X485300Y601671D01*
X485310Y601647D01*
X485314Y601621D01*
X485360Y601535D01*
X485400Y601446D01*
X485417Y601427D01*
X485430Y601403D01*
X485500Y601336D01*
X485566Y601265D01*
X485589Y601252D01*
X485608Y601234D01*
X485696Y601193D01*
X485782Y601146D01*
X485807Y601141D01*
X485831Y601130D01*
X485928Y601120D01*
X486024Y601102D01*
X486050Y601106D01*
X486075Y601103D01*
X486171Y601124D01*
X486267Y601138D01*
X486290Y601150D01*
X486316Y601156D01*
X486399Y601206D01*
X486486Y601250D01*
X486505Y601268D01*
X486527Y601282D01*
X486590Y601356D01*
X486658Y601425D01*
X486674Y601454D01*
X486687Y601469D01*
X486699Y601499D01*
X486739Y601572D01*
X487263Y602836D01*
X489764Y605337D01*
X491555Y606079D01*
X491655Y606141D01*
X491755Y606201D01*
X491759Y606206D01*
X491764Y606209D01*
X491839Y606299D01*
X491915Y606388D01*
X491917Y606394D01*
X491921Y606398D01*
X491963Y606506D01*
X492007Y606616D01*
X492008Y606623D01*
X492009Y606628D01*
X492010Y606646D01*
X492025Y606783D01*
X492025Y623735D01*
X492023Y623752D01*
X492024Y623768D01*
X492010Y623834D01*
X492003Y623916D01*
X491991Y623946D01*
X491986Y623978D01*
X491974Y624001D01*
X491972Y624008D01*
X491952Y624042D01*
X491943Y624059D01*
X491907Y624143D01*
X491881Y624175D01*
X491870Y624195D01*
X491847Y624218D01*
X491802Y624274D01*
X441606Y674470D01*
X441532Y674523D01*
X441462Y674583D01*
X441432Y674595D01*
X441406Y674614D01*
X441319Y674641D01*
X441234Y674675D01*
X441193Y674679D01*
X441171Y674686D01*
X441139Y674685D01*
X441067Y674693D01*
X437802Y674693D01*
X434693Y677802D01*
X434693Y682198D01*
X437802Y685307D01*
X442198Y685307D01*
X445307Y682198D01*
X445307Y678933D01*
X445321Y678843D01*
X445329Y678752D01*
X445341Y678722D01*
X445346Y678690D01*
X445389Y678609D01*
X445425Y678525D01*
X445451Y678493D01*
X445462Y678473D01*
X445485Y678450D01*
X445530Y678394D01*
X497575Y626349D01*
X497575Y606783D01*
X497594Y606668D01*
X497611Y606552D01*
X497613Y606546D01*
X497614Y606540D01*
X497669Y606437D01*
X497722Y606332D01*
X497727Y606328D01*
X497730Y606322D01*
X497814Y606243D01*
X497898Y606160D01*
X497904Y606157D01*
X497908Y606153D01*
X497925Y606145D01*
X498045Y606079D01*
X499836Y605337D01*
X502337Y602836D01*
X503691Y599568D01*
X503691Y596032D01*
X502337Y592764D01*
X499836Y590263D01*
X496568Y588909D01*
X493032Y588909D01*
X489764Y590263D01*
X487263Y592764D01*
X486739Y594028D01*
X486688Y594111D01*
X486642Y594197D01*
X486624Y594214D01*
X486610Y594237D01*
X486534Y594299D01*
X486464Y594366D01*
X486440Y594377D01*
X486420Y594394D01*
X486329Y594429D01*
X486241Y594470D01*
X486215Y594472D01*
X486191Y594482D01*
X486093Y594486D01*
X485997Y594497D01*
X485971Y594491D01*
X485945Y594492D01*
X485851Y594465D01*
X485756Y594444D01*
X485734Y594431D01*
X485709Y594424D01*
X485629Y594368D01*
X485545Y594318D01*
X485528Y594298D01*
X485507Y594283D01*
X485448Y594205D01*
X485385Y594131D01*
X485375Y594107D01*
X485360Y594086D01*
X485330Y593994D01*
X485293Y593903D01*
X485290Y593871D01*
X485284Y593852D01*
X485284Y593819D01*
X485275Y593736D01*
X485275Y361351D01*
X450498Y326574D01*
X450445Y326500D01*
X450385Y326430D01*
X450373Y326400D01*
X450354Y326374D01*
X450327Y326287D01*
X450293Y326202D01*
X450289Y326161D01*
X450282Y326139D01*
X450283Y326107D01*
X450275Y326035D01*
X450275Y258851D01*
X448427Y257002D01*
X448426Y257002D01*
X420498Y229074D01*
X420445Y229000D01*
X420385Y228930D01*
X420373Y228900D01*
X420354Y228874D01*
X420327Y228787D01*
X420293Y228702D01*
X420289Y228661D01*
X420282Y228639D01*
X420283Y228607D01*
X420275Y228535D01*
X420275Y163536D01*
X420278Y163516D01*
X420276Y163497D01*
X420298Y163395D01*
X420314Y163293D01*
X420324Y163276D01*
X420328Y163256D01*
X420381Y163167D01*
X420430Y163076D01*
X420444Y163062D01*
X420454Y163045D01*
X420533Y162978D01*
X420608Y162906D01*
X420626Y162898D01*
X420641Y162885D01*
X420737Y162846D01*
X420831Y162803D01*
X420851Y162801D01*
X420869Y162793D01*
X421036Y162775D01*
X458404Y162775D01*
X458519Y162794D01*
X458635Y162811D01*
X458640Y162813D01*
X458647Y162814D01*
X458749Y162869D01*
X458854Y162922D01*
X458858Y162927D01*
X458864Y162930D01*
X458944Y163014D01*
X459026Y163098D01*
X459030Y163104D01*
X459033Y163108D01*
X459041Y163125D01*
X459107Y163245D01*
X460740Y167187D01*
X463813Y170260D01*
X467827Y171923D01*
X472173Y171923D01*
X476187Y170260D01*
X479260Y167187D01*
X480923Y163173D01*
X480923Y159620D01*
X480937Y159530D01*
X480945Y159439D01*
X480957Y159409D01*
X480962Y159377D01*
X481005Y159297D01*
X481041Y159213D01*
X481067Y159181D01*
X481078Y159160D01*
X481101Y159138D01*
X481146Y159082D01*
X488980Y151248D01*
X489054Y151195D01*
X489123Y151135D01*
X489153Y151123D01*
X489179Y151104D01*
X489266Y151077D01*
X489351Y151043D01*
X489392Y151039D01*
X489414Y151032D01*
X489447Y151033D01*
X489518Y151025D01*
X512257Y151025D01*
X512347Y151039D01*
X512438Y151047D01*
X512468Y151059D01*
X512500Y151064D01*
X512580Y151107D01*
X512664Y151143D01*
X512696Y151169D01*
X512717Y151180D01*
X512739Y151203D01*
X512795Y151248D01*
X513800Y152253D01*
X517161Y153645D01*
X536039Y153645D01*
X539400Y152253D01*
X541973Y149680D01*
X543365Y146319D01*
X543365Y142681D01*
X541973Y139320D01*
X539400Y136747D01*
X536039Y135355D01*
X517161Y135355D01*
X513800Y136747D01*
X512795Y137752D01*
X512721Y137805D01*
X512652Y137865D01*
X512622Y137877D01*
X512595Y137896D01*
X512508Y137923D01*
X512424Y137957D01*
X512383Y137961D01*
X512360Y137968D01*
X512328Y137967D01*
X512257Y137975D01*
X485202Y137975D01*
X482804Y138969D01*
X471918Y149854D01*
X471844Y149907D01*
X471775Y149967D01*
X471745Y149979D01*
X471719Y149998D01*
X471632Y150025D01*
X471547Y150059D01*
X471506Y150063D01*
X471484Y150070D01*
X471451Y150069D01*
X471380Y150077D01*
X467827Y150077D01*
X463813Y151740D01*
X460740Y154813D01*
X459936Y156755D01*
X459874Y156855D01*
X459814Y156955D01*
X459809Y156959D01*
X459806Y156964D01*
X459716Y157039D01*
X459627Y157115D01*
X459621Y157117D01*
X459616Y157121D01*
X459508Y157163D01*
X459399Y157207D01*
X459391Y157208D01*
X459387Y157209D01*
X459369Y157210D01*
X459232Y157225D01*
X416351Y157225D01*
X414725Y158851D01*
X414725Y231149D01*
X444502Y260926D01*
X444555Y261000D01*
X444615Y261070D01*
X444627Y261100D01*
X444646Y261126D01*
X444673Y261213D01*
X444707Y261298D01*
X444711Y261339D01*
X444718Y261361D01*
X444717Y261393D01*
X444725Y261465D01*
X444725Y328649D01*
X479502Y363426D01*
X479555Y363500D01*
X479615Y363570D01*
X479627Y363600D01*
X479646Y363626D01*
X479673Y363713D01*
X479707Y363798D01*
X479711Y363839D01*
X479718Y363861D01*
X479717Y363893D01*
X479725Y363965D01*
X479725Y595668D01*
X479710Y595764D01*
X479700Y595861D01*
X479690Y595885D01*
X479686Y595911D01*
X479640Y595996D01*
X479600Y596086D01*
X479583Y596105D01*
X479570Y596128D01*
X479500Y596195D01*
X479434Y596267D01*
X479411Y596279D01*
X479392Y596297D01*
X479304Y596338D01*
X479218Y596385D01*
X479193Y596390D01*
X479169Y596401D01*
X479072Y596412D01*
X478976Y596429D01*
X478950Y596425D01*
X478925Y596428D01*
X478829Y596407D01*
X478733Y596393D01*
X478710Y596381D01*
X478684Y596376D01*
X478601Y596326D01*
X478514Y596282D01*
X478495Y596263D01*
X478473Y596250D01*
X478410Y596176D01*
X478342Y596106D01*
X478326Y596077D01*
X478313Y596063D01*
X478301Y596032D01*
X478261Y595959D01*
X476937Y592764D01*
X474436Y590263D01*
X471168Y588909D01*
X467632Y588909D01*
X465840Y589651D01*
X465726Y589678D01*
X465613Y589707D01*
X465607Y589706D01*
X465601Y589708D01*
X465484Y589697D01*
X465368Y589687D01*
X465362Y589685D01*
X465356Y589684D01*
X465248Y589637D01*
X465141Y589591D01*
X465136Y589586D01*
X465131Y589584D01*
X465117Y589572D01*
X465010Y589486D01*
X442998Y567474D01*
X442945Y567400D01*
X442885Y567330D01*
X442873Y567300D01*
X442854Y567274D01*
X442827Y567187D01*
X442793Y567102D01*
X442789Y567061D01*
X442782Y567039D01*
X442783Y567007D01*
X442775Y566935D01*
X442775Y266351D01*
X325998Y149574D01*
X325945Y149500D01*
X325885Y149430D01*
X325873Y149400D01*
X325854Y149374D01*
X325827Y149287D01*
X325793Y149202D01*
X325789Y149161D01*
X325782Y149139D01*
X325783Y149107D01*
X325775Y149035D01*
X325775Y104101D01*
X324149Y102475D01*
X203601Y102475D01*
G37*
%LPD*%
%LPC*%
G36*
X43924Y224953D02*
X43924Y224953D01*
X39349Y226848D01*
X35848Y230349D01*
X33953Y234924D01*
X33953Y239876D01*
X35848Y244451D01*
X39349Y247952D01*
X41436Y248816D01*
X41491Y248850D01*
X41552Y248876D01*
X41616Y248928D01*
X41645Y248946D01*
X41657Y248961D01*
X41682Y248981D01*
X122472Y329770D01*
X126708Y331525D01*
X277714Y331525D01*
X277734Y331528D01*
X277753Y331526D01*
X277855Y331548D01*
X277957Y331564D01*
X277974Y331574D01*
X277994Y331578D01*
X278083Y331631D01*
X278174Y331680D01*
X278188Y331694D01*
X278205Y331704D01*
X278272Y331783D01*
X278344Y331858D01*
X278352Y331876D01*
X278365Y331891D01*
X278404Y331987D01*
X278447Y332081D01*
X278449Y332101D01*
X278457Y332119D01*
X278475Y332286D01*
X278475Y394290D01*
X278465Y394354D01*
X278464Y394420D01*
X278441Y394500D01*
X278436Y394533D01*
X278426Y394550D01*
X278417Y394581D01*
X277225Y397459D01*
X277225Y402541D01*
X279170Y407236D01*
X282764Y410830D01*
X287459Y412775D01*
X292541Y412775D01*
X297236Y410830D01*
X300830Y407236D01*
X302775Y402541D01*
X302775Y397459D01*
X301583Y394581D01*
X301568Y394517D01*
X301543Y394456D01*
X301534Y394374D01*
X301527Y394342D01*
X301528Y394322D01*
X301525Y394290D01*
X301525Y317708D01*
X299770Y313472D01*
X296528Y310230D01*
X292292Y308475D01*
X134089Y308475D01*
X133999Y308461D01*
X133908Y308453D01*
X133878Y308441D01*
X133846Y308436D01*
X133766Y308393D01*
X133682Y308357D01*
X133650Y308331D01*
X133629Y308320D01*
X133607Y308297D01*
X133551Y308252D01*
X57981Y232682D01*
X57943Y232629D01*
X57897Y232582D01*
X57857Y232509D01*
X57837Y232483D01*
X57832Y232464D01*
X57816Y232436D01*
X56952Y230349D01*
X53451Y226848D01*
X48876Y224953D01*
X43924Y224953D01*
G37*
%LPD*%
%LPC*%
G36*
X145738Y426785D02*
X145738Y426785D01*
X141910Y428371D01*
X138981Y431300D01*
X137881Y433955D01*
X137820Y434055D01*
X137760Y434155D01*
X137755Y434159D01*
X137752Y434164D01*
X137661Y434239D01*
X137573Y434315D01*
X137567Y434317D01*
X137562Y434321D01*
X137454Y434363D01*
X137345Y434407D01*
X137337Y434408D01*
X137332Y434409D01*
X137314Y434410D01*
X137178Y434425D01*
X121651Y434425D01*
X117225Y438851D01*
X117225Y691149D01*
X153751Y727675D01*
X167824Y727675D01*
X167844Y727678D01*
X167863Y727676D01*
X167965Y727698D01*
X168067Y727714D01*
X168084Y727724D01*
X168104Y727728D01*
X168193Y727781D01*
X168284Y727830D01*
X168298Y727844D01*
X168315Y727854D01*
X168382Y727933D01*
X168454Y728008D01*
X168462Y728026D01*
X168475Y728041D01*
X168514Y728137D01*
X168557Y728231D01*
X168559Y728251D01*
X168567Y728269D01*
X168585Y728436D01*
X168585Y729214D01*
X174686Y735315D01*
X183314Y735315D01*
X189415Y729214D01*
X189415Y720586D01*
X188865Y720036D01*
X188853Y720020D01*
X188837Y720007D01*
X188781Y719920D01*
X188721Y719836D01*
X188715Y719817D01*
X188704Y719800D01*
X188679Y719700D01*
X188649Y719601D01*
X188649Y719581D01*
X188644Y719562D01*
X188652Y719459D01*
X188655Y719355D01*
X188662Y719337D01*
X188664Y719317D01*
X188704Y719222D01*
X188740Y719124D01*
X188752Y719109D01*
X188760Y719090D01*
X188865Y718959D01*
X194826Y712998D01*
X194900Y712945D01*
X194970Y712885D01*
X195000Y712873D01*
X195026Y712854D01*
X195113Y712827D01*
X195198Y712793D01*
X195239Y712789D01*
X195261Y712782D01*
X195293Y712783D01*
X195365Y712775D01*
X321149Y712775D01*
X345175Y688749D01*
X345175Y606783D01*
X345194Y606668D01*
X345211Y606552D01*
X345213Y606546D01*
X345214Y606540D01*
X345269Y606437D01*
X345322Y606332D01*
X345327Y606328D01*
X345330Y606322D01*
X345414Y606243D01*
X345498Y606160D01*
X345504Y606157D01*
X345508Y606153D01*
X345525Y606145D01*
X345645Y606079D01*
X347436Y605337D01*
X349937Y602836D01*
X351291Y599568D01*
X351291Y596032D01*
X349937Y592764D01*
X347436Y590263D01*
X344168Y588909D01*
X340632Y588909D01*
X337364Y590263D01*
X334863Y592764D01*
X333509Y596032D01*
X333509Y599568D01*
X334863Y602836D01*
X337364Y605337D01*
X339155Y606079D01*
X339255Y606141D01*
X339355Y606201D01*
X339359Y606206D01*
X339364Y606209D01*
X339439Y606299D01*
X339515Y606388D01*
X339517Y606394D01*
X339521Y606398D01*
X339563Y606506D01*
X339607Y606616D01*
X339608Y606623D01*
X339609Y606628D01*
X339610Y606646D01*
X339625Y606783D01*
X339625Y686135D01*
X339611Y686225D01*
X339603Y686316D01*
X339591Y686346D01*
X339586Y686378D01*
X339543Y686459D01*
X339507Y686543D01*
X339481Y686575D01*
X339470Y686595D01*
X339447Y686618D01*
X339438Y686629D01*
X339430Y686642D01*
X339422Y686649D01*
X339402Y686674D01*
X319074Y707002D01*
X319000Y707055D01*
X318930Y707115D01*
X318900Y707127D01*
X318874Y707146D01*
X318787Y707173D01*
X318702Y707207D01*
X318661Y707211D01*
X318639Y707218D01*
X318607Y707217D01*
X318535Y707225D01*
X221986Y707225D01*
X221915Y707214D01*
X221843Y707212D01*
X221795Y707194D01*
X221743Y707186D01*
X221680Y707152D01*
X221612Y707127D01*
X221572Y707095D01*
X221526Y707070D01*
X221476Y707018D01*
X221420Y706974D01*
X221392Y706930D01*
X221356Y706892D01*
X221326Y706827D01*
X221287Y706767D01*
X221275Y706716D01*
X221253Y706669D01*
X221245Y706598D01*
X221227Y706528D01*
X221231Y706476D01*
X221226Y706425D01*
X221241Y706354D01*
X221247Y706283D01*
X221267Y706235D01*
X221278Y706184D01*
X221315Y706123D01*
X221343Y706057D01*
X221388Y706001D01*
X221404Y705973D01*
X221422Y705958D01*
X221448Y705926D01*
X222937Y704436D01*
X223679Y702645D01*
X223741Y702545D01*
X223801Y702445D01*
X223806Y702441D01*
X223809Y702436D01*
X223899Y702361D01*
X223988Y702285D01*
X223994Y702283D01*
X223998Y702279D01*
X224106Y702237D01*
X224216Y702193D01*
X224223Y702192D01*
X224228Y702191D01*
X224246Y702190D01*
X224383Y702175D01*
X291749Y702175D01*
X308394Y685530D01*
X308468Y685477D01*
X308538Y685417D01*
X308568Y685405D01*
X308594Y685386D01*
X308681Y685359D01*
X308766Y685325D01*
X308807Y685321D01*
X308829Y685314D01*
X308861Y685315D01*
X308933Y685307D01*
X312198Y685307D01*
X315307Y682198D01*
X315307Y677802D01*
X312198Y674693D01*
X307802Y674693D01*
X304693Y677802D01*
X304693Y681067D01*
X304679Y681157D01*
X304671Y681248D01*
X304659Y681278D01*
X304654Y681310D01*
X304611Y681391D01*
X304575Y681475D01*
X304549Y681507D01*
X304538Y681527D01*
X304515Y681550D01*
X304470Y681606D01*
X289674Y696402D01*
X289600Y696455D01*
X289530Y696515D01*
X289500Y696527D01*
X289474Y696546D01*
X289387Y696573D01*
X289302Y696607D01*
X289261Y696611D01*
X289239Y696618D01*
X289207Y696617D01*
X289135Y696625D01*
X224383Y696625D01*
X224268Y696606D01*
X224152Y696589D01*
X224146Y696587D01*
X224140Y696586D01*
X224037Y696531D01*
X223932Y696478D01*
X223928Y696473D01*
X223922Y696470D01*
X223843Y696386D01*
X223760Y696302D01*
X223757Y696296D01*
X223753Y696292D01*
X223745Y696275D01*
X223679Y696155D01*
X222937Y694364D01*
X220436Y691863D01*
X217168Y690509D01*
X213632Y690509D01*
X210364Y691863D01*
X207863Y694364D01*
X206509Y697632D01*
X206509Y701168D01*
X207863Y704436D01*
X209352Y705926D01*
X209394Y705984D01*
X209444Y706036D01*
X209466Y706083D01*
X209496Y706125D01*
X209517Y706194D01*
X209547Y706259D01*
X209553Y706311D01*
X209568Y706361D01*
X209566Y706432D01*
X209574Y706503D01*
X209563Y706554D01*
X209562Y706606D01*
X209537Y706674D01*
X209522Y706744D01*
X209495Y706789D01*
X209477Y706837D01*
X209433Y706893D01*
X209396Y706955D01*
X209356Y706989D01*
X209324Y707029D01*
X209263Y707068D01*
X209209Y707115D01*
X209161Y707134D01*
X209117Y707162D01*
X209047Y707180D01*
X208981Y707207D01*
X208909Y707215D01*
X208878Y707223D01*
X208855Y707221D01*
X208814Y707225D01*
X192751Y707225D01*
X184941Y715035D01*
X184924Y715047D01*
X184912Y715063D01*
X184825Y715119D01*
X184741Y715179D01*
X184722Y715185D01*
X184705Y715196D01*
X184605Y715221D01*
X184506Y715251D01*
X184486Y715251D01*
X184466Y715256D01*
X184364Y715248D01*
X184260Y715245D01*
X184241Y715238D01*
X184221Y715236D01*
X184126Y715196D01*
X184029Y715160D01*
X184013Y715148D01*
X183995Y715140D01*
X183864Y715035D01*
X183314Y714485D01*
X174686Y714485D01*
X168585Y720586D01*
X168585Y721364D01*
X168582Y721384D01*
X168584Y721403D01*
X168562Y721505D01*
X168546Y721607D01*
X168536Y721624D01*
X168532Y721644D01*
X168479Y721733D01*
X168430Y721824D01*
X168416Y721838D01*
X168406Y721855D01*
X168327Y721922D01*
X168252Y721994D01*
X168234Y722002D01*
X168219Y722015D01*
X168123Y722054D01*
X168029Y722097D01*
X168009Y722099D01*
X167991Y722107D01*
X167824Y722125D01*
X156365Y722125D01*
X156275Y722111D01*
X156184Y722103D01*
X156154Y722091D01*
X156122Y722086D01*
X156041Y722043D01*
X155957Y722007D01*
X155925Y721981D01*
X155905Y721970D01*
X155882Y721947D01*
X155826Y721902D01*
X122998Y689074D01*
X122945Y689000D01*
X122885Y688930D01*
X122873Y688900D01*
X122854Y688874D01*
X122827Y688787D01*
X122793Y688702D01*
X122789Y688661D01*
X122782Y688639D01*
X122783Y688607D01*
X122775Y688535D01*
X122775Y441465D01*
X122789Y441375D01*
X122797Y441284D01*
X122809Y441254D01*
X122814Y441222D01*
X122857Y441141D01*
X122893Y441057D01*
X122919Y441025D01*
X122930Y441005D01*
X122953Y440982D01*
X122998Y440926D01*
X123726Y440198D01*
X123800Y440145D01*
X123870Y440085D01*
X123900Y440073D01*
X123926Y440054D01*
X124013Y440027D01*
X124098Y439993D01*
X124139Y439989D01*
X124161Y439982D01*
X124193Y439983D01*
X124265Y439975D01*
X137178Y439975D01*
X137293Y439994D01*
X137409Y440011D01*
X137414Y440013D01*
X137421Y440014D01*
X137523Y440069D01*
X137628Y440122D01*
X137632Y440127D01*
X137638Y440130D01*
X137718Y440214D01*
X137800Y440298D01*
X137804Y440304D01*
X137807Y440308D01*
X137815Y440325D01*
X137881Y440445D01*
X138981Y443100D01*
X141910Y446029D01*
X145738Y447615D01*
X167662Y447615D01*
X171490Y446029D01*
X174419Y443100D01*
X176005Y439272D01*
X176005Y435128D01*
X174419Y431300D01*
X171490Y428371D01*
X167662Y426785D01*
X145738Y426785D01*
G37*
%LPD*%
%LPC*%
G36*
X271527Y220277D02*
X271527Y220277D01*
X267513Y221940D01*
X264440Y225013D01*
X262777Y229027D01*
X262777Y233373D01*
X264440Y237387D01*
X267513Y240460D01*
X269255Y241182D01*
X269355Y241244D01*
X269455Y241303D01*
X269459Y241308D01*
X269464Y241311D01*
X269539Y241402D01*
X269615Y241490D01*
X269617Y241496D01*
X269621Y241501D01*
X269663Y241609D01*
X269707Y241718D01*
X269708Y241726D01*
X269709Y241730D01*
X269710Y241748D01*
X269725Y241885D01*
X269725Y248649D01*
X271351Y250275D01*
X331035Y250275D01*
X331125Y250289D01*
X331216Y250297D01*
X331246Y250309D01*
X331278Y250314D01*
X331359Y250357D01*
X331443Y250393D01*
X331475Y250419D01*
X331495Y250430D01*
X331518Y250453D01*
X331574Y250498D01*
X339502Y258426D01*
X339555Y258500D01*
X339615Y258570D01*
X339627Y258600D01*
X339646Y258626D01*
X339673Y258713D01*
X339707Y258798D01*
X339711Y258839D01*
X339718Y258861D01*
X339717Y258893D01*
X339725Y258965D01*
X339725Y416149D01*
X427002Y503426D01*
X427055Y503500D01*
X427115Y503570D01*
X427127Y503600D01*
X427146Y503626D01*
X427173Y503713D01*
X427207Y503798D01*
X427211Y503839D01*
X427218Y503861D01*
X427217Y503893D01*
X427225Y503965D01*
X427225Y592014D01*
X427214Y592085D01*
X427212Y592157D01*
X427194Y592205D01*
X427186Y592257D01*
X427152Y592320D01*
X427127Y592388D01*
X427095Y592428D01*
X427070Y592474D01*
X427018Y592524D01*
X426974Y592580D01*
X426930Y592608D01*
X426892Y592644D01*
X426827Y592674D01*
X426767Y592713D01*
X426716Y592725D01*
X426669Y592747D01*
X426598Y592755D01*
X426528Y592773D01*
X426476Y592769D01*
X426425Y592774D01*
X426354Y592759D01*
X426283Y592753D01*
X426235Y592733D01*
X426184Y592722D01*
X426123Y592685D01*
X426057Y592657D01*
X426001Y592612D01*
X425973Y592596D01*
X425958Y592578D01*
X425926Y592552D01*
X423636Y590263D01*
X420368Y588909D01*
X416832Y588909D01*
X413564Y590263D01*
X411063Y592764D01*
X409709Y596032D01*
X409709Y599568D01*
X411063Y602836D01*
X413564Y605337D01*
X416832Y606691D01*
X420368Y606691D01*
X423636Y605337D01*
X425926Y603048D01*
X425984Y603006D01*
X426036Y602956D01*
X426083Y602934D01*
X426125Y602904D01*
X426194Y602883D01*
X426259Y602853D01*
X426311Y602847D01*
X426361Y602832D01*
X426432Y602834D01*
X426503Y602826D01*
X426554Y602837D01*
X426606Y602838D01*
X426674Y602863D01*
X426744Y602878D01*
X426789Y602905D01*
X426837Y602923D01*
X426893Y602967D01*
X426955Y603004D01*
X426989Y603044D01*
X427029Y603076D01*
X427068Y603137D01*
X427115Y603191D01*
X427134Y603239D01*
X427162Y603283D01*
X427180Y603353D01*
X427207Y603419D01*
X427215Y603491D01*
X427223Y603522D01*
X427221Y603545D01*
X427225Y603586D01*
X427225Y711935D01*
X427211Y712025D01*
X427203Y712116D01*
X427191Y712146D01*
X427186Y712178D01*
X427143Y712259D01*
X427107Y712343D01*
X427081Y712375D01*
X427070Y712395D01*
X427047Y712418D01*
X427002Y712474D01*
X397590Y741886D01*
X397495Y741955D01*
X397401Y742024D01*
X397395Y742026D01*
X397390Y742030D01*
X397278Y742064D01*
X397167Y742100D01*
X397161Y742100D01*
X397155Y742102D01*
X397038Y742099D01*
X396921Y742098D01*
X396914Y742096D01*
X396909Y742096D01*
X396891Y742089D01*
X396760Y742051D01*
X394968Y741309D01*
X391432Y741309D01*
X388164Y742663D01*
X385663Y745164D01*
X384309Y748432D01*
X384309Y751968D01*
X385663Y755236D01*
X388164Y757737D01*
X391432Y759091D01*
X394968Y759091D01*
X398236Y757737D01*
X400737Y755236D01*
X402091Y751968D01*
X402091Y748432D01*
X401349Y746640D01*
X401322Y746526D01*
X401293Y746413D01*
X401294Y746407D01*
X401292Y746401D01*
X401303Y746284D01*
X401313Y746168D01*
X401315Y746162D01*
X401316Y746156D01*
X401363Y746048D01*
X401409Y745941D01*
X401414Y745936D01*
X401416Y745931D01*
X401428Y745917D01*
X401514Y745810D01*
X432775Y714549D01*
X432775Y501351D01*
X345498Y414074D01*
X345445Y414000D01*
X345385Y413930D01*
X345373Y413900D01*
X345354Y413874D01*
X345327Y413787D01*
X345293Y413702D01*
X345289Y413661D01*
X345282Y413639D01*
X345283Y413607D01*
X345275Y413535D01*
X345275Y256351D01*
X333649Y244725D01*
X276036Y244725D01*
X276016Y244722D01*
X275997Y244724D01*
X275895Y244702D01*
X275793Y244686D01*
X275776Y244676D01*
X275756Y244672D01*
X275667Y244619D01*
X275576Y244570D01*
X275562Y244556D01*
X275545Y244546D01*
X275478Y244467D01*
X275406Y244392D01*
X275398Y244374D01*
X275385Y244359D01*
X275346Y244263D01*
X275303Y244169D01*
X275301Y244149D01*
X275293Y244131D01*
X275275Y243964D01*
X275275Y242879D01*
X275294Y242764D01*
X275311Y242648D01*
X275313Y242642D01*
X275314Y242636D01*
X275369Y242534D01*
X275422Y242429D01*
X275427Y242424D01*
X275430Y242419D01*
X275514Y242339D01*
X275598Y242257D01*
X275604Y242253D01*
X275608Y242250D01*
X275625Y242242D01*
X275745Y242176D01*
X279887Y240460D01*
X282960Y237387D01*
X284623Y233373D01*
X284623Y229027D01*
X282960Y225013D01*
X279887Y221940D01*
X275873Y220277D01*
X271527Y220277D01*
G37*
%LPD*%
%LPC*%
G36*
X447802Y704693D02*
X447802Y704693D01*
X444693Y707802D01*
X444693Y712198D01*
X447802Y715307D01*
X451067Y715307D01*
X451157Y715321D01*
X451248Y715329D01*
X451278Y715341D01*
X451310Y715346D01*
X451391Y715389D01*
X451475Y715425D01*
X451507Y715451D01*
X451527Y715462D01*
X451550Y715485D01*
X451606Y715530D01*
X454502Y718426D01*
X454555Y718500D01*
X454615Y718570D01*
X454627Y718600D01*
X454646Y718626D01*
X454673Y718713D01*
X454707Y718798D01*
X454711Y718839D01*
X454718Y718861D01*
X454717Y718893D01*
X454725Y718965D01*
X454725Y766149D01*
X456351Y767775D01*
X468535Y767775D01*
X468625Y767789D01*
X468716Y767797D01*
X468746Y767809D01*
X468778Y767814D01*
X468859Y767857D01*
X468943Y767893D01*
X468975Y767919D01*
X468995Y767930D01*
X469018Y767953D01*
X469074Y767998D01*
X487002Y785926D01*
X487055Y786000D01*
X487115Y786070D01*
X487127Y786100D01*
X487146Y786126D01*
X487173Y786213D01*
X487207Y786298D01*
X487211Y786339D01*
X487218Y786361D01*
X487217Y786393D01*
X487225Y786465D01*
X487225Y806464D01*
X487222Y806484D01*
X487224Y806503D01*
X487202Y806605D01*
X487186Y806707D01*
X487176Y806724D01*
X487172Y806744D01*
X487119Y806833D01*
X487070Y806924D01*
X487056Y806938D01*
X487046Y806955D01*
X486967Y807022D01*
X486892Y807094D01*
X486874Y807102D01*
X486859Y807115D01*
X486763Y807154D01*
X486669Y807197D01*
X486649Y807199D01*
X486631Y807207D01*
X486464Y807225D01*
X468851Y807225D01*
X447225Y828851D01*
X447225Y876249D01*
X449074Y878098D01*
X456031Y885055D01*
X456093Y885142D01*
X456120Y885170D01*
X456130Y885192D01*
X456169Y885244D01*
X456171Y885250D01*
X456175Y885255D01*
X456204Y885350D01*
X456224Y885393D01*
X456227Y885422D01*
X456245Y885478D01*
X456245Y885484D01*
X456247Y885490D01*
X456245Y885580D01*
X456251Y885638D01*
X456243Y885673D01*
X456243Y885724D01*
X456241Y885731D01*
X456241Y885736D01*
X456234Y885753D01*
X456201Y885868D01*
X456199Y885878D01*
X456197Y885880D01*
X456196Y885885D01*
X454977Y888827D01*
X454977Y893173D01*
X456640Y897187D01*
X459713Y900260D01*
X463727Y901923D01*
X467280Y901923D01*
X467370Y901937D01*
X467461Y901945D01*
X467491Y901957D01*
X467523Y901962D01*
X467603Y902005D01*
X467687Y902041D01*
X467719Y902067D01*
X467740Y902078D01*
X467762Y902101D01*
X467818Y902146D01*
X478704Y913031D01*
X481102Y914025D01*
X510598Y914025D01*
X512996Y913031D01*
X526460Y899568D01*
X526534Y899515D01*
X526603Y899455D01*
X526633Y899443D01*
X526659Y899424D01*
X526746Y899397D01*
X526831Y899363D01*
X526872Y899359D01*
X526894Y899352D01*
X526927Y899353D01*
X526998Y899345D01*
X536039Y899345D01*
X539400Y897953D01*
X541973Y895380D01*
X543365Y892019D01*
X543365Y888381D01*
X541973Y885020D01*
X539400Y882447D01*
X536039Y881055D01*
X517161Y881055D01*
X513800Y882447D01*
X511227Y885020D01*
X509835Y888381D01*
X509835Y892019D01*
X511248Y895429D01*
X511255Y895440D01*
X511315Y895524D01*
X511321Y895543D01*
X511332Y895560D01*
X511357Y895660D01*
X511388Y895759D01*
X511387Y895779D01*
X511392Y895798D01*
X511384Y895901D01*
X511381Y896005D01*
X511374Y896024D01*
X511373Y896044D01*
X511333Y896138D01*
X511297Y896236D01*
X511284Y896252D01*
X511277Y896270D01*
X511172Y896401D01*
X506820Y900752D01*
X506746Y900805D01*
X506677Y900865D01*
X506647Y900877D01*
X506621Y900896D01*
X506533Y900923D01*
X506449Y900957D01*
X506408Y900961D01*
X506386Y900968D01*
X506353Y900967D01*
X506282Y900975D01*
X485418Y900975D01*
X485328Y900961D01*
X485237Y900953D01*
X485207Y900941D01*
X485175Y900936D01*
X485095Y900893D01*
X485011Y900857D01*
X484979Y900831D01*
X484958Y900820D01*
X484936Y900797D01*
X484880Y900752D01*
X477046Y892918D01*
X476993Y892844D01*
X476933Y892775D01*
X476921Y892745D01*
X476902Y892719D01*
X476875Y892632D01*
X476841Y892547D01*
X476837Y892506D01*
X476830Y892484D01*
X476831Y892451D01*
X476823Y892380D01*
X476823Y888827D01*
X475160Y884813D01*
X472087Y881740D01*
X468073Y880077D01*
X463727Y880077D01*
X460785Y881296D01*
X460671Y881323D01*
X460558Y881351D01*
X460551Y881351D01*
X460545Y881352D01*
X460429Y881341D01*
X460312Y881332D01*
X460307Y881330D01*
X460300Y881329D01*
X460193Y881281D01*
X460086Y881236D01*
X460080Y881231D01*
X460076Y881229D01*
X460062Y881217D01*
X459955Y881131D01*
X452998Y874174D01*
X452945Y874100D01*
X452885Y874030D01*
X452873Y874000D01*
X452854Y873974D01*
X452827Y873887D01*
X452793Y873802D01*
X452789Y873761D01*
X452782Y873739D01*
X452783Y873707D01*
X452775Y873635D01*
X452775Y831465D01*
X452789Y831375D01*
X452797Y831284D01*
X452809Y831254D01*
X452814Y831222D01*
X452857Y831141D01*
X452893Y831057D01*
X452919Y831025D01*
X452930Y831005D01*
X452953Y830982D01*
X452998Y830926D01*
X470926Y812998D01*
X471000Y812945D01*
X471070Y812885D01*
X471100Y812873D01*
X471126Y812854D01*
X471213Y812827D01*
X471298Y812793D01*
X471339Y812789D01*
X471361Y812782D01*
X471393Y812783D01*
X471465Y812775D01*
X491149Y812775D01*
X492775Y811149D01*
X492775Y783851D01*
X471149Y762225D01*
X461036Y762225D01*
X461016Y762222D01*
X460997Y762224D01*
X460895Y762202D01*
X460793Y762186D01*
X460776Y762176D01*
X460756Y762172D01*
X460667Y762119D01*
X460576Y762070D01*
X460562Y762056D01*
X460545Y762046D01*
X460478Y761967D01*
X460406Y761892D01*
X460398Y761874D01*
X460385Y761859D01*
X460346Y761763D01*
X460303Y761669D01*
X460301Y761649D01*
X460293Y761631D01*
X460275Y761464D01*
X460275Y755229D01*
X460290Y755133D01*
X460300Y755036D01*
X460310Y755012D01*
X460314Y754987D01*
X460360Y754901D01*
X460400Y754811D01*
X460417Y754792D01*
X460430Y754769D01*
X460500Y754702D01*
X460566Y754630D01*
X460589Y754618D01*
X460608Y754600D01*
X460696Y754559D01*
X460782Y754512D01*
X460807Y754507D01*
X460831Y754496D01*
X460928Y754485D01*
X461024Y754468D01*
X461050Y754472D01*
X461075Y754469D01*
X461170Y754490D01*
X461267Y754504D01*
X461290Y754516D01*
X461316Y754521D01*
X461399Y754571D01*
X461486Y754615D01*
X461505Y754634D01*
X461527Y754647D01*
X461590Y754722D01*
X461658Y754791D01*
X461674Y754820D01*
X461687Y754834D01*
X461699Y754865D01*
X461739Y754938D01*
X461863Y755236D01*
X464364Y757737D01*
X467632Y759091D01*
X471168Y759091D01*
X472960Y758349D01*
X473074Y758322D01*
X473187Y758293D01*
X473193Y758294D01*
X473199Y758292D01*
X473316Y758303D01*
X473432Y758313D01*
X473438Y758315D01*
X473444Y758316D01*
X473552Y758363D01*
X473659Y758409D01*
X473664Y758414D01*
X473669Y758416D01*
X473683Y758428D01*
X473790Y758514D01*
X510451Y795175D01*
X535018Y795175D01*
X535133Y795194D01*
X535249Y795211D01*
X535255Y795213D01*
X535261Y795214D01*
X535363Y795269D01*
X535468Y795322D01*
X535473Y795327D01*
X535478Y795330D01*
X535558Y795414D01*
X535640Y795498D01*
X535644Y795504D01*
X535648Y795508D01*
X535655Y795525D01*
X535721Y795645D01*
X536940Y798587D01*
X540013Y801660D01*
X544027Y803323D01*
X548373Y803323D01*
X552387Y801660D01*
X555460Y798587D01*
X557123Y794573D01*
X557123Y790227D01*
X555460Y786213D01*
X552387Y783140D01*
X548373Y781477D01*
X544027Y781477D01*
X540013Y783140D01*
X536940Y786213D01*
X535721Y789155D01*
X535660Y789255D01*
X535600Y789355D01*
X535595Y789359D01*
X535592Y789364D01*
X535502Y789439D01*
X535413Y789515D01*
X535407Y789517D01*
X535402Y789521D01*
X535294Y789563D01*
X535185Y789607D01*
X535177Y789608D01*
X535173Y789609D01*
X535154Y789610D01*
X535018Y789625D01*
X513065Y789625D01*
X512975Y789611D01*
X512884Y789603D01*
X512854Y789591D01*
X512822Y789586D01*
X512741Y789543D01*
X512657Y789507D01*
X512625Y789481D01*
X512605Y789470D01*
X512582Y789447D01*
X512526Y789402D01*
X477714Y754590D01*
X477645Y754495D01*
X477576Y754401D01*
X477574Y754395D01*
X477570Y754390D01*
X477536Y754278D01*
X477500Y754167D01*
X477500Y754161D01*
X477498Y754155D01*
X477501Y754038D01*
X477502Y753921D01*
X477504Y753914D01*
X477504Y753909D01*
X477511Y753891D01*
X477549Y753760D01*
X478291Y751968D01*
X478291Y748432D01*
X476937Y745164D01*
X474436Y742663D01*
X471168Y741309D01*
X467632Y741309D01*
X464364Y742663D01*
X461863Y745164D01*
X461739Y745462D01*
X461688Y745545D01*
X461642Y745631D01*
X461623Y745649D01*
X461610Y745671D01*
X461535Y745733D01*
X461464Y745800D01*
X461440Y745811D01*
X461420Y745828D01*
X461329Y745863D01*
X461241Y745904D01*
X461215Y745907D01*
X461191Y745916D01*
X461093Y745920D01*
X460997Y745931D01*
X460971Y745925D01*
X460945Y745927D01*
X460851Y745899D01*
X460756Y745879D01*
X460734Y745865D01*
X460709Y745858D01*
X460629Y745802D01*
X460545Y745753D01*
X460528Y745733D01*
X460507Y745718D01*
X460449Y745640D01*
X460385Y745566D01*
X460375Y745541D01*
X460360Y745520D01*
X460330Y745428D01*
X460293Y745337D01*
X460290Y745305D01*
X460284Y745287D01*
X460284Y745253D01*
X460275Y745171D01*
X460275Y716351D01*
X455530Y711606D01*
X455477Y711532D01*
X455417Y711462D01*
X455405Y711432D01*
X455386Y711406D01*
X455359Y711319D01*
X455325Y711234D01*
X455321Y711193D01*
X455314Y711171D01*
X455315Y711139D01*
X455307Y711067D01*
X455307Y707802D01*
X452198Y704693D01*
X447802Y704693D01*
G37*
%LPD*%
%LPC*%
G36*
X177827Y840677D02*
X177827Y840677D01*
X173813Y842340D01*
X171301Y844852D01*
X171227Y844905D01*
X171157Y844965D01*
X171127Y844977D01*
X171101Y844996D01*
X171014Y845023D01*
X170929Y845057D01*
X170888Y845061D01*
X170866Y845068D01*
X170834Y845067D01*
X170762Y845075D01*
X144602Y845075D01*
X142204Y846069D01*
X139469Y848804D01*
X138475Y851202D01*
X138475Y924082D01*
X138461Y924172D01*
X138453Y924263D01*
X138441Y924293D01*
X138436Y924325D01*
X138393Y924405D01*
X138357Y924489D01*
X138331Y924521D01*
X138320Y924542D01*
X138297Y924564D01*
X138252Y924620D01*
X120461Y942411D01*
X120368Y942479D01*
X120273Y942549D01*
X120267Y942551D01*
X120262Y942555D01*
X120151Y942589D01*
X120039Y942626D01*
X120032Y942625D01*
X120026Y942627D01*
X119910Y942624D01*
X119793Y942623D01*
X119786Y942621D01*
X119781Y942621D01*
X119763Y942615D01*
X119632Y942576D01*
X119576Y942553D01*
X114624Y942553D01*
X110049Y944448D01*
X106548Y947949D01*
X104653Y952524D01*
X104653Y957476D01*
X106548Y962051D01*
X110049Y965552D01*
X114624Y967447D01*
X119576Y967447D01*
X124151Y965552D01*
X127652Y962051D01*
X129547Y957476D01*
X129547Y952524D01*
X129524Y952468D01*
X129497Y952355D01*
X129468Y952241D01*
X129469Y952235D01*
X129467Y952229D01*
X129478Y952112D01*
X129487Y951996D01*
X129490Y951990D01*
X129491Y951984D01*
X129538Y951876D01*
X129584Y951770D01*
X129588Y951764D01*
X129590Y951759D01*
X129603Y951745D01*
X129689Y951639D01*
X148589Y932738D01*
X150531Y930796D01*
X151525Y928398D01*
X151525Y858886D01*
X151528Y858866D01*
X151526Y858847D01*
X151548Y858745D01*
X151564Y858643D01*
X151574Y858626D01*
X151578Y858606D01*
X151631Y858517D01*
X151680Y858426D01*
X151694Y858412D01*
X151704Y858395D01*
X151783Y858328D01*
X151858Y858256D01*
X151876Y858248D01*
X151891Y858235D01*
X151987Y858196D01*
X152081Y858153D01*
X152101Y858151D01*
X152119Y858143D01*
X152286Y858125D01*
X170762Y858125D01*
X170852Y858139D01*
X170943Y858147D01*
X170973Y858159D01*
X171005Y858164D01*
X171086Y858207D01*
X171170Y858243D01*
X171202Y858269D01*
X171222Y858280D01*
X171245Y858303D01*
X171301Y858348D01*
X173813Y860860D01*
X177827Y862523D01*
X182173Y862523D01*
X186187Y860860D01*
X189260Y857787D01*
X190923Y853773D01*
X190923Y849427D01*
X189260Y845413D01*
X186187Y842340D01*
X182173Y840677D01*
X177827Y840677D01*
G37*
%LPD*%
%LPC*%
G36*
X526358Y932339D02*
X526358Y932339D01*
X519323Y934224D01*
X513016Y937866D01*
X507866Y943016D01*
X504224Y949323D01*
X502339Y956358D01*
X502339Y963642D01*
X504224Y970677D01*
X507866Y976984D01*
X513016Y982134D01*
X519323Y985776D01*
X526358Y987661D01*
X533642Y987661D01*
X540677Y985776D01*
X546984Y982134D01*
X552134Y976984D01*
X555776Y970677D01*
X557661Y963642D01*
X557661Y956358D01*
X555776Y949323D01*
X552134Y943016D01*
X546984Y937866D01*
X540677Y934224D01*
X533642Y932339D01*
X526358Y932339D01*
G37*
%LPD*%
%LPC*%
G36*
X36358Y932339D02*
X36358Y932339D01*
X29323Y934224D01*
X23016Y937866D01*
X17866Y943016D01*
X14224Y949323D01*
X12339Y956358D01*
X12339Y963642D01*
X14224Y970677D01*
X17866Y976984D01*
X23016Y982134D01*
X29323Y985776D01*
X36358Y987661D01*
X43642Y987661D01*
X50677Y985776D01*
X56984Y982134D01*
X62134Y976984D01*
X65776Y970677D01*
X67661Y963642D01*
X67661Y956358D01*
X65776Y949323D01*
X62134Y943016D01*
X56984Y937866D01*
X50677Y934224D01*
X43642Y932339D01*
X36358Y932339D01*
G37*
%LPD*%
%LPC*%
G36*
X36358Y12339D02*
X36358Y12339D01*
X29323Y14224D01*
X23016Y17866D01*
X17866Y23016D01*
X14224Y29323D01*
X12339Y36358D01*
X12339Y43642D01*
X14224Y50677D01*
X17866Y56984D01*
X23016Y62134D01*
X29323Y65776D01*
X36358Y67661D01*
X43642Y67661D01*
X50677Y65776D01*
X56984Y62134D01*
X62134Y56984D01*
X65776Y50677D01*
X67661Y43642D01*
X67661Y36358D01*
X65776Y29323D01*
X62134Y23016D01*
X56984Y17866D01*
X50677Y14224D01*
X43642Y12339D01*
X36358Y12339D01*
G37*
%LPD*%
%LPC*%
G36*
X526358Y12339D02*
X526358Y12339D01*
X519323Y14224D01*
X513016Y17866D01*
X507866Y23016D01*
X504224Y29323D01*
X502339Y36358D01*
X502339Y43642D01*
X504224Y50677D01*
X507866Y56984D01*
X513016Y62134D01*
X519323Y65776D01*
X526358Y67661D01*
X533642Y67661D01*
X540677Y65776D01*
X546984Y62134D01*
X552134Y56984D01*
X555776Y50677D01*
X557661Y43642D01*
X557661Y36358D01*
X555776Y29323D01*
X552134Y23016D01*
X546984Y17866D01*
X540677Y14224D01*
X533642Y12339D01*
X526358Y12339D01*
G37*
%LPD*%
%LPC*%
G36*
X139209Y147725D02*
X139209Y147725D01*
X134514Y149670D01*
X130920Y153264D01*
X129551Y156568D01*
X129517Y156624D01*
X129491Y156684D01*
X129439Y156749D01*
X129422Y156777D01*
X129407Y156790D01*
X129386Y156815D01*
X101949Y184252D01*
X101875Y184305D01*
X101806Y184365D01*
X101776Y184377D01*
X101750Y184396D01*
X101663Y184423D01*
X101578Y184457D01*
X101537Y184461D01*
X101514Y184468D01*
X101482Y184467D01*
X101411Y184475D01*
X81210Y184475D01*
X81146Y184465D01*
X81080Y184464D01*
X81000Y184441D01*
X80967Y184436D01*
X80950Y184426D01*
X80919Y184417D01*
X78041Y183225D01*
X72959Y183225D01*
X68264Y185170D01*
X64670Y188764D01*
X62725Y193459D01*
X62725Y198541D01*
X64670Y203236D01*
X68264Y206830D01*
X72959Y208775D01*
X78041Y208775D01*
X80919Y207583D01*
X80983Y207568D01*
X81044Y207543D01*
X81126Y207534D01*
X81158Y207527D01*
X81178Y207528D01*
X81210Y207525D01*
X108792Y207525D01*
X113028Y205770D01*
X146288Y172510D01*
X146341Y172472D01*
X146388Y172426D01*
X146461Y172386D01*
X146488Y172367D01*
X146506Y172361D01*
X146535Y172345D01*
X148986Y171330D01*
X152580Y167736D01*
X154525Y163041D01*
X154525Y157959D01*
X152580Y153264D01*
X148986Y149670D01*
X144291Y147725D01*
X139209Y147725D01*
G37*
%LPD*%
%LPC*%
G36*
X388727Y847477D02*
X388727Y847477D01*
X384713Y849140D01*
X381640Y852213D01*
X379977Y856227D01*
X379977Y860573D01*
X381640Y864587D01*
X384713Y867660D01*
X388727Y869323D01*
X392280Y869323D01*
X392370Y869337D01*
X392461Y869345D01*
X392491Y869357D01*
X392523Y869362D01*
X392603Y869405D01*
X392687Y869441D01*
X392719Y869467D01*
X392740Y869478D01*
X392762Y869501D01*
X392818Y869546D01*
X406552Y883280D01*
X406605Y883354D01*
X406665Y883423D01*
X406677Y883453D01*
X406696Y883479D01*
X406723Y883566D01*
X406757Y883651D01*
X406761Y883692D01*
X406768Y883714D01*
X406767Y883747D01*
X406775Y883818D01*
X406775Y943722D01*
X406756Y943837D01*
X406739Y943953D01*
X406737Y943958D01*
X406736Y943964D01*
X406681Y944067D01*
X406628Y944172D01*
X406623Y944176D01*
X406620Y944182D01*
X406536Y944262D01*
X406452Y944344D01*
X406446Y944348D01*
X406442Y944351D01*
X406425Y944359D01*
X406305Y944425D01*
X406249Y944448D01*
X402748Y947949D01*
X400853Y952524D01*
X400853Y957476D01*
X402748Y962051D01*
X406249Y965552D01*
X410824Y967447D01*
X415776Y967447D01*
X420351Y965552D01*
X423852Y962051D01*
X425747Y957476D01*
X425747Y952524D01*
X423852Y947949D01*
X420351Y944448D01*
X420295Y944425D01*
X420195Y944363D01*
X420095Y944304D01*
X420091Y944299D01*
X420086Y944295D01*
X420011Y944206D01*
X419935Y944117D01*
X419933Y944111D01*
X419929Y944106D01*
X419887Y943997D01*
X419843Y943888D01*
X419842Y943881D01*
X419841Y943876D01*
X419840Y943858D01*
X419825Y943722D01*
X419825Y879502D01*
X418831Y877104D01*
X402046Y860318D01*
X401993Y860244D01*
X401933Y860175D01*
X401921Y860145D01*
X401902Y860119D01*
X401875Y860032D01*
X401841Y859947D01*
X401837Y859906D01*
X401830Y859884D01*
X401831Y859851D01*
X401823Y859780D01*
X401823Y856227D01*
X400160Y852213D01*
X397087Y849140D01*
X393073Y847477D01*
X388727Y847477D01*
G37*
%LPD*%
%LPC*%
G36*
X417024Y32553D02*
X417024Y32553D01*
X412449Y34448D01*
X408948Y37949D01*
X407053Y42524D01*
X407053Y47476D01*
X407076Y47532D01*
X407103Y47645D01*
X407132Y47759D01*
X407131Y47765D01*
X407133Y47771D01*
X407122Y47888D01*
X407113Y48004D01*
X407110Y48010D01*
X407109Y48016D01*
X407062Y48124D01*
X407016Y48230D01*
X407012Y48236D01*
X407010Y48241D01*
X406997Y48255D01*
X406911Y48361D01*
X390711Y64562D01*
X388769Y66504D01*
X387775Y68902D01*
X387775Y121662D01*
X387761Y121752D01*
X387753Y121843D01*
X387741Y121873D01*
X387736Y121905D01*
X387693Y121986D01*
X387657Y122070D01*
X387631Y122102D01*
X387620Y122122D01*
X387597Y122145D01*
X387552Y122201D01*
X385040Y124713D01*
X383377Y128727D01*
X383377Y133073D01*
X385040Y137087D01*
X388113Y140160D01*
X392127Y141823D01*
X396473Y141823D01*
X400487Y140160D01*
X403560Y137087D01*
X405223Y133073D01*
X405223Y128727D01*
X403560Y124713D01*
X401048Y122201D01*
X400995Y122127D01*
X400935Y122057D01*
X400923Y122027D01*
X400904Y122001D01*
X400877Y121914D01*
X400843Y121829D01*
X400839Y121788D01*
X400832Y121766D01*
X400833Y121734D01*
X400825Y121662D01*
X400825Y73218D01*
X400839Y73128D01*
X400847Y73037D01*
X400859Y73007D01*
X400864Y72975D01*
X400907Y72895D01*
X400943Y72811D01*
X400969Y72779D01*
X400980Y72758D01*
X401003Y72736D01*
X401048Y72680D01*
X416139Y57589D01*
X416232Y57521D01*
X416327Y57451D01*
X416333Y57449D01*
X416338Y57445D01*
X416449Y57411D01*
X416561Y57374D01*
X416568Y57375D01*
X416574Y57373D01*
X416690Y57376D01*
X416807Y57377D01*
X416814Y57379D01*
X416819Y57379D01*
X416837Y57385D01*
X416968Y57424D01*
X417024Y57447D01*
X421976Y57447D01*
X426551Y55552D01*
X430052Y52051D01*
X431947Y47476D01*
X431947Y42524D01*
X430052Y37949D01*
X426551Y34448D01*
X421976Y32553D01*
X417024Y32553D01*
G37*
%LPD*%
%LPC*%
G36*
X287802Y284693D02*
X287802Y284693D01*
X284693Y287802D01*
X284693Y292198D01*
X287002Y294507D01*
X287055Y294581D01*
X287115Y294651D01*
X287127Y294681D01*
X287146Y294707D01*
X287173Y294794D01*
X287207Y294879D01*
X287211Y294920D01*
X287218Y294942D01*
X287217Y294974D01*
X287225Y295045D01*
X287225Y301149D01*
X288851Y302775D01*
X306464Y302775D01*
X306484Y302778D01*
X306503Y302776D01*
X306605Y302798D01*
X306707Y302814D01*
X306724Y302824D01*
X306744Y302828D01*
X306833Y302881D01*
X306924Y302930D01*
X306938Y302944D01*
X306955Y302954D01*
X307022Y303033D01*
X307094Y303108D01*
X307102Y303126D01*
X307115Y303141D01*
X307154Y303237D01*
X307197Y303331D01*
X307199Y303351D01*
X307207Y303369D01*
X307225Y303536D01*
X307225Y428464D01*
X307222Y428484D01*
X307224Y428503D01*
X307202Y428605D01*
X307186Y428707D01*
X307176Y428724D01*
X307172Y428744D01*
X307119Y428833D01*
X307070Y428924D01*
X307056Y428938D01*
X307046Y428955D01*
X306967Y429022D01*
X306892Y429094D01*
X306874Y429102D01*
X306859Y429115D01*
X306763Y429154D01*
X306669Y429197D01*
X306649Y429199D01*
X306631Y429207D01*
X306464Y429225D01*
X227476Y429225D01*
X227456Y429222D01*
X227437Y429224D01*
X227335Y429202D01*
X227233Y429186D01*
X227216Y429176D01*
X227196Y429172D01*
X227107Y429119D01*
X227016Y429070D01*
X227002Y429056D01*
X226985Y429046D01*
X226918Y428967D01*
X226846Y428892D01*
X226838Y428874D01*
X226825Y428859D01*
X226786Y428763D01*
X226743Y428669D01*
X226741Y428649D01*
X226733Y428631D01*
X226715Y428464D01*
X226715Y427686D01*
X220614Y421585D01*
X211986Y421585D01*
X205885Y427686D01*
X205885Y436314D01*
X211986Y442415D01*
X220614Y442415D01*
X226715Y436314D01*
X226715Y435536D01*
X226718Y435516D01*
X226716Y435497D01*
X226738Y435395D01*
X226754Y435293D01*
X226764Y435276D01*
X226768Y435256D01*
X226821Y435167D01*
X226870Y435076D01*
X226884Y435062D01*
X226894Y435045D01*
X226973Y434978D01*
X227048Y434906D01*
X227066Y434898D01*
X227081Y434885D01*
X227177Y434846D01*
X227271Y434803D01*
X227291Y434801D01*
X227309Y434793D01*
X227476Y434775D01*
X309149Y434775D01*
X312775Y431149D01*
X312775Y298851D01*
X311149Y297225D01*
X293536Y297225D01*
X293516Y297222D01*
X293497Y297224D01*
X293395Y297202D01*
X293293Y297186D01*
X293276Y297176D01*
X293256Y297172D01*
X293167Y297119D01*
X293076Y297070D01*
X293062Y297056D01*
X293045Y297046D01*
X292978Y296967D01*
X292906Y296892D01*
X292898Y296874D01*
X292885Y296859D01*
X292846Y296763D01*
X292803Y296669D01*
X292801Y296649D01*
X292793Y296631D01*
X292775Y296464D01*
X292775Y295045D01*
X292789Y294955D01*
X292797Y294864D01*
X292809Y294835D01*
X292814Y294803D01*
X292857Y294722D01*
X292893Y294638D01*
X292919Y294606D01*
X292930Y294585D01*
X292953Y294563D01*
X292998Y294507D01*
X295307Y292198D01*
X295307Y287802D01*
X292198Y284693D01*
X287802Y284693D01*
G37*
%LPD*%
%LPC*%
G36*
X113224Y32553D02*
X113224Y32553D01*
X108649Y34448D01*
X105148Y37949D01*
X103253Y42524D01*
X103253Y47476D01*
X105148Y52051D01*
X108649Y55552D01*
X110003Y56113D01*
X110059Y56147D01*
X110119Y56173D01*
X110184Y56225D01*
X110212Y56242D01*
X110225Y56257D01*
X110250Y56278D01*
X163654Y109682D01*
X163707Y109756D01*
X163767Y109825D01*
X163779Y109855D01*
X163798Y109881D01*
X163825Y109968D01*
X163859Y110053D01*
X163863Y110094D01*
X163870Y110116D01*
X163869Y110149D01*
X163877Y110220D01*
X163877Y113773D01*
X165540Y117787D01*
X168613Y120860D01*
X172627Y122523D01*
X176973Y122523D01*
X180987Y120860D01*
X184060Y117787D01*
X185723Y113773D01*
X185723Y109427D01*
X184060Y105413D01*
X180987Y102340D01*
X176973Y100677D01*
X173420Y100677D01*
X173330Y100663D01*
X173239Y100655D01*
X173209Y100643D01*
X173177Y100638D01*
X173097Y100595D01*
X173013Y100559D01*
X172981Y100533D01*
X172960Y100522D01*
X172938Y100499D01*
X172882Y100454D01*
X125903Y53476D01*
X125891Y53460D01*
X125876Y53447D01*
X125820Y53360D01*
X125760Y53276D01*
X125754Y53257D01*
X125743Y53240D01*
X125718Y53140D01*
X125687Y53041D01*
X125688Y53021D01*
X125683Y53002D01*
X125691Y52899D01*
X125694Y52795D01*
X125700Y52776D01*
X125702Y52756D01*
X125742Y52662D01*
X125778Y52564D01*
X125791Y52548D01*
X125798Y52530D01*
X125903Y52399D01*
X126252Y52050D01*
X128147Y47476D01*
X128147Y42524D01*
X126252Y37949D01*
X122751Y34448D01*
X118176Y32553D01*
X113224Y32553D01*
G37*
%LPD*%
%LPC*%
G36*
X101627Y840677D02*
X101627Y840677D01*
X97613Y842340D01*
X94540Y845413D01*
X92877Y849427D01*
X92877Y852980D01*
X92863Y853070D01*
X92855Y853161D01*
X92843Y853191D01*
X92838Y853223D01*
X92795Y853303D01*
X92759Y853387D01*
X92733Y853419D01*
X92722Y853440D01*
X92699Y853462D01*
X92654Y853518D01*
X82420Y863752D01*
X82346Y863805D01*
X82277Y863865D01*
X82247Y863877D01*
X82221Y863896D01*
X82134Y863923D01*
X82049Y863957D01*
X82008Y863961D01*
X81986Y863968D01*
X81953Y863967D01*
X81882Y863975D01*
X50943Y863975D01*
X50853Y863961D01*
X50762Y863953D01*
X50732Y863941D01*
X50700Y863936D01*
X50620Y863893D01*
X50536Y863857D01*
X50504Y863831D01*
X50483Y863820D01*
X50461Y863797D01*
X50405Y863752D01*
X49400Y862747D01*
X46039Y861355D01*
X27161Y861355D01*
X23800Y862747D01*
X21227Y865320D01*
X19835Y868681D01*
X19835Y872319D01*
X21227Y875680D01*
X23800Y878253D01*
X27161Y879645D01*
X46039Y879645D01*
X49400Y878253D01*
X50405Y877248D01*
X50479Y877195D01*
X50548Y877135D01*
X50578Y877123D01*
X50605Y877104D01*
X50692Y877077D01*
X50776Y877043D01*
X50817Y877039D01*
X50840Y877032D01*
X50872Y877033D01*
X50943Y877025D01*
X86198Y877025D01*
X88596Y876031D01*
X101882Y862746D01*
X101956Y862693D01*
X102025Y862633D01*
X102055Y862621D01*
X102081Y862602D01*
X102168Y862575D01*
X102253Y862541D01*
X102294Y862537D01*
X102316Y862530D01*
X102349Y862531D01*
X102420Y862523D01*
X105973Y862523D01*
X109987Y860860D01*
X113060Y857787D01*
X114723Y853773D01*
X114723Y849427D01*
X113060Y845413D01*
X109987Y842340D01*
X105973Y840677D01*
X101627Y840677D01*
G37*
%LPD*%
%LPC*%
G36*
X96427Y100677D02*
X96427Y100677D01*
X92413Y102340D01*
X89340Y105413D01*
X87677Y109427D01*
X87677Y112980D01*
X87663Y113070D01*
X87655Y113161D01*
X87643Y113191D01*
X87638Y113223D01*
X87595Y113303D01*
X87559Y113387D01*
X87533Y113420D01*
X87522Y113440D01*
X87499Y113462D01*
X87454Y113518D01*
X84320Y116652D01*
X84246Y116705D01*
X84177Y116765D01*
X84147Y116777D01*
X84121Y116796D01*
X84033Y116823D01*
X83949Y116857D01*
X83908Y116861D01*
X83886Y116868D01*
X83853Y116867D01*
X83782Y116875D01*
X50943Y116875D01*
X50853Y116861D01*
X50762Y116853D01*
X50732Y116841D01*
X50700Y116836D01*
X50620Y116793D01*
X50536Y116757D01*
X50504Y116731D01*
X50483Y116720D01*
X50461Y116697D01*
X50405Y116652D01*
X49400Y115647D01*
X46039Y114255D01*
X27161Y114255D01*
X23800Y115647D01*
X21227Y118220D01*
X19835Y121581D01*
X19835Y125219D01*
X21227Y128580D01*
X23800Y131153D01*
X27161Y132545D01*
X46039Y132545D01*
X49400Y131153D01*
X50405Y130148D01*
X50479Y130095D01*
X50548Y130035D01*
X50578Y130023D01*
X50605Y130004D01*
X50692Y129977D01*
X50776Y129943D01*
X50817Y129939D01*
X50840Y129932D01*
X50872Y129933D01*
X50943Y129925D01*
X88098Y129925D01*
X90496Y128931D01*
X96682Y122746D01*
X96756Y122693D01*
X96825Y122633D01*
X96855Y122621D01*
X96881Y122602D01*
X96968Y122575D01*
X97053Y122541D01*
X97094Y122537D01*
X97116Y122530D01*
X97149Y122531D01*
X97220Y122523D01*
X100773Y122523D01*
X104787Y120860D01*
X107860Y117787D01*
X109523Y113773D01*
X109523Y109427D01*
X107860Y105413D01*
X104787Y102340D01*
X100773Y100677D01*
X96427Y100677D01*
G37*
%LPD*%
%LPC*%
G36*
X464927Y847477D02*
X464927Y847477D01*
X460913Y849140D01*
X457840Y852213D01*
X456177Y856227D01*
X456177Y860573D01*
X457840Y864587D01*
X460913Y867660D01*
X464927Y869323D01*
X468480Y869323D01*
X468570Y869337D01*
X468661Y869345D01*
X468691Y869357D01*
X468723Y869362D01*
X468803Y869405D01*
X468887Y869441D01*
X468919Y869467D01*
X468940Y869478D01*
X468962Y869501D01*
X469018Y869546D01*
X469804Y870331D01*
X472202Y871325D01*
X512257Y871325D01*
X512347Y871339D01*
X512438Y871347D01*
X512468Y871359D01*
X512500Y871364D01*
X512580Y871407D01*
X512664Y871443D01*
X512696Y871469D01*
X512717Y871480D01*
X512739Y871503D01*
X512795Y871548D01*
X513800Y872553D01*
X517161Y873945D01*
X536039Y873945D01*
X539400Y872553D01*
X541973Y869980D01*
X543365Y866619D01*
X543365Y862981D01*
X541973Y859620D01*
X539400Y857047D01*
X536039Y855655D01*
X517161Y855655D01*
X513800Y857047D01*
X512795Y858052D01*
X512721Y858105D01*
X512652Y858165D01*
X512622Y858177D01*
X512595Y858196D01*
X512508Y858223D01*
X512424Y858257D01*
X512383Y858261D01*
X512360Y858268D01*
X512328Y858267D01*
X512257Y858275D01*
X478784Y858275D01*
X478764Y858272D01*
X478745Y858274D01*
X478643Y858252D01*
X478541Y858236D01*
X478524Y858226D01*
X478504Y858222D01*
X478415Y858169D01*
X478324Y858120D01*
X478310Y858106D01*
X478293Y858096D01*
X478226Y858017D01*
X478154Y857942D01*
X478146Y857924D01*
X478133Y857909D01*
X478094Y857813D01*
X478051Y857719D01*
X478049Y857699D01*
X478041Y857681D01*
X478023Y857514D01*
X478023Y856227D01*
X476360Y852213D01*
X473287Y849140D01*
X469273Y847477D01*
X464927Y847477D01*
G37*
%LPD*%
%LPC*%
G36*
X517161Y109955D02*
X517161Y109955D01*
X513800Y111347D01*
X512795Y112352D01*
X512721Y112405D01*
X512652Y112465D01*
X512622Y112477D01*
X512595Y112496D01*
X512508Y112523D01*
X512424Y112557D01*
X512383Y112561D01*
X512360Y112568D01*
X512328Y112567D01*
X512257Y112575D01*
X481002Y112575D01*
X478604Y113569D01*
X476662Y115511D01*
X472418Y119754D01*
X472344Y119807D01*
X472275Y119867D01*
X472245Y119879D01*
X472219Y119898D01*
X472132Y119925D01*
X472047Y119959D01*
X472006Y119963D01*
X471984Y119970D01*
X471951Y119969D01*
X471880Y119977D01*
X468327Y119977D01*
X464313Y121640D01*
X461240Y124713D01*
X459577Y128727D01*
X459577Y133073D01*
X461240Y137087D01*
X464313Y140160D01*
X468327Y141823D01*
X472673Y141823D01*
X476687Y140160D01*
X479760Y137087D01*
X481423Y133073D01*
X481423Y129520D01*
X481437Y129430D01*
X481445Y129339D01*
X481457Y129309D01*
X481462Y129277D01*
X481505Y129196D01*
X481541Y129113D01*
X481567Y129080D01*
X481578Y129060D01*
X481601Y129038D01*
X481646Y128982D01*
X484780Y125848D01*
X484854Y125795D01*
X484923Y125735D01*
X484953Y125723D01*
X484979Y125704D01*
X485066Y125677D01*
X485151Y125643D01*
X485192Y125639D01*
X485214Y125632D01*
X485247Y125633D01*
X485318Y125625D01*
X512257Y125625D01*
X512347Y125639D01*
X512438Y125647D01*
X512468Y125659D01*
X512500Y125664D01*
X512580Y125707D01*
X512664Y125743D01*
X512696Y125769D01*
X512717Y125780D01*
X512739Y125803D01*
X512795Y125848D01*
X513800Y126853D01*
X517161Y128245D01*
X536039Y128245D01*
X539400Y126853D01*
X541973Y124280D01*
X543365Y120919D01*
X543365Y117281D01*
X541973Y113920D01*
X539400Y111347D01*
X536039Y109955D01*
X517161Y109955D01*
G37*
%LPD*%
%LPC*%
G36*
X467827Y781477D02*
X467827Y781477D01*
X463813Y783140D01*
X460740Y786213D01*
X459077Y790227D01*
X459077Y794573D01*
X460296Y797515D01*
X460323Y797629D01*
X460351Y797742D01*
X460351Y797749D01*
X460352Y797755D01*
X460341Y797871D01*
X460332Y797988D01*
X460330Y797993D01*
X460329Y798000D01*
X460281Y798107D01*
X460236Y798214D01*
X460231Y798220D01*
X460229Y798224D01*
X460217Y798238D01*
X460131Y798345D01*
X426790Y831686D01*
X426716Y831739D01*
X426646Y831799D01*
X426616Y831811D01*
X426590Y831830D01*
X426503Y831857D01*
X426418Y831891D01*
X426377Y831895D01*
X426355Y831902D01*
X426323Y831901D01*
X426251Y831909D01*
X358572Y831909D01*
X358458Y831890D01*
X358341Y831873D01*
X358336Y831871D01*
X358330Y831870D01*
X358227Y831815D01*
X358122Y831762D01*
X358118Y831757D01*
X358112Y831754D01*
X358032Y831670D01*
X357950Y831586D01*
X357946Y831580D01*
X357943Y831576D01*
X357935Y831559D01*
X357869Y831439D01*
X356889Y829072D01*
X354102Y826285D01*
X350461Y824777D01*
X346519Y824777D01*
X342878Y826285D01*
X340091Y829072D01*
X338583Y832713D01*
X338583Y836655D01*
X340091Y840296D01*
X342878Y843083D01*
X346519Y844591D01*
X350461Y844591D01*
X354102Y843083D01*
X356889Y840296D01*
X357869Y837929D01*
X357931Y837829D01*
X357991Y837729D01*
X357995Y837725D01*
X357999Y837720D01*
X358088Y837645D01*
X358177Y837569D01*
X358183Y837567D01*
X358188Y837563D01*
X358296Y837521D01*
X358406Y837477D01*
X358413Y837476D01*
X358418Y837475D01*
X358436Y837474D01*
X358572Y837459D01*
X428865Y837459D01*
X464055Y802269D01*
X464149Y802201D01*
X464244Y802131D01*
X464250Y802129D01*
X464255Y802125D01*
X464366Y802091D01*
X464478Y802055D01*
X464484Y802055D01*
X464490Y802053D01*
X464607Y802056D01*
X464724Y802057D01*
X464731Y802059D01*
X464736Y802059D01*
X464753Y802066D01*
X464885Y802104D01*
X467827Y803323D01*
X472173Y803323D01*
X476187Y801660D01*
X479260Y798587D01*
X480923Y794573D01*
X480923Y790227D01*
X479260Y786213D01*
X476187Y783140D01*
X472173Y781477D01*
X467827Y781477D01*
G37*
%LPD*%
%LPC*%
G36*
X218727Y778977D02*
X218727Y778977D01*
X214713Y780640D01*
X211640Y783713D01*
X209977Y787727D01*
X209977Y792073D01*
X211640Y796087D01*
X214713Y799160D01*
X218727Y800823D01*
X223073Y800823D01*
X226015Y799604D01*
X226129Y799577D01*
X226242Y799549D01*
X226249Y799549D01*
X226255Y799548D01*
X226371Y799559D01*
X226488Y799568D01*
X226493Y799570D01*
X226500Y799571D01*
X226607Y799619D01*
X226714Y799664D01*
X226720Y799669D01*
X226724Y799671D01*
X226738Y799683D01*
X226845Y799769D01*
X250579Y823503D01*
X250596Y823527D01*
X250619Y823547D01*
X250713Y823685D01*
X251001Y824230D01*
X251262Y824310D01*
X251352Y824355D01*
X251444Y824395D01*
X251467Y824412D01*
X251482Y824420D01*
X251505Y824443D01*
X251575Y824500D01*
X251768Y824692D01*
X252384Y824692D01*
X252414Y824697D01*
X252444Y824695D01*
X252609Y824726D01*
X292607Y837077D01*
X292697Y837122D01*
X292790Y837161D01*
X292812Y837179D01*
X292827Y837186D01*
X292851Y837210D01*
X292921Y837266D01*
X293114Y837459D01*
X293730Y837459D01*
X293759Y837464D01*
X293789Y837461D01*
X293954Y837493D01*
X294543Y837674D01*
X294784Y837547D01*
X294879Y837515D01*
X294973Y837477D01*
X295001Y837474D01*
X295017Y837469D01*
X295050Y837469D01*
X295139Y837459D01*
X307928Y837459D01*
X308042Y837478D01*
X308159Y837495D01*
X308164Y837497D01*
X308170Y837498D01*
X308273Y837553D01*
X308378Y837606D01*
X308382Y837611D01*
X308388Y837614D01*
X308468Y837698D01*
X308550Y837782D01*
X308554Y837788D01*
X308557Y837792D01*
X308565Y837809D01*
X308631Y837929D01*
X309611Y840296D01*
X312398Y843083D01*
X316039Y844591D01*
X319981Y844591D01*
X323622Y843083D01*
X326409Y840296D01*
X327917Y836655D01*
X327917Y832713D01*
X326409Y829072D01*
X323622Y826285D01*
X319981Y824777D01*
X316039Y824777D01*
X312398Y826285D01*
X309611Y829072D01*
X308631Y831439D01*
X308569Y831539D01*
X308509Y831639D01*
X308505Y831643D01*
X308501Y831648D01*
X308412Y831723D01*
X308323Y831799D01*
X308317Y831801D01*
X308312Y831805D01*
X308204Y831847D01*
X308094Y831891D01*
X308087Y831892D01*
X308082Y831893D01*
X308064Y831894D01*
X307928Y831909D01*
X294797Y831909D01*
X294767Y831904D01*
X294737Y831907D01*
X294572Y831875D01*
X254574Y819525D01*
X254483Y819480D01*
X254391Y819441D01*
X254369Y819423D01*
X254354Y819416D01*
X254330Y819392D01*
X254260Y819336D01*
X230769Y795845D01*
X230701Y795751D01*
X230631Y795656D01*
X230629Y795650D01*
X230625Y795645D01*
X230591Y795534D01*
X230555Y795422D01*
X230555Y795416D01*
X230553Y795410D01*
X230556Y795293D01*
X230557Y795176D01*
X230559Y795169D01*
X230559Y795164D01*
X230566Y795147D01*
X230604Y795015D01*
X231823Y792073D01*
X231823Y787727D01*
X230160Y783713D01*
X227087Y780640D01*
X223073Y778977D01*
X218727Y778977D01*
G37*
%LPD*%
%LPC*%
G36*
X366032Y741309D02*
X366032Y741309D01*
X362764Y742663D01*
X360263Y745164D01*
X358909Y748432D01*
X358909Y751968D01*
X360263Y755236D01*
X362764Y757737D01*
X366032Y759091D01*
X369568Y759091D01*
X371360Y758349D01*
X371474Y758322D01*
X371587Y758293D01*
X371593Y758294D01*
X371599Y758292D01*
X371716Y758303D01*
X371832Y758313D01*
X371838Y758315D01*
X371844Y758316D01*
X371952Y758363D01*
X372059Y758409D01*
X372064Y758414D01*
X372069Y758416D01*
X372083Y758428D01*
X372190Y758514D01*
X405551Y791875D01*
X432218Y791875D01*
X432333Y791894D01*
X432449Y791911D01*
X432455Y791913D01*
X432461Y791914D01*
X432563Y791969D01*
X432668Y792022D01*
X432673Y792027D01*
X432678Y792030D01*
X432758Y792114D01*
X432840Y792198D01*
X432844Y792204D01*
X432848Y792208D01*
X432855Y792225D01*
X432921Y792345D01*
X434140Y795287D01*
X437213Y798360D01*
X441227Y800023D01*
X445573Y800023D01*
X449587Y798360D01*
X452660Y795287D01*
X454323Y791273D01*
X454323Y786927D01*
X452660Y782913D01*
X449587Y779840D01*
X445573Y778177D01*
X441227Y778177D01*
X437213Y779840D01*
X434140Y782913D01*
X432921Y785855D01*
X432860Y785955D01*
X432800Y786055D01*
X432795Y786059D01*
X432792Y786064D01*
X432702Y786139D01*
X432613Y786215D01*
X432607Y786217D01*
X432602Y786221D01*
X432494Y786263D01*
X432385Y786307D01*
X432377Y786308D01*
X432373Y786309D01*
X432354Y786310D01*
X432218Y786325D01*
X408165Y786325D01*
X408075Y786311D01*
X407984Y786303D01*
X407954Y786291D01*
X407922Y786286D01*
X407841Y786243D01*
X407757Y786207D01*
X407725Y786181D01*
X407705Y786170D01*
X407682Y786147D01*
X407626Y786102D01*
X376114Y754590D01*
X376046Y754495D01*
X375976Y754401D01*
X375974Y754395D01*
X375970Y754390D01*
X375936Y754279D01*
X375900Y754167D01*
X375900Y754161D01*
X375898Y754155D01*
X375901Y754038D01*
X375902Y753921D01*
X375904Y753914D01*
X375904Y753909D01*
X375911Y753891D01*
X375949Y753760D01*
X376691Y751968D01*
X376691Y748432D01*
X375337Y745164D01*
X372836Y742663D01*
X369568Y741309D01*
X366032Y741309D01*
G37*
%LPD*%
%LPC*%
G36*
X317802Y434693D02*
X317802Y434693D01*
X314693Y437802D01*
X314693Y442198D01*
X317002Y444507D01*
X317055Y444581D01*
X317115Y444651D01*
X317127Y444681D01*
X317146Y444707D01*
X317173Y444794D01*
X317207Y444879D01*
X317211Y444920D01*
X317218Y444942D01*
X317217Y444974D01*
X317225Y445045D01*
X317225Y498535D01*
X317211Y498625D01*
X317203Y498716D01*
X317191Y498746D01*
X317186Y498778D01*
X317143Y498859D01*
X317107Y498943D01*
X317081Y498975D01*
X317070Y498995D01*
X317047Y499018D01*
X317002Y499074D01*
X261606Y554470D01*
X261532Y554523D01*
X261462Y554583D01*
X261432Y554595D01*
X261406Y554614D01*
X261319Y554641D01*
X261234Y554675D01*
X261193Y554679D01*
X261171Y554686D01*
X261139Y554685D01*
X261067Y554693D01*
X257802Y554693D01*
X254693Y557802D01*
X254693Y562198D01*
X257802Y565307D01*
X262198Y565307D01*
X265307Y562198D01*
X265307Y558933D01*
X265321Y558843D01*
X265329Y558752D01*
X265341Y558722D01*
X265346Y558690D01*
X265389Y558609D01*
X265425Y558525D01*
X265451Y558493D01*
X265462Y558473D01*
X265485Y558450D01*
X265530Y558394D01*
X322775Y501149D01*
X322775Y445045D01*
X322789Y444955D01*
X322797Y444864D01*
X322809Y444835D01*
X322814Y444803D01*
X322857Y444722D01*
X322893Y444638D01*
X322919Y444606D01*
X322930Y444585D01*
X322953Y444563D01*
X322998Y444507D01*
X325307Y442198D01*
X325307Y437802D01*
X322198Y434693D01*
X317802Y434693D01*
G37*
%LPD*%
%LPC*%
G36*
X289832Y741309D02*
X289832Y741309D01*
X286564Y742663D01*
X284063Y745164D01*
X282709Y748432D01*
X282709Y751968D01*
X284063Y755236D01*
X286564Y757737D01*
X288355Y758479D01*
X288455Y758541D01*
X288555Y758601D01*
X288559Y758606D01*
X288564Y758609D01*
X288639Y758699D01*
X288715Y758788D01*
X288717Y758794D01*
X288721Y758798D01*
X288763Y758906D01*
X288807Y759016D01*
X288808Y759023D01*
X288809Y759028D01*
X288810Y759046D01*
X288825Y759183D01*
X288825Y782412D01*
X288811Y782502D01*
X288803Y782593D01*
X288791Y782623D01*
X288786Y782655D01*
X288743Y782736D01*
X288707Y782820D01*
X288681Y782852D01*
X288670Y782872D01*
X288647Y782895D01*
X288602Y782951D01*
X287840Y783713D01*
X286177Y787727D01*
X286177Y792073D01*
X287840Y796087D01*
X290913Y799160D01*
X294927Y800823D01*
X299273Y800823D01*
X303287Y799160D01*
X306360Y796087D01*
X308023Y792073D01*
X308023Y787727D01*
X306360Y783713D01*
X303287Y780640D01*
X299273Y778977D01*
X295136Y778977D01*
X295116Y778974D01*
X295097Y778976D01*
X294995Y778954D01*
X294893Y778938D01*
X294876Y778928D01*
X294856Y778924D01*
X294767Y778871D01*
X294676Y778822D01*
X294662Y778808D01*
X294645Y778798D01*
X294578Y778719D01*
X294506Y778644D01*
X294498Y778626D01*
X294485Y778611D01*
X294446Y778515D01*
X294403Y778421D01*
X294401Y778401D01*
X294393Y778383D01*
X294375Y778216D01*
X294375Y759183D01*
X294394Y759068D01*
X294411Y758952D01*
X294413Y758946D01*
X294414Y758940D01*
X294469Y758837D01*
X294522Y758732D01*
X294527Y758728D01*
X294530Y758722D01*
X294614Y758643D01*
X294698Y758560D01*
X294704Y758557D01*
X294708Y758553D01*
X294725Y758545D01*
X294845Y758479D01*
X296636Y757737D01*
X299137Y755236D01*
X300491Y751968D01*
X300491Y748432D01*
X299137Y745164D01*
X296636Y742663D01*
X293368Y741309D01*
X289832Y741309D01*
G37*
%LPD*%
%LPC*%
G36*
X365027Y778177D02*
X365027Y778177D01*
X361013Y779840D01*
X357940Y782913D01*
X356277Y786927D01*
X356277Y791273D01*
X357940Y795287D01*
X361013Y798360D01*
X363955Y799579D01*
X364055Y799640D01*
X364155Y799700D01*
X364159Y799705D01*
X364164Y799708D01*
X364239Y799798D01*
X364315Y799887D01*
X364317Y799893D01*
X364321Y799898D01*
X364362Y800005D01*
X364407Y800115D01*
X364408Y800123D01*
X364409Y800127D01*
X364410Y800146D01*
X364425Y800282D01*
X364425Y804794D01*
X364418Y804839D01*
X364420Y804885D01*
X364398Y804960D01*
X364386Y805037D01*
X364364Y805077D01*
X364351Y805121D01*
X364307Y805185D01*
X364270Y805254D01*
X364237Y805286D01*
X364211Y805323D01*
X364149Y805370D01*
X364092Y805423D01*
X364050Y805443D01*
X364014Y805470D01*
X363940Y805494D01*
X363869Y805527D01*
X363823Y805532D01*
X363780Y805546D01*
X363702Y805545D01*
X363625Y805554D01*
X363580Y805544D01*
X363534Y805544D01*
X363403Y805506D01*
X363384Y805502D01*
X363380Y805499D01*
X363373Y805497D01*
X363161Y805409D01*
X359219Y805409D01*
X355578Y806917D01*
X352791Y809704D01*
X351283Y813345D01*
X351283Y817287D01*
X352791Y820928D01*
X355578Y823715D01*
X359219Y825223D01*
X363161Y825223D01*
X366802Y823715D01*
X369589Y820928D01*
X371097Y817287D01*
X371097Y813345D01*
X370033Y810777D01*
X370018Y810713D01*
X369993Y810652D01*
X369984Y810569D01*
X369977Y810537D01*
X369978Y810518D01*
X369975Y810485D01*
X369975Y800282D01*
X369994Y800167D01*
X370011Y800051D01*
X370013Y800045D01*
X370014Y800039D01*
X370069Y799937D01*
X370122Y799832D01*
X370127Y799827D01*
X370130Y799822D01*
X370214Y799742D01*
X370298Y799660D01*
X370304Y799656D01*
X370308Y799652D01*
X370325Y799645D01*
X370445Y799579D01*
X373387Y798360D01*
X376460Y795287D01*
X378123Y791273D01*
X378123Y786927D01*
X376460Y782913D01*
X373387Y779840D01*
X369373Y778177D01*
X365027Y778177D01*
G37*
%LPD*%
%LPC*%
G36*
X211986Y370785D02*
X211986Y370785D01*
X205885Y376886D01*
X205885Y385514D01*
X211986Y391615D01*
X220614Y391615D01*
X226715Y385514D01*
X226715Y384736D01*
X226718Y384716D01*
X226716Y384697D01*
X226738Y384595D01*
X226754Y384493D01*
X226764Y384476D01*
X226768Y384456D01*
X226821Y384367D01*
X226870Y384276D01*
X226884Y384262D01*
X226894Y384245D01*
X226973Y384178D01*
X227048Y384106D01*
X227066Y384098D01*
X227081Y384085D01*
X227177Y384046D01*
X227271Y384003D01*
X227291Y384001D01*
X227309Y383993D01*
X227476Y383975D01*
X239735Y383975D01*
X239825Y383989D01*
X239916Y383997D01*
X239946Y384009D01*
X239978Y384014D01*
X240059Y384057D01*
X240143Y384093D01*
X240175Y384119D01*
X240195Y384130D01*
X240218Y384153D01*
X240274Y384198D01*
X264470Y408394D01*
X264523Y408468D01*
X264583Y408538D01*
X264595Y408568D01*
X264614Y408594D01*
X264641Y408681D01*
X264675Y408766D01*
X264679Y408807D01*
X264686Y408829D01*
X264685Y408861D01*
X264693Y408933D01*
X264693Y412198D01*
X267802Y415307D01*
X272198Y415307D01*
X275307Y412198D01*
X275307Y407802D01*
X272198Y404693D01*
X268933Y404693D01*
X268843Y404679D01*
X268752Y404671D01*
X268722Y404659D01*
X268690Y404654D01*
X268609Y404611D01*
X268525Y404575D01*
X268493Y404549D01*
X268473Y404538D01*
X268450Y404515D01*
X268394Y404470D01*
X242349Y378425D01*
X227476Y378425D01*
X227456Y378422D01*
X227437Y378424D01*
X227335Y378402D01*
X227233Y378386D01*
X227216Y378376D01*
X227196Y378372D01*
X227107Y378319D01*
X227016Y378270D01*
X227002Y378256D01*
X226985Y378246D01*
X226918Y378167D01*
X226846Y378092D01*
X226838Y378074D01*
X226825Y378059D01*
X226786Y377963D01*
X226743Y377869D01*
X226741Y377849D01*
X226733Y377831D01*
X226715Y377664D01*
X226715Y376886D01*
X220614Y370785D01*
X211986Y370785D01*
G37*
%LPD*%
%LPC*%
G36*
X145738Y528385D02*
X145738Y528385D01*
X141910Y529971D01*
X138981Y532900D01*
X137395Y536728D01*
X137395Y540872D01*
X138981Y544700D01*
X141910Y547629D01*
X145738Y549215D01*
X167662Y549215D01*
X171490Y547629D01*
X174419Y544700D01*
X176005Y540872D01*
X176005Y536728D01*
X174419Y532900D01*
X171490Y529971D01*
X167662Y528385D01*
X145738Y528385D01*
G37*
%LPD*%
%LPC*%
G36*
X145738Y452185D02*
X145738Y452185D01*
X141910Y453771D01*
X138981Y456700D01*
X137395Y460528D01*
X137395Y464672D01*
X138981Y468500D01*
X141910Y471429D01*
X145738Y473015D01*
X167662Y473015D01*
X171490Y471429D01*
X174419Y468500D01*
X176005Y464672D01*
X176005Y460528D01*
X174419Y456700D01*
X171490Y453771D01*
X167662Y452185D01*
X145738Y452185D01*
G37*
%LPD*%
%LPC*%
G36*
X145738Y350585D02*
X145738Y350585D01*
X141910Y352171D01*
X138981Y355100D01*
X137395Y358928D01*
X137395Y363072D01*
X138981Y366900D01*
X141910Y369829D01*
X145738Y371415D01*
X167662Y371415D01*
X171490Y369829D01*
X174419Y366900D01*
X176005Y363072D01*
X176005Y358928D01*
X174419Y355100D01*
X171490Y352171D01*
X167662Y350585D01*
X145738Y350585D01*
G37*
%LPD*%
%LPC*%
G36*
X145738Y502985D02*
X145738Y502985D01*
X141910Y504571D01*
X138981Y507500D01*
X137395Y511328D01*
X137395Y515472D01*
X138981Y519300D01*
X141910Y522229D01*
X145738Y523815D01*
X167662Y523815D01*
X171490Y522229D01*
X174419Y519300D01*
X176005Y515472D01*
X176005Y511328D01*
X174419Y507500D01*
X171490Y504571D01*
X167662Y502985D01*
X145738Y502985D01*
G37*
%LPD*%
%LPC*%
G36*
X145738Y477585D02*
X145738Y477585D01*
X141910Y479171D01*
X138981Y482100D01*
X137395Y485928D01*
X137395Y490072D01*
X138981Y493900D01*
X141910Y496829D01*
X145738Y498415D01*
X167662Y498415D01*
X171490Y496829D01*
X174419Y493900D01*
X176005Y490072D01*
X176005Y485928D01*
X174419Y482100D01*
X171490Y479171D01*
X167662Y477585D01*
X145738Y477585D01*
G37*
%LPD*%
%LPC*%
G36*
X420981Y260935D02*
X420981Y260935D01*
X417620Y262327D01*
X415047Y264900D01*
X413655Y268261D01*
X413655Y287139D01*
X415047Y290500D01*
X417620Y293073D01*
X420981Y294465D01*
X424619Y294465D01*
X427980Y293073D01*
X430553Y290500D01*
X431945Y287139D01*
X431945Y268261D01*
X430553Y264900D01*
X427980Y262327D01*
X424619Y260935D01*
X420981Y260935D01*
G37*
%LPD*%
%LPC*%
G36*
X370181Y260935D02*
X370181Y260935D01*
X366820Y262327D01*
X364247Y264900D01*
X362855Y268261D01*
X362855Y287139D01*
X364247Y290500D01*
X366820Y293073D01*
X370181Y294465D01*
X373819Y294465D01*
X377180Y293073D01*
X379753Y290500D01*
X381145Y287139D01*
X381145Y268261D01*
X379753Y264900D01*
X377180Y262327D01*
X373819Y260935D01*
X370181Y260935D01*
G37*
%LPD*%
%LPC*%
G36*
X445824Y942553D02*
X445824Y942553D01*
X441249Y944448D01*
X437748Y947949D01*
X435853Y952524D01*
X435853Y957476D01*
X437748Y962051D01*
X441249Y965552D01*
X445824Y967447D01*
X450776Y967447D01*
X455351Y965552D01*
X458852Y962051D01*
X460747Y957476D01*
X460747Y952524D01*
X458852Y947949D01*
X455351Y944448D01*
X450776Y942553D01*
X445824Y942553D01*
G37*
%LPD*%
%LPC*%
G36*
X523924Y221153D02*
X523924Y221153D01*
X519349Y223048D01*
X515848Y226549D01*
X513953Y231124D01*
X513953Y236076D01*
X515848Y240651D01*
X519349Y244152D01*
X523924Y246047D01*
X528876Y246047D01*
X533451Y244152D01*
X536952Y240651D01*
X538847Y236076D01*
X538847Y231124D01*
X536952Y226549D01*
X533451Y223048D01*
X528876Y221153D01*
X523924Y221153D01*
G37*
%LPD*%
%LPC*%
G36*
X148224Y32553D02*
X148224Y32553D01*
X143649Y34448D01*
X140148Y37949D01*
X138253Y42524D01*
X138253Y47476D01*
X140148Y52051D01*
X143649Y55552D01*
X148224Y57447D01*
X153176Y57447D01*
X157751Y55552D01*
X161252Y52051D01*
X163147Y47476D01*
X163147Y42524D01*
X161252Y37949D01*
X157751Y34448D01*
X153176Y32553D01*
X148224Y32553D01*
G37*
%LPD*%
%LPC*%
G36*
X452024Y32553D02*
X452024Y32553D01*
X447449Y34448D01*
X443948Y37949D01*
X442053Y42524D01*
X442053Y47476D01*
X443948Y52051D01*
X447449Y55552D01*
X452024Y57447D01*
X456976Y57447D01*
X461551Y55552D01*
X465052Y52051D01*
X466947Y47476D01*
X466947Y42524D01*
X465052Y37949D01*
X461551Y34448D01*
X456976Y32553D01*
X452024Y32553D01*
G37*
%LPD*%
%LPC*%
G36*
X149624Y942553D02*
X149624Y942553D01*
X145049Y944448D01*
X141548Y947949D01*
X139653Y952524D01*
X139653Y957476D01*
X141548Y962051D01*
X145049Y965552D01*
X149624Y967447D01*
X154576Y967447D01*
X159151Y965552D01*
X162652Y962051D01*
X164547Y957476D01*
X164547Y952524D01*
X162652Y947949D01*
X159151Y944448D01*
X154576Y942553D01*
X149624Y942553D01*
G37*
%LPD*%
%LPC*%
G36*
X523924Y186153D02*
X523924Y186153D01*
X519349Y188048D01*
X515848Y191549D01*
X513953Y196124D01*
X513953Y201076D01*
X515848Y205651D01*
X519349Y209152D01*
X523924Y211047D01*
X528876Y211047D01*
X533451Y209152D01*
X536952Y205651D01*
X538847Y201076D01*
X538847Y196124D01*
X536952Y191549D01*
X533451Y188048D01*
X528876Y186153D01*
X523924Y186153D01*
G37*
%LPD*%
%LPC*%
G36*
X296927Y220277D02*
X296927Y220277D01*
X292913Y221940D01*
X289840Y225013D01*
X288177Y229027D01*
X288177Y233373D01*
X289840Y237387D01*
X292913Y240460D01*
X296927Y242123D01*
X301273Y242123D01*
X305287Y240460D01*
X308360Y237387D01*
X310023Y233373D01*
X310023Y229027D01*
X308360Y225013D01*
X305287Y221940D01*
X301273Y220277D01*
X296927Y220277D01*
G37*
%LPD*%
%LPC*%
G36*
X237727Y41277D02*
X237727Y41277D01*
X233713Y42940D01*
X230640Y46013D01*
X228977Y50027D01*
X228977Y54373D01*
X230640Y58387D01*
X233713Y61460D01*
X237727Y63123D01*
X242073Y63123D01*
X246087Y61460D01*
X249160Y58387D01*
X250823Y54373D01*
X250823Y50027D01*
X249160Y46013D01*
X246087Y42940D01*
X242073Y41277D01*
X237727Y41277D01*
G37*
%LPD*%
%LPC*%
G36*
X327727Y39877D02*
X327727Y39877D01*
X323713Y41540D01*
X320640Y44613D01*
X318977Y48627D01*
X318977Y52973D01*
X320640Y56987D01*
X323713Y60060D01*
X327727Y61723D01*
X332073Y61723D01*
X336087Y60060D01*
X339160Y56987D01*
X340823Y52973D01*
X340823Y48627D01*
X339160Y44613D01*
X336087Y41540D01*
X332073Y39877D01*
X327727Y39877D01*
G37*
%LPD*%
%LPC*%
G36*
X471427Y289177D02*
X471427Y289177D01*
X467413Y290840D01*
X464340Y293913D01*
X462677Y297927D01*
X462677Y302273D01*
X464340Y306287D01*
X467413Y309360D01*
X471427Y311023D01*
X475773Y311023D01*
X479787Y309360D01*
X482860Y306287D01*
X484523Y302273D01*
X484523Y297927D01*
X482860Y293913D01*
X479787Y290840D01*
X475773Y289177D01*
X471427Y289177D01*
G37*
%LPD*%
%LPC*%
G36*
X327727Y14477D02*
X327727Y14477D01*
X323713Y16140D01*
X320640Y19213D01*
X318977Y23227D01*
X318977Y27573D01*
X320640Y31587D01*
X323713Y34660D01*
X327727Y36323D01*
X332073Y36323D01*
X336087Y34660D01*
X339160Y31587D01*
X340823Y27573D01*
X340823Y23227D01*
X339160Y19213D01*
X336087Y16140D01*
X332073Y14477D01*
X327727Y14477D01*
G37*
%LPD*%
%LPC*%
G36*
X237727Y15877D02*
X237727Y15877D01*
X233713Y17540D01*
X230640Y20613D01*
X228977Y24627D01*
X228977Y28973D01*
X230640Y32987D01*
X233713Y36060D01*
X237727Y37723D01*
X242073Y37723D01*
X246087Y36060D01*
X249160Y32987D01*
X250823Y28973D01*
X250823Y24627D01*
X249160Y20613D01*
X246087Y17540D01*
X242073Y15877D01*
X237727Y15877D01*
G37*
%LPD*%
%LPC*%
G36*
X296927Y194877D02*
X296927Y194877D01*
X292913Y196540D01*
X289840Y199613D01*
X288177Y203627D01*
X288177Y207973D01*
X289840Y211987D01*
X292913Y215060D01*
X296927Y216723D01*
X301273Y216723D01*
X305287Y215060D01*
X308360Y211987D01*
X310023Y207973D01*
X310023Y203627D01*
X308360Y199613D01*
X305287Y196540D01*
X301273Y194877D01*
X296927Y194877D01*
G37*
%LPD*%
%LPC*%
G36*
X211986Y446985D02*
X211986Y446985D01*
X205885Y453086D01*
X205885Y461714D01*
X211986Y467815D01*
X220614Y467815D01*
X226715Y461714D01*
X226715Y453086D01*
X220614Y446985D01*
X211986Y446985D01*
G37*
%LPD*%
%LPC*%
G36*
X174686Y614485D02*
X174686Y614485D01*
X168585Y620586D01*
X168585Y629214D01*
X174686Y635315D01*
X183314Y635315D01*
X189415Y629214D01*
X189415Y620586D01*
X183314Y614485D01*
X174686Y614485D01*
G37*
%LPD*%
%LPC*%
G36*
X174686Y689485D02*
X174686Y689485D01*
X168585Y695586D01*
X168585Y704214D01*
X174686Y710315D01*
X183314Y710315D01*
X189415Y704214D01*
X189415Y695586D01*
X183314Y689485D01*
X174686Y689485D01*
G37*
%LPD*%
%LPC*%
G36*
X211986Y497785D02*
X211986Y497785D01*
X205885Y503886D01*
X205885Y512514D01*
X211986Y518615D01*
X220614Y518615D01*
X226715Y512514D01*
X226715Y503886D01*
X220614Y497785D01*
X211986Y497785D01*
G37*
%LPD*%
%LPC*%
G36*
X174686Y589485D02*
X174686Y589485D01*
X168585Y595586D01*
X168585Y604214D01*
X174686Y610315D01*
X183314Y610315D01*
X189415Y604214D01*
X189415Y595586D01*
X183314Y589485D01*
X174686Y589485D01*
G37*
%LPD*%
%LPC*%
G36*
X211986Y345385D02*
X211986Y345385D01*
X205885Y351486D01*
X205885Y360114D01*
X211986Y366215D01*
X220614Y366215D01*
X226715Y360114D01*
X226715Y351486D01*
X220614Y345385D01*
X211986Y345385D01*
G37*
%LPD*%
%LPC*%
G36*
X211986Y523185D02*
X211986Y523185D01*
X205885Y529286D01*
X205885Y537914D01*
X211986Y544015D01*
X220614Y544015D01*
X226715Y537914D01*
X226715Y529286D01*
X220614Y523185D01*
X211986Y523185D01*
G37*
%LPD*%
%LPC*%
G36*
X174686Y739485D02*
X174686Y739485D01*
X168585Y745586D01*
X168585Y754214D01*
X174686Y760315D01*
X183314Y760315D01*
X189415Y754214D01*
X189415Y745586D01*
X183314Y739485D01*
X174686Y739485D01*
G37*
%LPD*%
%LPC*%
G36*
X116628Y251385D02*
X116628Y251385D01*
X112800Y252971D01*
X109871Y255900D01*
X108285Y259728D01*
X108285Y263872D01*
X109871Y267700D01*
X112800Y270629D01*
X116628Y272215D01*
X120772Y272215D01*
X124600Y270629D01*
X127529Y267700D01*
X129115Y263872D01*
X129115Y259728D01*
X127529Y255900D01*
X124600Y252971D01*
X120772Y251385D01*
X116628Y251385D01*
G37*
%LPD*%
%LPC*%
G36*
X329146Y805409D02*
X329146Y805409D01*
X323343Y811212D01*
X323343Y819420D01*
X329146Y825223D01*
X337354Y825223D01*
X343157Y819420D01*
X343157Y811212D01*
X337354Y805409D01*
X329146Y805409D01*
G37*
%LPD*%
%LPC*%
G36*
X445755Y229220D02*
X445755Y229220D01*
X442160Y230709D01*
X439409Y233460D01*
X437920Y237055D01*
X437920Y240945D01*
X439409Y244540D01*
X442160Y247291D01*
X445755Y248780D01*
X449645Y248780D01*
X453240Y247291D01*
X455991Y244540D01*
X457480Y240945D01*
X457480Y237055D01*
X455991Y233460D01*
X453240Y230709D01*
X449645Y229220D01*
X445755Y229220D01*
G37*
%LPD*%
%LPC*%
G36*
X467055Y201720D02*
X467055Y201720D01*
X463460Y203209D01*
X460709Y205960D01*
X459220Y209555D01*
X459220Y213445D01*
X460709Y217040D01*
X463460Y219791D01*
X467055Y221280D01*
X470945Y221280D01*
X474540Y219791D01*
X477291Y217040D01*
X478780Y213445D01*
X478780Y209555D01*
X477291Y205960D01*
X474540Y203209D01*
X470945Y201720D01*
X467055Y201720D01*
G37*
%LPD*%
%LPC*%
G36*
X325705Y219220D02*
X325705Y219220D01*
X322110Y220709D01*
X319359Y223460D01*
X317870Y227055D01*
X317870Y230945D01*
X319359Y234540D01*
X322110Y237291D01*
X325705Y238780D01*
X329595Y238780D01*
X333190Y237291D01*
X335941Y234540D01*
X337430Y230945D01*
X337430Y227055D01*
X335941Y223460D01*
X333190Y220709D01*
X329595Y219220D01*
X325705Y219220D01*
G37*
%LPD*%
%LPC*%
G36*
X442232Y741309D02*
X442232Y741309D01*
X438964Y742663D01*
X436463Y745164D01*
X435109Y748432D01*
X435109Y751968D01*
X436463Y755236D01*
X438964Y757737D01*
X442232Y759091D01*
X445768Y759091D01*
X449036Y757737D01*
X451537Y755236D01*
X452891Y751968D01*
X452891Y748432D01*
X451537Y745164D01*
X449036Y742663D01*
X445768Y741309D01*
X442232Y741309D01*
G37*
%LPD*%
%LPC*%
G36*
X239032Y741309D02*
X239032Y741309D01*
X235764Y742663D01*
X233263Y745164D01*
X231909Y748432D01*
X231909Y751968D01*
X233263Y755236D01*
X235764Y757737D01*
X239032Y759091D01*
X242568Y759091D01*
X245836Y757737D01*
X248337Y755236D01*
X249691Y751968D01*
X249691Y748432D01*
X248337Y745164D01*
X245836Y742663D01*
X242568Y741309D01*
X239032Y741309D01*
G37*
%LPD*%
%LPC*%
G36*
X213632Y741309D02*
X213632Y741309D01*
X210364Y742663D01*
X207863Y745164D01*
X206509Y748432D01*
X206509Y751968D01*
X207863Y755236D01*
X210364Y757737D01*
X213632Y759091D01*
X217168Y759091D01*
X220436Y757737D01*
X222937Y755236D01*
X224291Y751968D01*
X224291Y748432D01*
X222937Y745164D01*
X220436Y742663D01*
X217168Y741309D01*
X213632Y741309D01*
G37*
%LPD*%
%LPC*%
G36*
X518432Y741309D02*
X518432Y741309D01*
X515164Y742663D01*
X512663Y745164D01*
X511309Y748432D01*
X511309Y751968D01*
X512663Y755236D01*
X515164Y757737D01*
X518432Y759091D01*
X521968Y759091D01*
X525236Y757737D01*
X527737Y755236D01*
X529091Y751968D01*
X529091Y748432D01*
X527737Y745164D01*
X525236Y742663D01*
X521968Y741309D01*
X518432Y741309D01*
G37*
%LPD*%
%LPC*%
G36*
X213632Y715909D02*
X213632Y715909D01*
X210364Y717263D01*
X207863Y719764D01*
X206509Y723032D01*
X206509Y726568D01*
X207863Y729836D01*
X210364Y732337D01*
X213632Y733691D01*
X217168Y733691D01*
X220436Y732337D01*
X222937Y729836D01*
X224291Y726568D01*
X224291Y723032D01*
X222937Y719764D01*
X220436Y717263D01*
X217168Y715909D01*
X213632Y715909D01*
G37*
%LPD*%
%LPC*%
G36*
X213632Y639709D02*
X213632Y639709D01*
X210364Y641063D01*
X207863Y643564D01*
X206509Y646832D01*
X206509Y650368D01*
X207863Y653636D01*
X210364Y656137D01*
X213632Y657491D01*
X217168Y657491D01*
X220436Y656137D01*
X222937Y653636D01*
X224291Y650368D01*
X224291Y646832D01*
X222937Y643564D01*
X220436Y641063D01*
X217168Y639709D01*
X213632Y639709D01*
G37*
%LPD*%
%LPC*%
G36*
X213632Y614309D02*
X213632Y614309D01*
X210364Y615663D01*
X207863Y618164D01*
X206509Y621432D01*
X206509Y624968D01*
X207863Y628236D01*
X210364Y630737D01*
X213632Y632091D01*
X217168Y632091D01*
X220436Y630737D01*
X222937Y628236D01*
X224291Y624968D01*
X224291Y621432D01*
X222937Y618164D01*
X220436Y615663D01*
X217168Y614309D01*
X213632Y614309D01*
G37*
%LPD*%
%LPC*%
G36*
X239032Y588909D02*
X239032Y588909D01*
X235764Y590263D01*
X233263Y592764D01*
X231909Y596032D01*
X231909Y599568D01*
X233263Y602836D01*
X235764Y605337D01*
X239032Y606691D01*
X242568Y606691D01*
X245836Y605337D01*
X248337Y602836D01*
X249691Y599568D01*
X249691Y596032D01*
X248337Y592764D01*
X245836Y590263D01*
X242568Y588909D01*
X239032Y588909D01*
G37*
%LPD*%
%LPC*%
G36*
X543832Y588909D02*
X543832Y588909D01*
X540564Y590263D01*
X538063Y592764D01*
X536709Y596032D01*
X536709Y599568D01*
X538063Y602836D01*
X540564Y605337D01*
X543832Y606691D01*
X547368Y606691D01*
X550636Y605337D01*
X553137Y602836D01*
X554491Y599568D01*
X554491Y596032D01*
X553137Y592764D01*
X550636Y590263D01*
X547368Y588909D01*
X543832Y588909D01*
G37*
%LPD*%
%LPC*%
G36*
X518432Y588909D02*
X518432Y588909D01*
X515164Y590263D01*
X512663Y592764D01*
X511309Y596032D01*
X511309Y599568D01*
X512663Y602836D01*
X515164Y605337D01*
X518432Y606691D01*
X521968Y606691D01*
X525236Y605337D01*
X527737Y602836D01*
X529091Y599568D01*
X529091Y596032D01*
X527737Y592764D01*
X525236Y590263D01*
X521968Y588909D01*
X518432Y588909D01*
G37*
%LPD*%
%LPC*%
G36*
X315232Y588909D02*
X315232Y588909D01*
X311964Y590263D01*
X309463Y592764D01*
X308109Y596032D01*
X308109Y599568D01*
X309463Y602836D01*
X311964Y605337D01*
X315232Y606691D01*
X318768Y606691D01*
X322036Y605337D01*
X324537Y602836D01*
X325891Y599568D01*
X325891Y596032D01*
X324537Y592764D01*
X322036Y590263D01*
X318768Y588909D01*
X315232Y588909D01*
G37*
%LPD*%
%LPC*%
G36*
X264432Y741309D02*
X264432Y741309D01*
X261164Y742663D01*
X258663Y745164D01*
X257309Y748432D01*
X257309Y751968D01*
X258663Y755236D01*
X261164Y757737D01*
X264432Y759091D01*
X267968Y759091D01*
X271236Y757737D01*
X273737Y755236D01*
X275091Y751968D01*
X275091Y748432D01*
X273737Y745164D01*
X271236Y742663D01*
X267968Y741309D01*
X264432Y741309D01*
G37*
%LPD*%
%LPC*%
G36*
X289832Y588909D02*
X289832Y588909D01*
X286564Y590263D01*
X284063Y592764D01*
X282709Y596032D01*
X282709Y599568D01*
X284063Y602836D01*
X286564Y605337D01*
X289832Y606691D01*
X293368Y606691D01*
X296636Y605337D01*
X299137Y602836D01*
X300491Y599568D01*
X300491Y596032D01*
X299137Y592764D01*
X296636Y590263D01*
X293368Y588909D01*
X289832Y588909D01*
G37*
%LPD*%
%LPC*%
G36*
X213632Y588909D02*
X213632Y588909D01*
X210364Y590263D01*
X207863Y592764D01*
X206509Y596032D01*
X206509Y599568D01*
X207863Y602836D01*
X210364Y605337D01*
X213632Y606691D01*
X217168Y606691D01*
X220436Y605337D01*
X222937Y602836D01*
X224291Y599568D01*
X224291Y596032D01*
X222937Y592764D01*
X220436Y590263D01*
X217168Y588909D01*
X213632Y588909D01*
G37*
%LPD*%
%LPC*%
G36*
X264432Y588909D02*
X264432Y588909D01*
X261164Y590263D01*
X258663Y592764D01*
X257309Y596032D01*
X257309Y599568D01*
X258663Y602836D01*
X261164Y605337D01*
X264432Y606691D01*
X267968Y606691D01*
X271236Y605337D01*
X273737Y602836D01*
X275091Y599568D01*
X275091Y596032D01*
X273737Y592764D01*
X271236Y590263D01*
X267968Y588909D01*
X264432Y588909D01*
G37*
%LPD*%
%LPC*%
G36*
X416832Y741309D02*
X416832Y741309D01*
X413564Y742663D01*
X411063Y745164D01*
X409709Y748432D01*
X409709Y751968D01*
X411063Y755236D01*
X413564Y757737D01*
X416832Y759091D01*
X420368Y759091D01*
X423636Y757737D01*
X426137Y755236D01*
X427491Y751968D01*
X427491Y748432D01*
X426137Y745164D01*
X423636Y742663D01*
X420368Y741309D01*
X416832Y741309D01*
G37*
%LPD*%
%LPC*%
G36*
X493032Y741309D02*
X493032Y741309D01*
X489764Y742663D01*
X487263Y745164D01*
X485909Y748432D01*
X485909Y751968D01*
X487263Y755236D01*
X489764Y757737D01*
X493032Y759091D01*
X496568Y759091D01*
X499836Y757737D01*
X502337Y755236D01*
X503691Y751968D01*
X503691Y748432D01*
X502337Y745164D01*
X499836Y742663D01*
X496568Y741309D01*
X493032Y741309D01*
G37*
%LPD*%
%LPC*%
G36*
X158223Y387923D02*
X158223Y387923D01*
X158223Y397831D01*
X166490Y397831D01*
X168267Y397549D01*
X169978Y396993D01*
X171581Y396176D01*
X173037Y395119D01*
X174309Y393847D01*
X175366Y392391D01*
X176183Y390788D01*
X176739Y389077D01*
X176922Y387923D01*
X158223Y387923D01*
G37*
%LPD*%
%LPC*%
G36*
X136478Y387923D02*
X136478Y387923D01*
X136661Y389077D01*
X137217Y390788D01*
X138034Y392391D01*
X139091Y393847D01*
X140363Y395119D01*
X141819Y396176D01*
X143422Y396993D01*
X145133Y397549D01*
X146910Y397831D01*
X155177Y397831D01*
X155177Y387923D01*
X136478Y387923D01*
G37*
%LPD*%
%LPC*%
G36*
X158223Y374969D02*
X158223Y374969D01*
X158223Y384877D01*
X176922Y384877D01*
X176739Y383723D01*
X176183Y382012D01*
X175366Y380409D01*
X174309Y378953D01*
X173037Y377681D01*
X171581Y376624D01*
X169978Y375807D01*
X168267Y375251D01*
X166490Y374969D01*
X158223Y374969D01*
G37*
%LPD*%
%LPC*%
G36*
X146910Y374969D02*
X146910Y374969D01*
X145133Y375251D01*
X143422Y375807D01*
X141819Y376624D01*
X140363Y377681D01*
X139091Y378953D01*
X138034Y380409D01*
X137217Y382012D01*
X136661Y383723D01*
X136478Y384877D01*
X155177Y384877D01*
X155177Y374969D01*
X146910Y374969D01*
G37*
%LPD*%
%LPC*%
G36*
X398923Y279223D02*
X398923Y279223D01*
X398923Y295366D01*
X399779Y295231D01*
X401300Y294736D01*
X402725Y294010D01*
X404019Y293070D01*
X405150Y291939D01*
X406090Y290645D01*
X406816Y289220D01*
X407311Y287699D01*
X407561Y286120D01*
X407561Y279223D01*
X398923Y279223D01*
G37*
%LPD*%
%LPC*%
G36*
X528123Y95223D02*
X528123Y95223D01*
X528123Y103861D01*
X535020Y103861D01*
X536599Y103611D01*
X538120Y103116D01*
X539545Y102390D01*
X540839Y101450D01*
X541970Y100319D01*
X542910Y99025D01*
X543636Y97600D01*
X544131Y96079D01*
X544266Y95223D01*
X528123Y95223D01*
G37*
%LPD*%
%LPC*%
G36*
X38123Y846623D02*
X38123Y846623D01*
X38123Y855261D01*
X45020Y855261D01*
X46599Y855011D01*
X48120Y854516D01*
X49545Y853790D01*
X50839Y852850D01*
X51970Y851719D01*
X52910Y850425D01*
X53636Y849000D01*
X54131Y847479D01*
X54266Y846623D01*
X38123Y846623D01*
G37*
%LPD*%
%LPC*%
G36*
X528123Y840923D02*
X528123Y840923D01*
X528123Y849561D01*
X535020Y849561D01*
X536599Y849311D01*
X538120Y848816D01*
X539545Y848090D01*
X540839Y847150D01*
X541970Y846019D01*
X542910Y844725D01*
X543636Y843300D01*
X544131Y841779D01*
X544266Y840923D01*
X528123Y840923D01*
G37*
%LPD*%
%LPC*%
G36*
X38123Y99523D02*
X38123Y99523D01*
X38123Y108161D01*
X45020Y108161D01*
X46599Y107911D01*
X48120Y107416D01*
X49545Y106690D01*
X50839Y105750D01*
X51970Y104619D01*
X52910Y103325D01*
X53636Y101900D01*
X54131Y100379D01*
X54266Y99523D01*
X38123Y99523D01*
G37*
%LPD*%
%LPC*%
G36*
X508934Y95223D02*
X508934Y95223D01*
X509069Y96079D01*
X509564Y97600D01*
X510290Y99025D01*
X511230Y100319D01*
X512361Y101450D01*
X513655Y102390D01*
X515080Y103116D01*
X516601Y103611D01*
X518180Y103861D01*
X525077Y103861D01*
X525077Y95223D01*
X508934Y95223D01*
G37*
%LPD*%
%LPC*%
G36*
X18934Y99523D02*
X18934Y99523D01*
X19069Y100379D01*
X19564Y101900D01*
X20290Y103325D01*
X21230Y104619D01*
X22361Y105750D01*
X23655Y106690D01*
X25080Y107416D01*
X26601Y107911D01*
X28180Y108161D01*
X35077Y108161D01*
X35077Y99523D01*
X18934Y99523D01*
G37*
%LPD*%
%LPC*%
G36*
X18934Y846623D02*
X18934Y846623D01*
X19069Y847479D01*
X19564Y849000D01*
X20290Y850425D01*
X21230Y851719D01*
X22361Y852850D01*
X23655Y853790D01*
X25080Y854516D01*
X26601Y855011D01*
X28180Y855261D01*
X35077Y855261D01*
X35077Y846623D01*
X18934Y846623D01*
G37*
%LPD*%
%LPC*%
G36*
X508934Y840923D02*
X508934Y840923D01*
X509069Y841779D01*
X509564Y843300D01*
X510290Y844725D01*
X511230Y846019D01*
X512361Y847150D01*
X513655Y848090D01*
X515080Y848816D01*
X516601Y849311D01*
X518180Y849561D01*
X525077Y849561D01*
X525077Y840923D01*
X508934Y840923D01*
G37*
%LPD*%
%LPC*%
G36*
X398923Y276177D02*
X398923Y276177D01*
X407561Y276177D01*
X407561Y269280D01*
X407311Y267701D01*
X406816Y266180D01*
X406090Y264755D01*
X405150Y263461D01*
X404019Y262330D01*
X402725Y261390D01*
X401300Y260664D01*
X399779Y260169D01*
X398923Y260034D01*
X398923Y276177D01*
G37*
%LPD*%
%LPC*%
G36*
X38123Y87839D02*
X38123Y87839D01*
X38123Y96477D01*
X54266Y96477D01*
X54131Y95621D01*
X53636Y94100D01*
X52910Y92675D01*
X51970Y91381D01*
X50839Y90250D01*
X49545Y89310D01*
X48120Y88584D01*
X46599Y88089D01*
X45020Y87839D01*
X38123Y87839D01*
G37*
%LPD*%
%LPC*%
G36*
X38123Y834939D02*
X38123Y834939D01*
X38123Y843577D01*
X54266Y843577D01*
X54131Y842721D01*
X53636Y841200D01*
X52910Y839775D01*
X51970Y838481D01*
X50839Y837350D01*
X49545Y836410D01*
X48120Y835684D01*
X46599Y835189D01*
X45020Y834939D01*
X38123Y834939D01*
G37*
%LPD*%
%LPC*%
G36*
X528123Y829239D02*
X528123Y829239D01*
X528123Y837877D01*
X544266Y837877D01*
X544131Y837021D01*
X543636Y835500D01*
X542910Y834075D01*
X541970Y832781D01*
X540839Y831650D01*
X539545Y830710D01*
X538120Y829984D01*
X536599Y829489D01*
X535020Y829239D01*
X528123Y829239D01*
G37*
%LPD*%
%LPC*%
G36*
X528123Y83539D02*
X528123Y83539D01*
X528123Y92177D01*
X544266Y92177D01*
X544131Y91321D01*
X543636Y89800D01*
X542910Y88375D01*
X541970Y87081D01*
X540839Y85950D01*
X539545Y85010D01*
X538120Y84284D01*
X536599Y83789D01*
X535020Y83539D01*
X528123Y83539D01*
G37*
%LPD*%
%LPC*%
G36*
X387239Y279223D02*
X387239Y279223D01*
X387239Y286120D01*
X387489Y287699D01*
X387984Y289220D01*
X388710Y290645D01*
X389650Y291939D01*
X390781Y293070D01*
X392075Y294010D01*
X393500Y294736D01*
X395021Y295231D01*
X395877Y295366D01*
X395877Y279223D01*
X387239Y279223D01*
G37*
%LPD*%
%LPC*%
G36*
X395021Y260169D02*
X395021Y260169D01*
X393500Y260664D01*
X392075Y261390D01*
X390781Y262330D01*
X389650Y263461D01*
X388710Y264755D01*
X387984Y266180D01*
X387489Y267701D01*
X387239Y269280D01*
X387239Y276177D01*
X395877Y276177D01*
X395877Y260034D01*
X395021Y260169D01*
G37*
%LPD*%
%LPC*%
G36*
X518180Y829239D02*
X518180Y829239D01*
X516601Y829489D01*
X515080Y829984D01*
X513655Y830710D01*
X512361Y831650D01*
X511230Y832781D01*
X510290Y834075D01*
X509564Y835500D01*
X509069Y837021D01*
X508934Y837877D01*
X525077Y837877D01*
X525077Y829239D01*
X518180Y829239D01*
G37*
%LPD*%
%LPC*%
G36*
X518180Y83539D02*
X518180Y83539D01*
X516601Y83789D01*
X515080Y84284D01*
X513655Y85010D01*
X512361Y85950D01*
X511230Y87081D01*
X510290Y88375D01*
X509564Y89800D01*
X509069Y91321D01*
X508934Y92177D01*
X525077Y92177D01*
X525077Y83539D01*
X518180Y83539D01*
G37*
%LPD*%
%LPC*%
G36*
X28180Y87839D02*
X28180Y87839D01*
X26601Y88089D01*
X25080Y88584D01*
X23655Y89310D01*
X22361Y90250D01*
X21230Y91381D01*
X20290Y92675D01*
X19564Y94100D01*
X19069Y95621D01*
X18934Y96477D01*
X35077Y96477D01*
X35077Y87839D01*
X28180Y87839D01*
G37*
%LPD*%
%LPC*%
G36*
X28180Y834939D02*
X28180Y834939D01*
X26601Y835189D01*
X25080Y835684D01*
X23655Y836410D01*
X22361Y837350D01*
X21230Y838481D01*
X20290Y839775D01*
X19564Y841200D01*
X19069Y842721D01*
X18934Y843577D01*
X35077Y843577D01*
X35077Y834939D01*
X28180Y834939D01*
G37*
%LPD*%
%LPC*%
G36*
X47923Y200877D02*
X47923Y200877D01*
X59789Y200877D01*
X59531Y199248D01*
X58876Y197232D01*
X57914Y195344D01*
X56669Y193630D01*
X55170Y192131D01*
X53456Y190886D01*
X51568Y189924D01*
X49552Y189269D01*
X47923Y189011D01*
X47923Y200877D01*
G37*
%LPD*%
%LPC*%
G36*
X43248Y189269D02*
X43248Y189269D01*
X41232Y189924D01*
X39344Y190886D01*
X37630Y192131D01*
X36131Y193630D01*
X34886Y195344D01*
X33924Y197232D01*
X33269Y199248D01*
X33011Y200877D01*
X44877Y200877D01*
X44877Y189011D01*
X43248Y189269D01*
G37*
%LPD*%
%LPC*%
G36*
X331423Y77723D02*
X331423Y77723D01*
X331423Y88046D01*
X332696Y87845D01*
X334483Y87264D01*
X336157Y86411D01*
X337678Y85306D01*
X339006Y83978D01*
X340111Y82457D01*
X340964Y80783D01*
X341545Y78996D01*
X341746Y77723D01*
X331423Y77723D01*
G37*
%LPD*%
%LPC*%
G36*
X395323Y162523D02*
X395323Y162523D01*
X395323Y172846D01*
X396596Y172645D01*
X398383Y172064D01*
X400057Y171211D01*
X401578Y170106D01*
X402906Y168778D01*
X404011Y167257D01*
X404864Y165583D01*
X405445Y163796D01*
X405646Y162523D01*
X395323Y162523D01*
G37*
%LPD*%
%LPC*%
G36*
X181323Y892423D02*
X181323Y892423D01*
X181323Y902746D01*
X182596Y902545D01*
X184383Y901964D01*
X186057Y901111D01*
X187578Y900006D01*
X188906Y898678D01*
X190011Y897157D01*
X190864Y895483D01*
X191445Y893696D01*
X191646Y892423D01*
X181323Y892423D01*
G37*
%LPD*%
%LPC*%
G36*
X241423Y79123D02*
X241423Y79123D01*
X241423Y89446D01*
X242696Y89245D01*
X244483Y88664D01*
X246157Y87811D01*
X247678Y86706D01*
X249006Y85378D01*
X250111Y83857D01*
X250964Y82183D01*
X251545Y80396D01*
X251746Y79123D01*
X241423Y79123D01*
G37*
%LPD*%
%LPC*%
G36*
X391223Y892523D02*
X391223Y892523D01*
X391223Y902846D01*
X392496Y902645D01*
X394283Y902064D01*
X395957Y901211D01*
X397478Y900106D01*
X398806Y898778D01*
X399911Y897257D01*
X400764Y895583D01*
X401345Y893796D01*
X401546Y892523D01*
X391223Y892523D01*
G37*
%LPD*%
%LPC*%
G36*
X473523Y266623D02*
X473523Y266623D01*
X473523Y276946D01*
X474796Y276745D01*
X476583Y276164D01*
X478257Y275311D01*
X479778Y274206D01*
X481106Y272878D01*
X482211Y271357D01*
X483064Y269683D01*
X483645Y267896D01*
X483846Y266623D01*
X473523Y266623D01*
G37*
%LPD*%
%LPC*%
G36*
X331423Y74677D02*
X331423Y74677D01*
X341746Y74677D01*
X341545Y73404D01*
X340964Y71617D01*
X340111Y69943D01*
X339006Y68422D01*
X337678Y67094D01*
X336157Y65989D01*
X334483Y65136D01*
X332696Y64555D01*
X331423Y64354D01*
X331423Y74677D01*
G37*
%LPD*%
%LPC*%
G36*
X377854Y892523D02*
X377854Y892523D01*
X378055Y893796D01*
X378636Y895583D01*
X379489Y897257D01*
X380594Y898778D01*
X381922Y900106D01*
X383443Y901211D01*
X385117Y902064D01*
X386904Y902645D01*
X388177Y902846D01*
X388177Y892523D01*
X377854Y892523D01*
G37*
%LPD*%
%LPC*%
G36*
X167954Y892423D02*
X167954Y892423D01*
X168155Y893696D01*
X168736Y895483D01*
X169589Y897157D01*
X170694Y898678D01*
X172022Y900006D01*
X173543Y901111D01*
X175217Y901964D01*
X177004Y902545D01*
X178277Y902746D01*
X178277Y892423D01*
X167954Y892423D01*
G37*
%LPD*%
%LPC*%
G36*
X391223Y889477D02*
X391223Y889477D01*
X401546Y889477D01*
X401345Y888204D01*
X400764Y886417D01*
X399911Y884743D01*
X398806Y883222D01*
X397478Y881894D01*
X395957Y880789D01*
X394283Y879936D01*
X392496Y879355D01*
X391223Y879154D01*
X391223Y889477D01*
G37*
%LPD*%
%LPC*%
G36*
X473523Y263577D02*
X473523Y263577D01*
X483846Y263577D01*
X483645Y262304D01*
X483064Y260517D01*
X482211Y258843D01*
X481106Y257322D01*
X479778Y255994D01*
X478257Y254889D01*
X476583Y254036D01*
X474796Y253455D01*
X473523Y253254D01*
X473523Y263577D01*
G37*
%LPD*%
%LPC*%
G36*
X381954Y162523D02*
X381954Y162523D01*
X382155Y163796D01*
X382736Y165583D01*
X383589Y167257D01*
X384694Y168778D01*
X386022Y170106D01*
X387543Y171211D01*
X389217Y172064D01*
X391004Y172645D01*
X392277Y172846D01*
X392277Y162523D01*
X381954Y162523D01*
G37*
%LPD*%
%LPC*%
G36*
X287254Y131123D02*
X287254Y131123D01*
X287455Y132396D01*
X288036Y134183D01*
X288889Y135857D01*
X289994Y137378D01*
X291322Y138706D01*
X292843Y139811D01*
X294517Y140664D01*
X296304Y141245D01*
X297577Y141446D01*
X297577Y131123D01*
X287254Y131123D01*
G37*
%LPD*%
%LPC*%
G36*
X241423Y76077D02*
X241423Y76077D01*
X251746Y76077D01*
X251545Y74804D01*
X250964Y73017D01*
X250111Y71343D01*
X249006Y69822D01*
X247678Y68494D01*
X246157Y67389D01*
X244483Y66536D01*
X242696Y65955D01*
X241423Y65754D01*
X241423Y76077D01*
G37*
%LPD*%
%LPC*%
G36*
X318054Y77723D02*
X318054Y77723D01*
X318255Y78996D01*
X318836Y80783D01*
X319689Y82457D01*
X320794Y83978D01*
X322122Y85306D01*
X323643Y86411D01*
X325317Y87264D01*
X327104Y87845D01*
X328377Y88046D01*
X328377Y77723D01*
X318054Y77723D01*
G37*
%LPD*%
%LPC*%
G36*
X460154Y266623D02*
X460154Y266623D01*
X460355Y267896D01*
X460936Y269683D01*
X461789Y271357D01*
X462894Y272878D01*
X464222Y274206D01*
X465743Y275311D01*
X467417Y276164D01*
X469204Y276745D01*
X470477Y276946D01*
X470477Y266623D01*
X460154Y266623D01*
G37*
%LPD*%
%LPC*%
G36*
X228054Y79123D02*
X228054Y79123D01*
X228255Y80396D01*
X228836Y82183D01*
X229689Y83857D01*
X230794Y85378D01*
X232122Y86706D01*
X233643Y87811D01*
X235317Y88664D01*
X237104Y89245D01*
X238377Y89446D01*
X238377Y79123D01*
X228054Y79123D01*
G37*
%LPD*%
%LPC*%
G36*
X162754Y148023D02*
X162754Y148023D01*
X162955Y149296D01*
X163536Y151083D01*
X164389Y152757D01*
X165494Y154278D01*
X166822Y155606D01*
X168343Y156711D01*
X170017Y157564D01*
X171804Y158145D01*
X173077Y158346D01*
X173077Y148023D01*
X162754Y148023D01*
G37*
%LPD*%
%LPC*%
G36*
X181323Y889377D02*
X181323Y889377D01*
X191646Y889377D01*
X191445Y888104D01*
X190864Y886317D01*
X190011Y884643D01*
X188906Y883122D01*
X187578Y881794D01*
X186057Y880689D01*
X184383Y879836D01*
X182596Y879255D01*
X181323Y879054D01*
X181323Y889377D01*
G37*
%LPD*%
%LPC*%
G36*
X395323Y159477D02*
X395323Y159477D01*
X405646Y159477D01*
X405445Y158204D01*
X404864Y156417D01*
X404011Y154743D01*
X402906Y153222D01*
X401578Y151894D01*
X400057Y150789D01*
X398383Y149936D01*
X396596Y149355D01*
X395323Y149154D01*
X395323Y159477D01*
G37*
%LPD*%
%LPC*%
G36*
X327104Y64555D02*
X327104Y64555D01*
X325317Y65136D01*
X323643Y65989D01*
X322122Y67094D01*
X320794Y68422D01*
X319689Y69943D01*
X318836Y71617D01*
X318255Y73404D01*
X318054Y74677D01*
X328377Y74677D01*
X328377Y64354D01*
X327104Y64555D01*
G37*
%LPD*%
%LPC*%
G36*
X391004Y149355D02*
X391004Y149355D01*
X389217Y149936D01*
X387543Y150789D01*
X386022Y151894D01*
X384694Y153222D01*
X383589Y154743D01*
X382736Y156417D01*
X382155Y158204D01*
X381954Y159477D01*
X392277Y159477D01*
X392277Y149154D01*
X391004Y149355D01*
G37*
%LPD*%
%LPC*%
G36*
X171804Y134855D02*
X171804Y134855D01*
X170017Y135436D01*
X168343Y136289D01*
X166822Y137394D01*
X165494Y138722D01*
X164389Y140243D01*
X163536Y141917D01*
X162955Y143704D01*
X162754Y144977D01*
X173077Y144977D01*
X173077Y134654D01*
X171804Y134855D01*
G37*
%LPD*%
%LPC*%
G36*
X237104Y65955D02*
X237104Y65955D01*
X235317Y66536D01*
X233643Y67389D01*
X232122Y68494D01*
X230794Y69822D01*
X229689Y71343D01*
X228836Y73017D01*
X228255Y74804D01*
X228054Y76077D01*
X238377Y76077D01*
X238377Y65754D01*
X237104Y65955D01*
G37*
%LPD*%
%LPC*%
G36*
X469204Y253455D02*
X469204Y253455D01*
X467417Y254036D01*
X465743Y254889D01*
X464222Y255994D01*
X462894Y257322D01*
X461789Y258843D01*
X460936Y260517D01*
X460355Y262304D01*
X460154Y263577D01*
X470477Y263577D01*
X470477Y253254D01*
X469204Y253455D01*
G37*
%LPD*%
%LPC*%
G36*
X177004Y879255D02*
X177004Y879255D01*
X175217Y879836D01*
X173543Y880689D01*
X172022Y881794D01*
X170694Y883122D01*
X169589Y884643D01*
X168736Y886317D01*
X168155Y888104D01*
X167954Y889377D01*
X178277Y889377D01*
X178277Y879054D01*
X177004Y879255D01*
G37*
%LPD*%
%LPC*%
G36*
X386904Y879355D02*
X386904Y879355D01*
X385117Y879936D01*
X383443Y880789D01*
X381922Y881894D01*
X380594Y883222D01*
X379489Y884743D01*
X378636Y886417D01*
X378055Y888204D01*
X377854Y889477D01*
X388177Y889477D01*
X388177Y879154D01*
X386904Y879355D01*
G37*
%LPD*%
%LPC*%
G36*
X217823Y484323D02*
X217823Y484323D01*
X217823Y494231D01*
X221035Y494231D01*
X227731Y487535D01*
X227731Y484323D01*
X217823Y484323D01*
G37*
%LPD*%
%LPC*%
G36*
X180523Y651423D02*
X180523Y651423D01*
X180523Y661331D01*
X183735Y661331D01*
X190431Y654635D01*
X190431Y651423D01*
X180523Y651423D01*
G37*
%LPD*%
%LPC*%
G36*
X167569Y651423D02*
X167569Y651423D01*
X167569Y654635D01*
X174265Y661331D01*
X177477Y661331D01*
X177477Y651423D01*
X167569Y651423D01*
G37*
%LPD*%
%LPC*%
G36*
X180523Y638469D02*
X180523Y638469D01*
X180523Y648377D01*
X190431Y648377D01*
X190431Y645165D01*
X183735Y638469D01*
X180523Y638469D01*
G37*
%LPD*%
%LPC*%
G36*
X204869Y484323D02*
X204869Y484323D01*
X204869Y487535D01*
X211565Y494231D01*
X214777Y494231D01*
X214777Y484323D01*
X204869Y484323D01*
G37*
%LPD*%
%LPC*%
G36*
X217823Y471369D02*
X217823Y471369D01*
X217823Y481277D01*
X227731Y481277D01*
X227731Y478065D01*
X221035Y471369D01*
X217823Y471369D01*
G37*
%LPD*%
%LPC*%
G36*
X211565Y471369D02*
X211565Y471369D01*
X204869Y478065D01*
X204869Y481277D01*
X214777Y481277D01*
X214777Y471369D01*
X211565Y471369D01*
G37*
%LPD*%
%LPC*%
G36*
X174265Y638469D02*
X174265Y638469D01*
X167569Y645165D01*
X167569Y648377D01*
X177477Y648377D01*
X177477Y638469D01*
X174265Y638469D01*
G37*
%LPD*%
%LPC*%
G36*
X185223Y263323D02*
X185223Y263323D01*
X185223Y273132D01*
X186377Y272949D01*
X188088Y272393D01*
X189691Y271576D01*
X191147Y270519D01*
X192419Y269247D01*
X193476Y267791D01*
X194293Y266188D01*
X194849Y264477D01*
X195032Y263323D01*
X185223Y263323D01*
G37*
%LPD*%
%LPC*%
G36*
X172368Y263323D02*
X172368Y263323D01*
X172551Y264477D01*
X173107Y266188D01*
X173924Y267791D01*
X174981Y269247D01*
X176253Y270519D01*
X177709Y271576D01*
X179312Y272393D01*
X181023Y272949D01*
X182177Y273132D01*
X182177Y263323D01*
X172368Y263323D01*
G37*
%LPD*%
%LPC*%
G36*
X185223Y260277D02*
X185223Y260277D01*
X195032Y260277D01*
X194849Y259123D01*
X194293Y257412D01*
X193476Y255809D01*
X192419Y254353D01*
X191147Y253081D01*
X189691Y252024D01*
X188088Y251207D01*
X186377Y250651D01*
X185223Y250468D01*
X185223Y260277D01*
G37*
%LPD*%
%LPC*%
G36*
X181023Y250651D02*
X181023Y250651D01*
X179312Y251207D01*
X177709Y252024D01*
X176253Y253081D01*
X174981Y254353D01*
X173924Y255809D01*
X173107Y257412D01*
X172551Y259123D01*
X172368Y260277D01*
X182177Y260277D01*
X182177Y250468D01*
X181023Y250651D01*
G37*
%LPD*%
%LPC*%
G36*
X474623Y240523D02*
X474623Y240523D01*
X474623Y249689D01*
X475628Y249530D01*
X477244Y249005D01*
X478758Y248233D01*
X480133Y247234D01*
X481334Y246033D01*
X482333Y244658D01*
X483105Y243144D01*
X483630Y241528D01*
X483789Y240523D01*
X474623Y240523D01*
G37*
%LPD*%
%LPC*%
G36*
X354573Y230523D02*
X354573Y230523D01*
X354573Y239689D01*
X355578Y239530D01*
X357194Y239005D01*
X358708Y238233D01*
X360083Y237234D01*
X361284Y236033D01*
X362283Y234658D01*
X363055Y233144D01*
X363580Y231528D01*
X363739Y230523D01*
X354573Y230523D01*
G37*
%LPD*%
%LPC*%
G36*
X470523Y187623D02*
X470523Y187623D01*
X470523Y196789D01*
X471528Y196630D01*
X473144Y196105D01*
X474658Y195333D01*
X476033Y194334D01*
X477234Y193133D01*
X478233Y191758D01*
X479005Y190244D01*
X479530Y188628D01*
X479689Y187623D01*
X470523Y187623D01*
G37*
%LPD*%
%LPC*%
G36*
X342361Y230523D02*
X342361Y230523D01*
X342520Y231528D01*
X343045Y233144D01*
X343817Y234658D01*
X344816Y236033D01*
X346017Y237234D01*
X347392Y238233D01*
X348906Y239005D01*
X350522Y239530D01*
X351527Y239689D01*
X351527Y230523D01*
X342361Y230523D01*
G37*
%LPD*%
%LPC*%
G36*
X462411Y240523D02*
X462411Y240523D01*
X462570Y241528D01*
X463095Y243144D01*
X463867Y244658D01*
X464866Y246033D01*
X466067Y247234D01*
X467442Y248233D01*
X468956Y249005D01*
X470572Y249530D01*
X471577Y249689D01*
X471577Y240523D01*
X462411Y240523D01*
G37*
%LPD*%
%LPC*%
G36*
X474623Y237477D02*
X474623Y237477D01*
X483789Y237477D01*
X483630Y236472D01*
X483105Y234856D01*
X482333Y233342D01*
X481334Y231967D01*
X480133Y230766D01*
X478758Y229767D01*
X477244Y228995D01*
X475628Y228470D01*
X474623Y228311D01*
X474623Y237477D01*
G37*
%LPD*%
%LPC*%
G36*
X458311Y187623D02*
X458311Y187623D01*
X458470Y188628D01*
X458995Y190244D01*
X459767Y191758D01*
X460766Y193133D01*
X461967Y194334D01*
X463342Y195333D01*
X464856Y196105D01*
X466472Y196630D01*
X467477Y196789D01*
X467477Y187623D01*
X458311Y187623D01*
G37*
%LPD*%
%LPC*%
G36*
X470523Y184577D02*
X470523Y184577D01*
X479689Y184577D01*
X479530Y183572D01*
X479005Y181956D01*
X478233Y180442D01*
X477234Y179067D01*
X476033Y177866D01*
X474658Y176867D01*
X473144Y176095D01*
X471528Y175570D01*
X470523Y175411D01*
X470523Y184577D01*
G37*
%LPD*%
%LPC*%
G36*
X354573Y227477D02*
X354573Y227477D01*
X363739Y227477D01*
X363580Y226472D01*
X363055Y224856D01*
X362283Y223342D01*
X361284Y221967D01*
X360083Y220766D01*
X358708Y219767D01*
X357194Y218995D01*
X355578Y218470D01*
X354573Y218311D01*
X354573Y227477D01*
G37*
%LPD*%
%LPC*%
G36*
X350522Y218470D02*
X350522Y218470D01*
X348906Y218995D01*
X347392Y219767D01*
X346017Y220766D01*
X344816Y221967D01*
X343817Y223342D01*
X343045Y224856D01*
X342520Y226472D01*
X342361Y227477D01*
X351527Y227477D01*
X351527Y218311D01*
X350522Y218470D01*
G37*
%LPD*%
%LPC*%
G36*
X466472Y175570D02*
X466472Y175570D01*
X464856Y176095D01*
X463342Y176867D01*
X461967Y177866D01*
X460766Y179067D01*
X459767Y180442D01*
X458995Y181956D01*
X458470Y183572D01*
X458311Y184577D01*
X467477Y184577D01*
X467477Y175411D01*
X466472Y175570D01*
G37*
%LPD*%
%LPC*%
G36*
X470572Y228470D02*
X470572Y228470D01*
X468956Y228995D01*
X467442Y229767D01*
X466067Y230766D01*
X464866Y231967D01*
X463867Y233342D01*
X463095Y234856D01*
X462570Y236472D01*
X462411Y237477D01*
X471577Y237477D01*
X471577Y228311D01*
X470572Y228470D01*
G37*
%LPD*%
%LPC*%
G36*
X216923Y675523D02*
X216923Y675523D01*
X216923Y683789D01*
X217720Y683663D01*
X219203Y683181D01*
X220592Y682473D01*
X221854Y681556D01*
X222956Y680454D01*
X223873Y679192D01*
X224581Y677803D01*
X225063Y676320D01*
X225189Y675523D01*
X216923Y675523D01*
G37*
%LPD*%
%LPC*%
G36*
X547123Y751723D02*
X547123Y751723D01*
X547123Y759989D01*
X547920Y759863D01*
X549403Y759381D01*
X550792Y758673D01*
X552054Y757756D01*
X553156Y756654D01*
X554073Y755392D01*
X554781Y754003D01*
X555263Y752520D01*
X555389Y751723D01*
X547123Y751723D01*
G37*
%LPD*%
%LPC*%
G36*
X216923Y672477D02*
X216923Y672477D01*
X225189Y672477D01*
X225063Y671680D01*
X224581Y670197D01*
X223873Y668808D01*
X222956Y667546D01*
X221854Y666444D01*
X220592Y665527D01*
X219203Y664819D01*
X217720Y664337D01*
X216923Y664211D01*
X216923Y672477D01*
G37*
%LPD*%
%LPC*%
G36*
X547123Y748677D02*
X547123Y748677D01*
X555389Y748677D01*
X555263Y747880D01*
X554781Y746397D01*
X554073Y745008D01*
X553156Y743746D01*
X552054Y742644D01*
X550792Y741727D01*
X549403Y741019D01*
X547920Y740537D01*
X547123Y740411D01*
X547123Y748677D01*
G37*
%LPD*%
%LPC*%
G36*
X205611Y675523D02*
X205611Y675523D01*
X205737Y676320D01*
X206219Y677803D01*
X206927Y679192D01*
X207844Y680454D01*
X208946Y681556D01*
X210208Y682473D01*
X211597Y683181D01*
X213080Y683663D01*
X213877Y683789D01*
X213877Y675523D01*
X205611Y675523D01*
G37*
%LPD*%
%LPC*%
G36*
X535811Y751723D02*
X535811Y751723D01*
X535937Y752520D01*
X536419Y754003D01*
X537127Y755392D01*
X538044Y756654D01*
X539146Y757756D01*
X540408Y758673D01*
X541797Y759381D01*
X543280Y759863D01*
X544077Y759989D01*
X544077Y751723D01*
X535811Y751723D01*
G37*
%LPD*%
%LPC*%
G36*
X543280Y740537D02*
X543280Y740537D01*
X541797Y741019D01*
X540408Y741727D01*
X539146Y742644D01*
X538044Y743746D01*
X537127Y745008D01*
X536419Y746397D01*
X535937Y747880D01*
X535811Y748677D01*
X544077Y748677D01*
X544077Y740411D01*
X543280Y740537D01*
G37*
%LPD*%
%LPC*%
G36*
X213080Y664337D02*
X213080Y664337D01*
X211597Y664819D01*
X210208Y665527D01*
X208946Y666444D01*
X207844Y667546D01*
X206927Y668808D01*
X206219Y670197D01*
X205737Y671680D01*
X205611Y672477D01*
X213877Y672477D01*
X213877Y664211D01*
X213080Y664337D01*
G37*
%LPD*%
%LPC*%
G36*
X526599Y93699D02*
X526599Y93699D01*
X526599Y93701D01*
X526601Y93701D01*
X526601Y93699D01*
X526599Y93699D01*
G37*
%LPD*%
%LPC*%
G36*
X473099Y238999D02*
X473099Y238999D01*
X473099Y239001D01*
X473101Y239001D01*
X473101Y238999D01*
X473099Y238999D01*
G37*
%LPD*%
%LPC*%
G36*
X215399Y673999D02*
X215399Y673999D01*
X215399Y674001D01*
X215401Y674001D01*
X215401Y673999D01*
X215399Y673999D01*
G37*
%LPD*%
%LPC*%
G36*
X178999Y649899D02*
X178999Y649899D01*
X178999Y649901D01*
X179001Y649901D01*
X179001Y649899D01*
X178999Y649899D01*
G37*
%LPD*%
%LPC*%
G36*
X353049Y228999D02*
X353049Y228999D01*
X353049Y229001D01*
X353051Y229001D01*
X353051Y228999D01*
X353049Y228999D01*
G37*
%LPD*%
%LPC*%
G36*
X183699Y261799D02*
X183699Y261799D01*
X183699Y261801D01*
X183701Y261801D01*
X183701Y261799D01*
X183699Y261799D01*
G37*
%LPD*%
%LPC*%
G36*
X36599Y845099D02*
X36599Y845099D01*
X36599Y845101D01*
X36601Y845101D01*
X36601Y845099D01*
X36599Y845099D01*
G37*
%LPD*%
%LPC*%
G36*
X329899Y76199D02*
X329899Y76199D01*
X329899Y76201D01*
X329901Y76201D01*
X329901Y76199D01*
X329899Y76199D01*
G37*
%LPD*%
%LPC*%
G36*
X545599Y750199D02*
X545599Y750199D01*
X545599Y750201D01*
X545601Y750201D01*
X545601Y750199D01*
X545599Y750199D01*
G37*
%LPD*%
%LPC*%
G36*
X471999Y265099D02*
X471999Y265099D01*
X471999Y265101D01*
X472001Y265101D01*
X472001Y265099D01*
X471999Y265099D01*
G37*
%LPD*%
%LPC*%
G36*
X468999Y186099D02*
X468999Y186099D01*
X468999Y186101D01*
X469001Y186101D01*
X469001Y186099D01*
X468999Y186099D01*
G37*
%LPD*%
%LPC*%
G36*
X397399Y277699D02*
X397399Y277699D01*
X397399Y277701D01*
X397401Y277701D01*
X397401Y277699D01*
X397399Y277699D01*
G37*
%LPD*%
%LPC*%
G36*
X216299Y482799D02*
X216299Y482799D01*
X216299Y482801D01*
X216301Y482801D01*
X216301Y482799D01*
X216299Y482799D01*
G37*
%LPD*%
%LPC*%
G36*
X156699Y386399D02*
X156699Y386399D01*
X156699Y386401D01*
X156701Y386401D01*
X156701Y386399D01*
X156699Y386399D01*
G37*
%LPD*%
%LPC*%
G36*
X179799Y890899D02*
X179799Y890899D01*
X179799Y890901D01*
X179801Y890901D01*
X179801Y890899D01*
X179799Y890899D01*
G37*
%LPD*%
%LPC*%
G36*
X36599Y97999D02*
X36599Y97999D01*
X36599Y98001D01*
X36601Y98001D01*
X36601Y97999D01*
X36599Y97999D01*
G37*
%LPD*%
%LPC*%
G36*
X526599Y839399D02*
X526599Y839399D01*
X526599Y839401D01*
X526601Y839401D01*
X526601Y839399D01*
X526599Y839399D01*
G37*
%LPD*%
%LPC*%
G36*
X389699Y890999D02*
X389699Y890999D01*
X389699Y891001D01*
X389701Y891001D01*
X389701Y890999D01*
X389699Y890999D01*
G37*
%LPD*%
%LPC*%
G36*
X393799Y160999D02*
X393799Y160999D01*
X393799Y161001D01*
X393801Y161001D01*
X393801Y160999D01*
X393799Y160999D01*
G37*
%LPD*%
%LPC*%
G36*
X239899Y77599D02*
X239899Y77599D01*
X239899Y77601D01*
X239901Y77601D01*
X239901Y77599D01*
X239899Y77599D01*
G37*
%LPD*%
D10*
X469000Y211500D03*
X469000Y186100D03*
X447700Y239000D03*
X473100Y239000D03*
X327650Y229000D03*
X353050Y229000D03*
D11*
X372000Y270080D02*
X372000Y285320D01*
X397400Y285320D02*
X397400Y270080D01*
X422800Y270080D02*
X422800Y285320D01*
D12*
X46400Y202400D03*
X46400Y237400D03*
X526400Y198600D03*
X526400Y233600D03*
X117100Y955000D03*
X152100Y955000D03*
X413300Y955000D03*
X448300Y955000D03*
X419500Y45000D03*
X454500Y45000D03*
X115700Y45000D03*
X150700Y45000D03*
D13*
X273700Y231200D03*
X299100Y231200D03*
X273700Y205800D03*
X299100Y205800D03*
X273700Y180400D03*
X299100Y180400D03*
X273700Y155000D03*
X299100Y155000D03*
X273700Y129600D03*
X299100Y129600D03*
D14*
X318010Y834684D03*
D15*
X333250Y815316D03*
D14*
X348490Y834684D03*
X361190Y815316D03*
D16*
X118700Y261800D03*
X183700Y261800D03*
D13*
X239900Y26800D03*
X239900Y52200D03*
X239900Y77600D03*
X329900Y25400D03*
X329900Y50800D03*
X329900Y76200D03*
D11*
X44220Y895900D02*
X28980Y895900D01*
X28980Y870500D02*
X44220Y870500D01*
X44220Y845100D02*
X28980Y845100D01*
X518980Y890200D02*
X534220Y890200D01*
X534220Y864800D02*
X518980Y864800D01*
X518980Y839400D02*
X534220Y839400D01*
X534220Y144500D02*
X518980Y144500D01*
X518980Y119100D02*
X534220Y119100D01*
X534220Y93700D02*
X518980Y93700D01*
X44220Y148800D02*
X28980Y148800D01*
X28980Y123400D02*
X44220Y123400D01*
X44220Y98000D02*
X28980Y98000D01*
D13*
X473600Y300100D03*
X549800Y300100D03*
X103600Y890900D03*
X179800Y890900D03*
X465900Y891000D03*
X389700Y891000D03*
X470000Y161000D03*
X393800Y161000D03*
X98400Y146500D03*
X174600Y146500D03*
X229000Y260700D03*
X229000Y184500D03*
X472000Y265100D03*
X548200Y265100D03*
X297100Y789900D03*
X220900Y789900D03*
X546200Y792400D03*
X470000Y792400D03*
X443400Y789100D03*
X367200Y789100D03*
X180000Y851600D03*
X103800Y851600D03*
X390900Y858400D03*
X467100Y858400D03*
X394300Y130900D03*
X470500Y130900D03*
X174800Y111600D03*
X98600Y111600D03*
D17*
X216300Y533600D03*
X216300Y508200D03*
X216300Y482800D03*
X216300Y457400D03*
X216300Y432000D03*
X216300Y406600D03*
X216300Y381200D03*
X216300Y355800D03*
D18*
X545600Y750200D03*
X520200Y750200D03*
X494800Y750200D03*
X469400Y750200D03*
X444000Y750200D03*
X418600Y750200D03*
X393200Y750200D03*
X367800Y750200D03*
X342400Y750200D03*
X317000Y750200D03*
X291600Y750200D03*
X266200Y750200D03*
X240800Y750200D03*
X215400Y750200D03*
X215400Y724800D03*
X215400Y699400D03*
X215400Y674000D03*
X215400Y648600D03*
X215400Y623200D03*
X215400Y597800D03*
X240800Y597800D03*
X266200Y597800D03*
X291600Y597800D03*
X317000Y597800D03*
X342400Y597800D03*
X367800Y597800D03*
X393200Y597800D03*
X418600Y597800D03*
X444000Y597800D03*
X469400Y597800D03*
X494800Y597800D03*
X520200Y597800D03*
X545600Y597800D03*
D19*
X179000Y599900D03*
D20*
X179000Y624900D03*
X179000Y649900D03*
X179000Y674900D03*
X179000Y699900D03*
X179000Y724900D03*
X179000Y749900D03*
D21*
X165590Y437200D02*
X147810Y437200D01*
X147810Y462600D02*
X165590Y462600D01*
X165590Y411800D02*
X147810Y411800D01*
X147810Y386400D02*
X165590Y386400D01*
X165590Y361000D02*
X147810Y361000D01*
X147810Y488000D02*
X165590Y488000D01*
X165590Y513400D02*
X147810Y513400D01*
X147810Y538800D02*
X165590Y538800D01*
D22*
X129000Y320000D02*
X46400Y237400D01*
D23*
X290000Y400000D03*
D22*
X290000Y320000D01*
X190000Y320000D02*
X129000Y320000D01*
X190000Y320000D02*
X290000Y320000D01*
D24*
X190000Y320000D03*
D23*
X75500Y196000D03*
D22*
X106500Y196000D01*
D23*
X141750Y160500D03*
D22*
X141750Y160750D01*
X106500Y196000D01*
D25*
X260000Y560000D03*
D26*
X320000Y500000D01*
D25*
X320000Y440000D03*
D26*
X320000Y500000D01*
X540000Y290300D02*
X549800Y300100D01*
X540000Y273300D02*
X548200Y265100D01*
X540000Y273300D02*
X540000Y290300D01*
D25*
X310000Y680000D03*
D26*
X290600Y699400D02*
X215400Y699400D01*
X290600Y699400D02*
X310000Y680000D01*
D25*
X440000Y680000D03*
D26*
X494800Y625200D01*
X494800Y597800D01*
X318010Y834684D02*
X294263Y834684D01*
X252918Y821918D01*
X220900Y789900D01*
X348490Y834684D02*
X427716Y834684D01*
X470000Y792400D01*
X367200Y809306D02*
X361190Y815316D01*
X367200Y809306D02*
X367200Y789100D01*
X297100Y789900D02*
X291600Y784400D01*
X291600Y750200D01*
X511600Y792400D02*
X546200Y792400D01*
X511600Y792400D02*
X469400Y750200D01*
X443400Y789100D02*
X406700Y789100D01*
X367800Y750200D01*
D27*
X145000Y927100D02*
X117100Y955000D01*
X145000Y927100D02*
X145000Y852500D01*
X145900Y851600D01*
X180000Y851600D01*
X413300Y880800D02*
X413300Y955000D01*
X413300Y880800D02*
X390900Y858400D01*
X394300Y70200D02*
X419500Y45000D01*
X394300Y70200D02*
X394300Y130900D01*
X115700Y52500D02*
X115700Y45000D01*
X115700Y52500D02*
X174800Y111600D01*
X84900Y870500D02*
X36600Y870500D01*
X84900Y870500D02*
X103800Y851600D01*
X473500Y864800D02*
X526600Y864800D01*
X473500Y864800D02*
X467100Y858400D01*
X470500Y130900D02*
X482300Y119100D01*
X526600Y119100D01*
X86800Y123400D02*
X36600Y123400D01*
X86800Y123400D02*
X98600Y111600D01*
X36600Y895900D02*
X50700Y910000D01*
X84500Y910000D02*
X103600Y890900D01*
X84500Y910000D02*
X50700Y910000D01*
D26*
X103600Y890900D02*
X122500Y872000D01*
X122500Y767500D01*
X242500Y767500D02*
X282500Y807500D01*
X307500Y807500D01*
X242500Y767500D02*
X122500Y767500D01*
X307500Y807500D02*
X330000Y785000D01*
X393200Y681800D02*
X393200Y597800D01*
X330000Y745000D02*
X330000Y785000D01*
X330000Y745000D02*
X393200Y681800D01*
D27*
X526600Y890200D02*
X509300Y907500D01*
X482400Y907500D02*
X465900Y891000D01*
X482400Y907500D02*
X509300Y907500D01*
D26*
X465900Y891000D02*
X450000Y875100D01*
X450000Y830000D01*
X470000Y810000D01*
X490000Y810000D01*
D25*
X450000Y710000D03*
D26*
X490000Y785000D02*
X490000Y810000D01*
X490000Y785000D02*
X470000Y765000D01*
X457500Y765000D01*
X457500Y717500D01*
X450000Y710000D01*
D27*
X470000Y161000D02*
X486500Y144500D01*
X526600Y144500D01*
D26*
X444000Y597800D02*
X463700Y617500D01*
X482500Y617500D01*
X482500Y362500D02*
X447500Y327500D01*
X447500Y260000D01*
X417500Y230000D02*
X417500Y160000D01*
X469000Y160000D01*
X470000Y161000D01*
X482500Y362500D02*
X482500Y617500D01*
X447500Y260000D02*
X417500Y230000D01*
D27*
X47800Y160000D02*
X36600Y148800D01*
X84900Y160000D02*
X98400Y146500D01*
X84900Y160000D02*
X47800Y160000D01*
D26*
X440000Y568400D02*
X469400Y597800D01*
X440000Y568400D02*
X440000Y267500D01*
X323000Y150500D01*
X323000Y105250D01*
X204750Y105250D01*
X180000Y130000D01*
X114900Y130000D02*
X98400Y146500D01*
X114900Y130000D02*
X180000Y130000D01*
D25*
X290000Y290000D03*
D26*
X308000Y432000D02*
X216300Y432000D01*
X290000Y300000D02*
X290000Y290000D01*
X290000Y300000D02*
X310000Y300000D01*
X310000Y430000D01*
X308000Y432000D01*
X216300Y406600D02*
X196600Y406600D01*
X190000Y400000D01*
X190000Y340000D01*
X20000Y340000D01*
X20000Y220000D01*
X180000Y220000D01*
X190750Y209250D02*
X190750Y131500D01*
X190750Y209250D02*
X180000Y220000D01*
X190750Y131500D02*
X207000Y115250D01*
X310500Y115250D01*
X314250Y165250D02*
X299100Y180400D01*
X314250Y119000D02*
X310500Y115250D01*
X314250Y119000D02*
X314250Y165250D01*
X370000Y595600D02*
X367800Y597800D01*
X370000Y595600D02*
X370000Y580000D01*
X200000Y580000D01*
X200000Y660000D01*
X185100Y674900D01*
X179000Y674900D01*
X200000Y580000D02*
X200000Y420000D01*
X191800Y411800D01*
X156700Y411800D01*
D25*
X200000Y155000D03*
D26*
X273700Y155000D01*
X342400Y597800D02*
X342400Y687600D01*
X320000Y710000D01*
X193900Y710000D02*
X179000Y724900D01*
X193900Y710000D02*
X320000Y710000D01*
X179000Y724900D02*
X154900Y724900D01*
X120000Y690000D02*
X120000Y440000D01*
X122800Y437200D01*
X156700Y437200D01*
X120000Y690000D02*
X154900Y724900D01*
D25*
X210000Y130000D03*
D26*
X273300Y130000D01*
X273700Y129600D01*
D25*
X270000Y410000D03*
D26*
X241200Y381200D01*
X216300Y381200D01*
X430000Y713400D02*
X393200Y750200D01*
X430000Y502500D02*
X342500Y415000D01*
X342500Y257500D01*
X332500Y247500D01*
X272500Y247500D02*
X272500Y232400D01*
X273700Y231200D01*
X430000Y502500D02*
X430000Y713400D01*
X332500Y247500D02*
X272500Y247500D01*
X405000Y687600D02*
X342400Y750200D01*
X335000Y420000D02*
X335000Y265000D01*
X332500Y262500D01*
X405000Y490000D02*
X405000Y687600D01*
X405000Y490000D02*
X335000Y420000D01*
X243750Y262500D02*
X242750Y261500D01*
X242750Y206750D01*
X243700Y205800D02*
X273700Y205800D01*
X243700Y205800D02*
X242750Y206750D01*
X243750Y262500D02*
X332500Y262500D01*
X380000Y687200D02*
X317000Y750200D01*
X380000Y480000D02*
X327500Y427500D01*
X380000Y480000D02*
X380000Y687200D01*
X327500Y277500D02*
X325000Y275000D01*
X327500Y277500D02*
X327500Y427500D01*
X214000Y271500D02*
X214000Y164000D01*
X257300Y164000D01*
X273700Y180400D01*
X325000Y275000D02*
X217500Y275000D01*
X214000Y271500D01*
M02*
