M48
;GenerationSoftware,Autodesk,EAGLE,9.6.2*%
;CreationDate,2020-09-20T05:26:58Z*%
FMAT,2
ICI,OFF
METRIC,TZ,000.000
T9C0.350
T8C0.700
T7C0.800
T6C0.900
T5C0.965
T4C1.000
T3C1.016
T2C1.500
T1C3.500
%
G90
M71
T1
X4000Y96000
X4000Y4000
X53000Y4000
X53000Y96000
T2
X29000Y40000
X7550Y19600
X14175Y16050
T3
X52660Y14450
X52660Y11910
X52660Y9370
X3660Y14880
X3660Y12340
X3660Y9800
X29910Y15500
X27370Y12960
X29910Y12960
X32990Y2540
X23990Y2680
X23990Y5220
X29910Y23120
X23990Y7760
X52660Y83940
X37200Y27770
X39740Y27770
X42280Y27770
X32990Y5080
X32990Y7620
X3660Y89590
X3660Y87050
X3660Y84510
X52660Y89020
X52660Y86480
X29910Y20580
X27370Y23120
X27370Y20580
X27370Y18040
X29910Y18040
X27370Y15500
T4
X21630Y40660
X21630Y43200
X21630Y45740
X21630Y48280
X21630Y50820
X21630Y53360
X17900Y74990
X17900Y72490
X4640Y20240
X4640Y23740
X52640Y19860
X52640Y23360
X11710Y95500
X15210Y95500
X41330Y95500
X15070Y4500
X41950Y4500
X17900Y69990
X45450Y4500
X44830Y95500
X17900Y67490
X11570Y4500
X17900Y62490
X17900Y59990
X21630Y35580
X21630Y38120
X17900Y64990
T5
X24080Y59780
X26620Y59780
X29160Y59780
X31700Y59780
X34240Y59780
X36780Y59780
X39320Y59780
X41860Y59780
X46940Y59780
X49480Y59780
X52020Y59780
X54560Y59780
X44400Y59780
X54560Y75020
X52020Y75020
X49480Y75020
X46940Y75020
X44400Y75020
X41860Y75020
X39320Y75020
X36780Y75020
X34240Y75020
X31700Y75020
X29160Y75020
X26620Y75020
X24080Y75020
X21540Y75020
X21540Y72480
X21540Y69940
X21540Y67400
X21540Y64860
X21540Y62320
X21540Y59780
T6
X47200Y26510
X39380Y16100
X11870Y26180
X47000Y16100
X18370Y26180
X47360Y30010
X54980Y30010
X17480Y11160
X10360Y89090
X17980Y89090
X46590Y89100
X38970Y89100
X22900Y26070
X22900Y18450
X9860Y11160
X54820Y26510
X29710Y78990
X22090Y78990
X54620Y79240
X47000Y79240
X44340Y78910
X36720Y78910
X18000Y85160
X10380Y85160
X39090Y85840
X46710Y85840
X39430Y13090
X47050Y13090
X9840Y14650
X17460Y14650
T7
X15670Y43720
X36119Y81532
X34849Y83468
X33325Y81532
X31801Y83468
X15670Y46260
X15670Y41180
X15670Y38640
X15670Y36100
X15670Y48800
X15670Y51340
X15670Y53880
T8
X46900Y18610
X46900Y21150
X47310Y23900
X35305Y22900
X32765Y22900
X44770Y23900
T9
X27000Y41000
X20000Y15500
X26000Y56000
X29000Y29000
X45000Y71000
X44000Y68000
X31000Y68000
X32000Y44000
X21000Y13000
M30